ISO-10303-21;
HEADER;
FILE_DESCRIPTION(('FreeCAD Model'),'2;1');
FILE_NAME('Open CASCADE Shape Model','2025-11-25T09:22:19',('Author'),(
    ''),'Open CASCADE STEP processor 7.8','FreeCAD','Unknown');
FILE_SCHEMA(('AUTOMOTIVE_DESIGN { 1 0 10303 214 1 1 1 1 }'));
ENDSEC;
DATA;
#1 = APPLICATION_PROTOCOL_DEFINITION('international standard',
  'automotive_design',2000,#2);
#2 = APPLICATION_CONTEXT(
  'core data for automotive mechanical design processes');
#3 = SHAPE_DEFINITION_REPRESENTATION(#4,#10);
#4 = PRODUCT_DEFINITION_SHAPE('','',#5);
#5 = PRODUCT_DEFINITION('design','',#6,#9);
#6 = PRODUCT_DEFINITION_FORMATION('','',#7);
#7 = PRODUCT('Wheel','Wheel','',(#8));
#8 = PRODUCT_CONTEXT('',#2,'mechanical');
#9 = PRODUCT_DEFINITION_CONTEXT('part definition',#2,'design');
#10 = ADVANCED_BREP_SHAPE_REPRESENTATION('',(#11,#15),#1856);
#11 = AXIS2_PLACEMENT_3D('',#12,#13,#14);
#12 = CARTESIAN_POINT('',(0.,0.,0.));
#13 = DIRECTION('',(0.,0.,1.));
#14 = DIRECTION('',(1.,0.,-0.));
#15 = MANIFOLD_SOLID_BREP('',#16);
#16 = CLOSED_SHELL('',(#17,#50,#70,#90,#115,#344,#405,#437,#487,#511,
    #561,#586,#636,#660,#710,#735,#785,#809,#859,#884,#934,#958,#1008,
    #1066,#1116,#1140,#1190,#1215,#1265,#1290,#1333,#1364,#1389,#1420,
    #1437,#1470,#1488,#1506,#1528,#1540,#1558,#1580,#1592,#1610,#1632,
    #1644,#1662,#1684,#1696,#1714,#1732,#1754,#1766,#1784,#1806,#1818));
#17 = ADVANCED_FACE('',(#18),#45,.T.);
#18 = FACE_BOUND('',#19,.F.);
#19 = EDGE_LOOP('',(#20,#30,#37,#38));
#20 = ORIENTED_EDGE('',*,*,#21,.T.);
#21 = EDGE_CURVE('',#22,#24,#26,.T.);
#22 = VERTEX_POINT('',#23);
#23 = CARTESIAN_POINT('',(20.,69.,-1.6E-14));
#24 = VERTEX_POINT('',#25);
#25 = CARTESIAN_POINT('',(20.,51.,-1.2E-14));
#26 = LINE('',#27,#28);
#27 = CARTESIAN_POINT('',(20.,69.,-1.532E-14));
#28 = VECTOR('',#29,1.);
#29 = DIRECTION('',(0.,-1.,2.2E-16));
#30 = ORIENTED_EDGE('',*,*,#31,.T.);
#31 = EDGE_CURVE('',#24,#24,#32,.T.);
#32 = CIRCLE('',#33,20.);
#33 = AXIS2_PLACEMENT_3D('',#34,#35,#36);
#34 = CARTESIAN_POINT('',(0.,51.,-1.42108547152E-14));
#35 = DIRECTION('',(0.,-1.,-2.2E-16));
#36 = DIRECTION('',(1.,0.,0.));
#37 = ORIENTED_EDGE('',*,*,#21,.F.);
#38 = ORIENTED_EDGE('',*,*,#39,.F.);
#39 = EDGE_CURVE('',#22,#22,#40,.T.);
#40 = CIRCLE('',#41,20.);
#41 = AXIS2_PLACEMENT_3D('',#42,#43,#44);
#42 = CARTESIAN_POINT('',(0.,69.,-1.42108547152E-14));
#43 = DIRECTION('',(0.,-1.,-2.2E-16));
#44 = DIRECTION('',(1.,0.,0.));
#45 = CYLINDRICAL_SURFACE('',#46,20.);
#46 = AXIS2_PLACEMENT_3D('',#47,#48,#49);
#47 = CARTESIAN_POINT('',(0.,69.,-1.532E-14));
#48 = DIRECTION('',(0.,1.,-2.2E-16));
#49 = DIRECTION('',(1.,0.,0.));
#50 = ADVANCED_FACE('',(#51,#62),#65,.F.);
#51 = FACE_BOUND('',#52,.F.);
#52 = EDGE_LOOP('',(#53));
#53 = ORIENTED_EDGE('',*,*,#54,.T.);
#54 = EDGE_CURVE('',#55,#55,#57,.T.);
#55 = VERTEX_POINT('',#56);
#56 = CARTESIAN_POINT('',(21.,69.,1.5E-14));
#57 = CIRCLE('',#58,21.);
#58 = AXIS2_PLACEMENT_3D('',#59,#60,#61);
#59 = CARTESIAN_POINT('',(0.,69.,1.42108547152E-14));
#60 = DIRECTION('',(-0.,1.,2.2E-16));
#61 = DIRECTION('',(1.,0.,0.));
#62 = FACE_BOUND('',#63,.F.);
#63 = EDGE_LOOP('',(#64));
#64 = ORIENTED_EDGE('',*,*,#39,.T.);
#65 = PLANE('',#66);
#66 = AXIS2_PLACEMENT_3D('',#67,#68,#69);
#67 = CARTESIAN_POINT('',(-1.04E-15,69.,1.514E-14));
#68 = DIRECTION('',(0.,1.,2.2E-16));
#69 = DIRECTION('',(0.,-2.2E-16,1.));
#70 = ADVANCED_FACE('',(#71,#74),#85,.F.);
#71 = FACE_BOUND('',#72,.T.);
#72 = EDGE_LOOP('',(#73));
#73 = ORIENTED_EDGE('',*,*,#31,.T.);
#74 = FACE_BOUND('',#75,.F.);
#75 = EDGE_LOOP('',(#76));
#76 = ORIENTED_EDGE('',*,*,#77,.T.);
#77 = EDGE_CURVE('',#78,#78,#80,.T.);
#78 = VERTEX_POINT('',#79);
#79 = CARTESIAN_POINT('',(18.4,51.,-1.2E-14));
#80 = CIRCLE('',#81,18.4);
#81 = AXIS2_PLACEMENT_3D('',#82,#83,#84);
#82 = CARTESIAN_POINT('',(0.,51.,-1.42108547152E-14));
#83 = DIRECTION('',(0.,-1.,-2.2E-16));
#84 = DIRECTION('',(1.,0.,0.));
#85 = PLANE('',#86);
#86 = AXIS2_PLACEMENT_3D('',#87,#88,#89);
#87 = CARTESIAN_POINT('',(-1.42E-15,51.,-1.42108547152E-14));
#88 = DIRECTION('',(0.,1.,2.2E-16));
#89 = DIRECTION('',(0.,-2.2E-16,1.));
#90 = ADVANCED_FACE('',(#91),#110,.T.);
#91 = FACE_BOUND('',#92,.F.);
#92 = EDGE_LOOP('',(#93,#101,#108,#109));
#93 = ORIENTED_EDGE('',*,*,#94,.T.);
#94 = EDGE_CURVE('',#55,#95,#97,.T.);
#95 = VERTEX_POINT('',#96);
#96 = CARTESIAN_POINT('',(21.,70.,1.6E-14));
#97 = LINE('',#98,#99);
#98 = CARTESIAN_POINT('',(21.,69.,0.));
#99 = VECTOR('',#100,1.);
#100 = DIRECTION('',(0.,1.,2.2E-16));
#101 = ORIENTED_EDGE('',*,*,#102,.T.);
#102 = EDGE_CURVE('',#95,#95,#103,.T.);
#103 = CIRCLE('',#104,21.);
#104 = AXIS2_PLACEMENT_3D('',#105,#106,#107);
#105 = CARTESIAN_POINT('',(0.,70.,1.42108547152E-14));
#106 = DIRECTION('',(-0.,1.,2.2E-16));
#107 = DIRECTION('',(1.,0.,0.));
#108 = ORIENTED_EDGE('',*,*,#94,.F.);
#109 = ORIENTED_EDGE('',*,*,#54,.F.);
#110 = CYLINDRICAL_SURFACE('',#111,21.);
#111 = AXIS2_PLACEMENT_3D('',#112,#113,#114);
#112 = CARTESIAN_POINT('',(0.,69.,0.));
#113 = DIRECTION('',(0.,-1.,-2.2E-16));
#114 = DIRECTION('',(1.,0.,0.));
#115 = ADVANCED_FACE('',(#116),#339,.F.);
#116 = FACE_BOUND('',#117,.T.);
#117 = EDGE_LOOP('',(#118,#129,#137,#146,#152,#153,#154,#163,#171,#180,
    #188,#197,#205,#214,#222,#231,#239,#248,#256,#265,#273,#282,#290,
    #299,#307,#316,#324,#333));
#118 = ORIENTED_EDGE('',*,*,#119,.F.);
#119 = EDGE_CURVE('',#120,#122,#124,.T.);
#120 = VERTEX_POINT('',#121);
#121 = CARTESIAN_POINT('',(18.393205267163,69.,0.5));
#122 = VERTEX_POINT('',#123);
#123 = CARTESIAN_POINT('',(9.629615335473,69.,15.678983018385));
#124 = CIRCLE('',#125,18.4);
#125 = AXIS2_PLACEMENT_3D('',#126,#127,#128);
#126 = CARTESIAN_POINT('',(0.,69.,-1.42108547152E-14));
#127 = DIRECTION('',(0.,-1.,-2.2E-16));
#128 = DIRECTION('',(1.,0.,0.));
#129 = ORIENTED_EDGE('',*,*,#130,.F.);
#130 = EDGE_CURVE('',#131,#120,#133,.T.);
#131 = VERTEX_POINT('',#132);
#132 = CARTESIAN_POINT('',(18.393205267163,67.55665563212,0.5));
#133 = LINE('',#134,#135);
#134 = CARTESIAN_POINT('',(18.393205267163,69.,0.5));
#135 = VECTOR('',#136,1.);
#136 = DIRECTION('',(0.,1.,-4.4E-16));
#137 = ORIENTED_EDGE('',*,*,#138,.T.);
#138 = EDGE_CURVE('',#131,#139,#141,.T.);
#139 = VERTEX_POINT('',#140);
#140 = CARTESIAN_POINT('',(18.4,67.557920911146,-1.5E-14));
#141 = ELLIPSE('',#142,18.716299729402,18.4);
#142 = AXIS2_PLACEMENT_3D('',#143,#144,#145);
#143 = CARTESIAN_POINT('',(0.,64.131570730443,-2.85E-14));
#144 = DIRECTION('',(-0.183067712648,0.983100306472,-2.4E-16));
#145 = DIRECTION('',(0.983100306472,0.183067712648,-1.11E-15));
#146 = ORIENTED_EDGE('',*,*,#147,.T.);
#147 = EDGE_CURVE('',#139,#78,#148,.T.);
#148 = LINE('',#149,#150);
#149 = CARTESIAN_POINT('',(18.4,69.,-1.532E-14));
#150 = VECTOR('',#151,1.);
#151 = DIRECTION('',(0.,-1.,2.2E-16));
#152 = ORIENTED_EDGE('',*,*,#77,.T.);
#153 = ORIENTED_EDGE('',*,*,#147,.F.);
#154 = ORIENTED_EDGE('',*,*,#155,.T.);
#155 = EDGE_CURVE('',#139,#156,#158,.T.);
#156 = VERTEX_POINT('',#157);
#157 = CARTESIAN_POINT('',(18.393205267163,67.55665563212,-0.5));
#158 = ELLIPSE('',#159,18.716299729402,18.4);
#159 = AXIS2_PLACEMENT_3D('',#160,#161,#162);
#160 = CARTESIAN_POINT('',(0.,64.131570730443,-2.85E-14));
#161 = DIRECTION('',(-0.183067712648,0.983100306472,-2.4E-16));
#162 = DIRECTION('',(0.983100306472,0.183067712648,-1.11E-15));
#163 = ORIENTED_EDGE('',*,*,#164,.T.);
#164 = EDGE_CURVE('',#156,#165,#167,.T.);
#165 = VERTEX_POINT('',#166);
#166 = CARTESIAN_POINT('',(18.393205267163,69.,-0.5));
#167 = LINE('',#168,#169);
#168 = CARTESIAN_POINT('',(18.393205267163,69.,-0.5));
#169 = VECTOR('',#170,1.);
#170 = DIRECTION('',(0.,1.,-4.4E-16));
#171 = ORIENTED_EDGE('',*,*,#172,.F.);
#172 = EDGE_CURVE('',#173,#165,#175,.T.);
#173 = VERTEX_POINT('',#174);
#174 = CARTESIAN_POINT('',(9.629615335473,69.,-15.67898301838));
#175 = CIRCLE('',#176,18.4);
#176 = AXIS2_PLACEMENT_3D('',#177,#178,#179);
#177 = CARTESIAN_POINT('',(0.,69.,-1.42108547152E-14));
#178 = DIRECTION('',(0.,-1.,-2.2E-16));
#179 = DIRECTION('',(1.,0.,0.));
#180 = ORIENTED_EDGE('',*,*,#181,.F.);
#181 = EDGE_CURVE('',#182,#173,#184,.T.);
#182 = VERTEX_POINT('',#183);
#183 = CARTESIAN_POINT('',(9.629615335474,67.55665563212,-15.67898301838
    ));
#184 = LINE('',#185,#186);
#185 = CARTESIAN_POINT('',(9.629615335474,69.,-15.67898301838));
#186 = VECTOR('',#187,1.);
#187 = DIRECTION('',(0.,1.,-4.4E-16));
#188 = ORIENTED_EDGE('',*,*,#189,.T.);
#189 = EDGE_CURVE('',#182,#190,#192,.T.);
#190 = VERTEX_POINT('',#191);
#191 = CARTESIAN_POINT('',(8.763589931689,67.55665563212,-16.17898301838
    ));
#192 = ELLIPSE('',#193,18.716299729402,18.4);
#193 = AXIS2_PLACEMENT_3D('',#194,#195,#196);
#194 = CARTESIAN_POINT('',(0.,64.131570730443,-2.85E-14));
#195 = DIRECTION('',(-9.153385632419E-02,0.983100306472,0.158541289766)
  );
#196 = DIRECTION('',(0.491550153236,0.183067712648,-0.851389839873));
#197 = ORIENTED_EDGE('',*,*,#198,.T.);
#198 = EDGE_CURVE('',#190,#199,#201,.T.);
#199 = VERTEX_POINT('',#200);
#200 = CARTESIAN_POINT('',(8.763589931689,69.,-16.17898301838));
#201 = LINE('',#202,#203);
#202 = CARTESIAN_POINT('',(8.763589931689,69.,-16.17898301838));
#203 = VECTOR('',#204,1.);
#204 = DIRECTION('',(0.,1.,-4.4E-16));
#205 = ORIENTED_EDGE('',*,*,#206,.F.);
#206 = EDGE_CURVE('',#207,#199,#209,.T.);
#207 = VERTEX_POINT('',#208);
#208 = CARTESIAN_POINT('',(-8.763589931689,69.,-16.17898301838));
#209 = CIRCLE('',#210,18.4);
#210 = AXIS2_PLACEMENT_3D('',#211,#212,#213);
#211 = CARTESIAN_POINT('',(0.,69.,-1.42108547152E-14));
#212 = DIRECTION('',(0.,-1.,-2.2E-16));
#213 = DIRECTION('',(1.,0.,0.));
#214 = ORIENTED_EDGE('',*,*,#215,.F.);
#215 = EDGE_CURVE('',#216,#207,#218,.T.);
#216 = VERTEX_POINT('',#217);
#217 = CARTESIAN_POINT('',(-8.763589931689,67.55665563212,
    -16.17898301838));
#218 = LINE('',#219,#220);
#219 = CARTESIAN_POINT('',(-8.763589931689,69.,-16.17898301838));
#220 = VECTOR('',#221,1.);
#221 = DIRECTION('',(0.,1.,-4.4E-16));
#222 = ORIENTED_EDGE('',*,*,#223,.T.);
#223 = EDGE_CURVE('',#216,#224,#226,.T.);
#224 = VERTEX_POINT('',#225);
#225 = CARTESIAN_POINT('',(-9.629615335474,67.55665563212,
    -15.67898301838));
#226 = ELLIPSE('',#227,18.716299729402,18.4);
#227 = AXIS2_PLACEMENT_3D('',#228,#229,#230);
#228 = CARTESIAN_POINT('',(0.,64.131570730443,-2.85E-14));
#229 = DIRECTION('',(9.153385632419E-02,0.983100306472,0.158541289766));
#230 = DIRECTION('',(-0.491550153236,0.183067712648,-0.851389839873));
#231 = ORIENTED_EDGE('',*,*,#232,.T.);
#232 = EDGE_CURVE('',#224,#233,#235,.T.);
#233 = VERTEX_POINT('',#234);
#234 = CARTESIAN_POINT('',(-9.629615335473,69.,-15.67898301838));
#235 = LINE('',#236,#237);
#236 = CARTESIAN_POINT('',(-9.629615335474,69.,-15.67898301838));
#237 = VECTOR('',#238,1.);
#238 = DIRECTION('',(0.,1.,-4.4E-16));
#239 = ORIENTED_EDGE('',*,*,#240,.F.);
#240 = EDGE_CURVE('',#241,#233,#243,.T.);
#241 = VERTEX_POINT('',#242);
#242 = CARTESIAN_POINT('',(-18.39320526716,69.,-0.5));
#243 = CIRCLE('',#244,18.4);
#244 = AXIS2_PLACEMENT_3D('',#245,#246,#247);
#245 = CARTESIAN_POINT('',(0.,69.,-1.42108547152E-14));
#246 = DIRECTION('',(0.,-1.,-2.2E-16));
#247 = DIRECTION('',(1.,0.,0.));
#248 = ORIENTED_EDGE('',*,*,#249,.F.);
#249 = EDGE_CURVE('',#250,#241,#252,.T.);
#250 = VERTEX_POINT('',#251);
#251 = CARTESIAN_POINT('',(-18.39320526716,67.55665563212,-0.5));
#252 = LINE('',#253,#254);
#253 = CARTESIAN_POINT('',(-18.39320526716,69.,-0.5));
#254 = VECTOR('',#255,1.);
#255 = DIRECTION('',(0.,1.,-4.4E-16));
#256 = ORIENTED_EDGE('',*,*,#257,.T.);
#257 = EDGE_CURVE('',#250,#258,#260,.T.);
#258 = VERTEX_POINT('',#259);
#259 = CARTESIAN_POINT('',(-18.39320526716,67.55665563212,0.5));
#260 = ELLIPSE('',#261,18.716299729402,18.4);
#261 = AXIS2_PLACEMENT_3D('',#262,#263,#264);
#262 = CARTESIAN_POINT('',(0.,64.131570730443,-2.85E-14));
#263 = DIRECTION('',(0.183067712648,0.983100306472,0.));
#264 = DIRECTION('',(-0.983100306472,0.183067712648,-2.4E-15));
#265 = ORIENTED_EDGE('',*,*,#266,.T.);
#266 = EDGE_CURVE('',#258,#267,#269,.T.);
#267 = VERTEX_POINT('',#268);
#268 = CARTESIAN_POINT('',(-18.39320526716,69.,0.5));
#269 = LINE('',#270,#271);
#270 = CARTESIAN_POINT('',(-18.39320526716,69.,0.5));
#271 = VECTOR('',#272,1.);
#272 = DIRECTION('',(0.,1.,-4.4E-16));
#273 = ORIENTED_EDGE('',*,*,#274,.F.);
#274 = EDGE_CURVE('',#275,#267,#277,.T.);
#275 = VERTEX_POINT('',#276);
#276 = CARTESIAN_POINT('',(-9.629615335473,69.,15.678983018385));
#277 = CIRCLE('',#278,18.4);
#278 = AXIS2_PLACEMENT_3D('',#279,#280,#281);
#279 = CARTESIAN_POINT('',(0.,69.,-1.42108547152E-14));
#280 = DIRECTION('',(0.,-1.,-2.2E-16));
#281 = DIRECTION('',(1.,0.,0.));
#282 = ORIENTED_EDGE('',*,*,#283,.F.);
#283 = EDGE_CURVE('',#284,#275,#286,.T.);
#284 = VERTEX_POINT('',#285);
#285 = CARTESIAN_POINT('',(-9.629615335474,67.55665563212,
    15.678983018385));
#286 = LINE('',#287,#288);
#287 = CARTESIAN_POINT('',(-9.629615335474,69.,15.678983018385));
#288 = VECTOR('',#289,1.);
#289 = DIRECTION('',(0.,1.,-4.4E-16));
#290 = ORIENTED_EDGE('',*,*,#291,.T.);
#291 = EDGE_CURVE('',#284,#292,#294,.T.);
#292 = VERTEX_POINT('',#293);
#293 = CARTESIAN_POINT('',(-8.763589931689,67.55665563212,
    16.178983018385));
#294 = ELLIPSE('',#295,18.716299729402,18.4);
#295 = AXIS2_PLACEMENT_3D('',#296,#297,#298);
#296 = CARTESIAN_POINT('',(0.,64.131570730443,-2.85E-14));
#297 = DIRECTION('',(9.15338563242E-02,0.983100306472,-0.158541289766));
#298 = DIRECTION('',(-0.491550153236,0.183067712648,0.851389839873));
#299 = ORIENTED_EDGE('',*,*,#300,.T.);
#300 = EDGE_CURVE('',#292,#301,#303,.T.);
#301 = VERTEX_POINT('',#302);
#302 = CARTESIAN_POINT('',(-8.763589931689,69.,16.178983018385));
#303 = LINE('',#304,#305);
#304 = CARTESIAN_POINT('',(-8.763589931689,69.,16.178983018385));
#305 = VECTOR('',#306,1.);
#306 = DIRECTION('',(0.,1.,-4.4E-16));
#307 = ORIENTED_EDGE('',*,*,#308,.F.);
#308 = EDGE_CURVE('',#309,#301,#311,.T.);
#309 = VERTEX_POINT('',#310);
#310 = CARTESIAN_POINT('',(8.763589931689,69.,16.178983018385));
#311 = CIRCLE('',#312,18.4);
#312 = AXIS2_PLACEMENT_3D('',#313,#314,#315);
#313 = CARTESIAN_POINT('',(0.,69.,-1.42108547152E-14));
#314 = DIRECTION('',(0.,-1.,-2.2E-16));
#315 = DIRECTION('',(1.,0.,0.));
#316 = ORIENTED_EDGE('',*,*,#317,.F.);
#317 = EDGE_CURVE('',#318,#309,#320,.T.);
#318 = VERTEX_POINT('',#319);
#319 = CARTESIAN_POINT('',(8.763589931689,67.55665563212,16.178983018385
    ));
#320 = LINE('',#321,#322);
#321 = CARTESIAN_POINT('',(8.763589931689,69.,16.178983018385));
#322 = VECTOR('',#323,1.);
#323 = DIRECTION('',(0.,1.,-4.4E-16));
#324 = ORIENTED_EDGE('',*,*,#325,.T.);
#325 = EDGE_CURVE('',#318,#326,#328,.T.);
#326 = VERTEX_POINT('',#327);
#327 = CARTESIAN_POINT('',(9.629615335474,67.55665563212,15.678983018385
    ));
#328 = ELLIPSE('',#329,18.716299729402,18.4);
#329 = AXIS2_PLACEMENT_3D('',#330,#331,#332);
#330 = CARTESIAN_POINT('',(0.,64.131570730443,-2.85E-14));
#331 = DIRECTION('',(-9.153385632419E-02,0.983100306472,-0.158541289766)
  );
#332 = DIRECTION('',(0.491550153236,0.183067712648,0.851389839873));
#333 = ORIENTED_EDGE('',*,*,#334,.T.);
#334 = EDGE_CURVE('',#326,#122,#335,.T.);
#335 = LINE('',#336,#337);
#336 = CARTESIAN_POINT('',(9.629615335474,69.,15.678983018385));
#337 = VECTOR('',#338,1.);
#338 = DIRECTION('',(0.,1.,-4.4E-16));
#339 = CYLINDRICAL_SURFACE('',#340,18.4);
#340 = AXIS2_PLACEMENT_3D('',#341,#342,#343);
#341 = CARTESIAN_POINT('',(0.,69.,-1.532E-14));
#342 = DIRECTION('',(0.,1.,-2.2E-16));
#343 = DIRECTION('',(1.,0.,0.));
#344 = ADVANCED_FACE('',(#345,#348),#400,.T.);
#345 = FACE_BOUND('',#346,.T.);
#346 = EDGE_LOOP('',(#347));
#347 = ORIENTED_EDGE('',*,*,#102,.T.);
#348 = FACE_BOUND('',#349,.T.);
#349 = EDGE_LOOP('',(#350,#360,#369,#377,#385,#393));
#350 = ORIENTED_EDGE('',*,*,#351,.T.);
#351 = EDGE_CURVE('',#352,#354,#356,.T.);
#352 = VERTEX_POINT('',#353);
#353 = CARTESIAN_POINT('',(1.24899959968,70.,1.));
#354 = VERTEX_POINT('',#355);
#355 = CARTESIAN_POINT('',(-1.24899959968,70.,1.));
#356 = LINE('',#357,#358);
#357 = CARTESIAN_POINT('',(-0.62449979984,70.,1.));
#358 = VECTOR('',#359,1.);
#359 = DIRECTION('',(-1.,0.,0.));
#360 = ORIENTED_EDGE('',*,*,#361,.T.);
#361 = EDGE_CURVE('',#354,#362,#364,.T.);
#362 = VERTEX_POINT('',#363);
#363 = CARTESIAN_POINT('',(-0.6,70.,-1.483239697419));
#364 = CIRCLE('',#365,1.6);
#365 = AXIS2_PLACEMENT_3D('',#366,#367,#368);
#366 = CARTESIAN_POINT('',(0.,70.,-2.18E-15));
#367 = DIRECTION('',(0.,-1.,2.2E-16));
#368 = DIRECTION('',(1.,0.,0.));
#369 = ORIENTED_EDGE('',*,*,#370,.F.);
#370 = EDGE_CURVE('',#371,#362,#373,.T.);
#371 = VERTEX_POINT('',#372);
#372 = CARTESIAN_POINT('',(-0.6,70.,-13.48323969741));
#373 = LINE('',#374,#375);
#374 = CARTESIAN_POINT('',(-0.6,70.,-0.74161984871));
#375 = VECTOR('',#376,1.);
#376 = DIRECTION('',(0.,0.,1.));
#377 = ORIENTED_EDGE('',*,*,#378,.F.);
#378 = EDGE_CURVE('',#379,#371,#381,.T.);
#379 = VERTEX_POINT('',#380);
#380 = CARTESIAN_POINT('',(0.6,70.,-13.48323969741));
#381 = LINE('',#382,#383);
#382 = CARTESIAN_POINT('',(-0.3,70.,-13.48323969741));
#383 = VECTOR('',#384,1.);
#384 = DIRECTION('',(-1.,0.,0.));
#385 = ORIENTED_EDGE('',*,*,#386,.F.);
#386 = EDGE_CURVE('',#387,#379,#389,.T.);
#387 = VERTEX_POINT('',#388);
#388 = CARTESIAN_POINT('',(0.6,70.,-1.483239697419));
#389 = LINE('',#390,#391);
#390 = CARTESIAN_POINT('',(0.6,70.,-6.74161984871));
#391 = VECTOR('',#392,1.);
#392 = DIRECTION('',(0.,0.,-1.));
#393 = ORIENTED_EDGE('',*,*,#394,.T.);
#394 = EDGE_CURVE('',#387,#352,#395,.T.);
#395 = CIRCLE('',#396,1.6);
#396 = AXIS2_PLACEMENT_3D('',#397,#398,#399);
#397 = CARTESIAN_POINT('',(0.,70.,-2.18E-15));
#398 = DIRECTION('',(0.,-1.,2.2E-16));
#399 = DIRECTION('',(1.,0.,0.));
#400 = PLANE('',#401);
#401 = AXIS2_PLACEMENT_3D('',#402,#403,#404);
#402 = CARTESIAN_POINT('',(-1.04E-15,70.,1.532107773983E-14));
#403 = DIRECTION('',(0.,1.,2.2E-16));
#404 = DIRECTION('',(0.,-2.2E-16,1.));
#405 = ADVANCED_FACE('',(#406),#432,.F.);
#406 = FACE_BOUND('',#407,.F.);
#407 = EDGE_LOOP('',(#408,#409,#417,#426));
#408 = ORIENTED_EDGE('',*,*,#119,.F.);
#409 = ORIENTED_EDGE('',*,*,#410,.T.);
#410 = EDGE_CURVE('',#120,#411,#413,.T.);
#411 = VERTEX_POINT('',#412);
#412 = CARTESIAN_POINT('',(3.968626966597,69.,0.5));
#413 = LINE('',#414,#415);
#414 = CARTESIAN_POINT('',(19.7,69.,0.5));
#415 = VECTOR('',#416,1.);
#416 = DIRECTION('',(-1.,3.4E-16,1.E-16));
#417 = ORIENTED_EDGE('',*,*,#418,.T.);
#418 = EDGE_CURVE('',#411,#419,#421,.T.);
#419 = VERTEX_POINT('',#420);
#420 = CARTESIAN_POINT('',(2.417326185191,69.,3.186931771217));
#421 = CIRCLE('',#422,4.);
#422 = AXIS2_PLACEMENT_3D('',#423,#424,#425);
#423 = CARTESIAN_POINT('',(0.,69.,1.42108547152E-14));
#424 = DIRECTION('',(0.,-1.,-2.2E-16));
#425 = DIRECTION('',(1.,0.,0.));
#426 = ORIENTED_EDGE('',*,*,#427,.F.);
#427 = EDGE_CURVE('',#122,#419,#428,.T.);
#428 = LINE('',#429,#430);
#429 = CARTESIAN_POINT('',(10.283012701892,69.,16.810700454553));
#430 = VECTOR('',#431,1.);
#431 = DIRECTION('',(-0.5,-8.326672684689E-17,-0.866025403784));
#432 = PLANE('',#433);
#433 = AXIS2_PLACEMENT_3D('',#434,#435,#436);
#434 = CARTESIAN_POINT('',(-1.04E-15,69.,1.514E-14));
#435 = DIRECTION('',(0.,1.,2.2E-16));
#436 = DIRECTION('',(0.,-2.2E-16,1.));
#437 = ADVANCED_FACE('',(#438),#482,.T.);
#438 = FACE_BOUND('',#439,.T.);
#439 = EDGE_LOOP('',(#440,#451,#459,#465,#466,#467,#475));
#440 = ORIENTED_EDGE('',*,*,#441,.F.);
#441 = EDGE_CURVE('',#442,#444,#446,.T.);
#442 = VERTEX_POINT('',#443);
#443 = CARTESIAN_POINT('',(2.433012701892,60.2,3.214101615138));
#444 = VERTEX_POINT('',#445);
#445 = CARTESIAN_POINT('',(5.433012701892,66.2,8.410254037844));
#446 = CIRCLE('',#447,6.);
#447 = AXIS2_PLACEMENT_3D('',#448,#449,#450);
#448 = CARTESIAN_POINT('',(5.433012701892,60.2,8.410254037844));
#449 = DIRECTION('',(0.866025403784,-3.996665248794E-16,-0.5));
#450 = DIRECTION('',(-0.5,-2.775557561563E-17,-0.866025403784));
#451 = ORIENTED_EDGE('',*,*,#452,.F.);
#452 = EDGE_CURVE('',#453,#442,#455,.T.);
#453 = VERTEX_POINT('',#454);
#454 = CARTESIAN_POINT('',(2.417326185191,60.2,3.186931771217));
#455 = LINE('',#456,#457);
#456 = CARTESIAN_POINT('',(2.183012701892,60.2,2.781088913246));
#457 = VECTOR('',#458,1.);
#458 = DIRECTION('',(0.5,8.326672684689E-17,0.866025403784));
#459 = ORIENTED_EDGE('',*,*,#460,.T.);
#460 = EDGE_CURVE('',#453,#419,#461,.T.);
#461 = LINE('',#462,#463);
#462 = CARTESIAN_POINT('',(2.417326185191,69.,3.186931771217));
#463 = VECTOR('',#464,1.);
#464 = DIRECTION('',(0.,1.,-4.4E-16));
#465 = ORIENTED_EDGE('',*,*,#427,.F.);
#466 = ORIENTED_EDGE('',*,*,#334,.F.);
#467 = ORIENTED_EDGE('',*,*,#468,.T.);
#468 = EDGE_CURVE('',#326,#469,#471,.T.);
#469 = VERTEX_POINT('',#470);
#470 = CARTESIAN_POINT('',(6.531418977783,66.402796322334,
    10.312749515039));
#471 = LINE('',#472,#473);
#472 = CARTESIAN_POINT('',(10.283012701892,67.8,16.810700454553));
#473 = VECTOR('',#474,1.);
#474 = DIRECTION('',(-0.491550153236,-0.183067712648,-0.851389839873));
#475 = ORIENTED_EDGE('',*,*,#476,.T.);
#476 = EDGE_CURVE('',#469,#444,#477,.T.);
#477 = CIRCLE('',#478,12.);
#478 = AXIS2_PLACEMENT_3D('',#479,#480,#481);
#479 = CARTESIAN_POINT('',(5.433012701892,78.2,8.410254037844));
#480 = DIRECTION('',(0.866025403784,-3.996665248794E-16,-0.5));
#481 = DIRECTION('',(-0.5,-2.775557561563E-17,-0.866025403784));
#482 = PLANE('',#483);
#483 = AXIS2_PLACEMENT_3D('',#484,#485,#486);
#484 = CARTESIAN_POINT('',(5.327179955575,66.566906285057,8.226946344119
    ));
#485 = DIRECTION('',(0.866025403784,-3.885780586188E-16,-0.5));
#486 = DIRECTION('',(-0.5,-5.551115123126E-17,-0.866025403784));
#487 = ADVANCED_FACE('',(#488),#506,.F.);
#488 = FACE_BOUND('',#489,.F.);
#489 = EDGE_LOOP('',(#490,#498,#499,#500));
#490 = ORIENTED_EDGE('',*,*,#491,.F.);
#491 = EDGE_CURVE('',#318,#492,#494,.T.);
#492 = VERTEX_POINT('',#493);
#493 = CARTESIAN_POINT('',(5.665393573998,66.402796322334,
    10.812749515039));
#494 = LINE('',#495,#496);
#495 = CARTESIAN_POINT('',(9.416987298108,67.8,17.310700454553));
#496 = VECTOR('',#497,1.);
#497 = DIRECTION('',(-0.491550153236,-0.183067712648,-0.851389839873));
#498 = ORIENTED_EDGE('',*,*,#325,.T.);
#499 = ORIENTED_EDGE('',*,*,#468,.T.);
#500 = ORIENTED_EDGE('',*,*,#501,.F.);
#501 = EDGE_CURVE('',#492,#469,#502,.T.);
#502 = LINE('',#503,#504);
#503 = CARTESIAN_POINT('',(5.665393573998,66.402796322334,
    10.812749515039));
#504 = VECTOR('',#505,1.);
#505 = DIRECTION('',(0.866025403784,-3.055111512313E-16,-0.5));
#506 = PLANE('',#507);
#507 = AXIS2_PLACEMENT_3D('',#508,#509,#510);
#508 = CARTESIAN_POINT('',(9.416987298108,67.8,17.310700454553));
#509 = DIRECTION('',(-9.153385632419E-02,0.983100306472,-0.158541289766)
  );
#510 = DIRECTION('',(-0.491550153236,-0.183067712648,-0.851389839873));
#511 = ADVANCED_FACE('',(#512),#556,.F.);
#512 = FACE_BOUND('',#513,.F.);
#513 = EDGE_LOOP('',(#514,#525,#533,#541,#547,#548,#549));
#514 = ORIENTED_EDGE('',*,*,#515,.F.);
#515 = EDGE_CURVE('',#516,#518,#520,.T.);
#516 = VERTEX_POINT('',#517);
#517 = CARTESIAN_POINT('',(1.566987298108,60.2,3.714101615138));
#518 = VERTEX_POINT('',#519);
#519 = CARTESIAN_POINT('',(4.566987298108,66.2,8.910254037844));
#520 = CIRCLE('',#521,6.);
#521 = AXIS2_PLACEMENT_3D('',#522,#523,#524);
#522 = CARTESIAN_POINT('',(4.566987298108,60.2,8.910254037844));
#523 = DIRECTION('',(0.866025403784,-3.996665248794E-16,-0.5));
#524 = DIRECTION('',(-0.5,-2.775557561563E-17,-0.866025403784));
#525 = ORIENTED_EDGE('',*,*,#526,.F.);
#526 = EDGE_CURVE('',#527,#516,#529,.T.);
#527 = VERTEX_POINT('',#528);
#528 = CARTESIAN_POINT('',(1.551300781406,60.2,3.686931771217));
#529 = LINE('',#530,#531);
#530 = CARTESIAN_POINT('',(1.316987298108,60.2,3.281088913246));
#531 = VECTOR('',#532,1.);
#532 = DIRECTION('',(0.5,8.326672684689E-17,0.866025403784));
#533 = ORIENTED_EDGE('',*,*,#534,.T.);
#534 = EDGE_CURVE('',#527,#535,#537,.T.);
#535 = VERTEX_POINT('',#536);
#536 = CARTESIAN_POINT('',(1.551300781406,69.,3.686931771217));
#537 = LINE('',#538,#539);
#538 = CARTESIAN_POINT('',(1.551300781406,69.,3.686931771217));
#539 = VECTOR('',#540,1.);
#540 = DIRECTION('',(0.,1.,-4.4E-16));
#541 = ORIENTED_EDGE('',*,*,#542,.F.);
#542 = EDGE_CURVE('',#309,#535,#543,.T.);
#543 = LINE('',#544,#545);
#544 = CARTESIAN_POINT('',(9.416987298108,69.,17.310700454553));
#545 = VECTOR('',#546,1.);
#546 = DIRECTION('',(-0.5,-8.326672684689E-17,-0.866025403784));
#547 = ORIENTED_EDGE('',*,*,#317,.F.);
#548 = ORIENTED_EDGE('',*,*,#491,.T.);
#549 = ORIENTED_EDGE('',*,*,#550,.T.);
#550 = EDGE_CURVE('',#492,#518,#551,.T.);
#551 = CIRCLE('',#552,12.);
#552 = AXIS2_PLACEMENT_3D('',#553,#554,#555);
#553 = CARTESIAN_POINT('',(4.566987298108,78.2,8.910254037844));
#554 = DIRECTION('',(0.866025403784,-3.996665248794E-16,-0.5));
#555 = DIRECTION('',(-0.5,-2.775557561563E-17,-0.866025403784));
#556 = PLANE('',#557);
#557 = AXIS2_PLACEMENT_3D('',#558,#559,#560);
#558 = CARTESIAN_POINT('',(4.461154551791,66.566906285057,8.726946344119
    ));
#559 = DIRECTION('',(0.866025403784,-3.885780586188E-16,-0.5));
#560 = DIRECTION('',(-0.5,-5.551115123126E-17,-0.866025403784));
#561 = ADVANCED_FACE('',(#562),#581,.F.);
#562 = FACE_BOUND('',#563,.F.);
#563 = EDGE_LOOP('',(#564,#565,#566,#575));
#564 = ORIENTED_EDGE('',*,*,#308,.F.);
#565 = ORIENTED_EDGE('',*,*,#542,.T.);
#566 = ORIENTED_EDGE('',*,*,#567,.T.);
#567 = EDGE_CURVE('',#535,#568,#570,.T.);
#568 = VERTEX_POINT('',#569);
#569 = CARTESIAN_POINT('',(-1.551300781406,69.,3.686931771217));
#570 = CIRCLE('',#571,4.);
#571 = AXIS2_PLACEMENT_3D('',#572,#573,#574);
#572 = CARTESIAN_POINT('',(0.,69.,1.42108547152E-14));
#573 = DIRECTION('',(0.,-1.,-2.2E-16));
#574 = DIRECTION('',(1.,0.,0.));
#575 = ORIENTED_EDGE('',*,*,#576,.F.);
#576 = EDGE_CURVE('',#301,#568,#577,.T.);
#577 = LINE('',#578,#579);
#578 = CARTESIAN_POINT('',(-9.416987298108,69.,17.310700454553));
#579 = VECTOR('',#580,1.);
#580 = DIRECTION('',(0.5,-5.551115123126E-17,-0.866025403784));
#581 = PLANE('',#582);
#582 = AXIS2_PLACEMENT_3D('',#583,#584,#585);
#583 = CARTESIAN_POINT('',(-1.04E-15,69.,1.514E-14));
#584 = DIRECTION('',(0.,1.,2.2E-16));
#585 = DIRECTION('',(0.,-2.2E-16,1.));
#586 = ADVANCED_FACE('',(#587),#631,.T.);
#587 = FACE_BOUND('',#588,.T.);
#588 = EDGE_LOOP('',(#589,#600,#608,#614,#615,#616,#624));
#589 = ORIENTED_EDGE('',*,*,#590,.F.);
#590 = EDGE_CURVE('',#591,#593,#595,.T.);
#591 = VERTEX_POINT('',#592);
#592 = CARTESIAN_POINT('',(-1.566987298108,60.2,3.714101615138));
#593 = VERTEX_POINT('',#594);
#594 = CARTESIAN_POINT('',(-4.566987298108,66.2,8.910254037844));
#595 = CIRCLE('',#596,6.);
#596 = AXIS2_PLACEMENT_3D('',#597,#598,#599);
#597 = CARTESIAN_POINT('',(-4.566987298108,60.2,8.910254037844));
#598 = DIRECTION('',(0.866025403784,-5.29811119091E-16,0.5));
#599 = DIRECTION('',(0.5,-5.551115123126E-17,-0.866025403784));
#600 = ORIENTED_EDGE('',*,*,#601,.F.);
#601 = EDGE_CURVE('',#602,#591,#604,.T.);
#602 = VERTEX_POINT('',#603);
#603 = CARTESIAN_POINT('',(-1.551300781406,60.2,3.686931771217));
#604 = LINE('',#605,#606);
#605 = CARTESIAN_POINT('',(-1.316987298108,60.2,3.281088913246));
#606 = VECTOR('',#607,1.);
#607 = DIRECTION('',(-0.5,5.551115123126E-17,0.866025403784));
#608 = ORIENTED_EDGE('',*,*,#609,.T.);
#609 = EDGE_CURVE('',#602,#568,#610,.T.);
#610 = LINE('',#611,#612);
#611 = CARTESIAN_POINT('',(-1.551300781406,69.,3.686931771217));
#612 = VECTOR('',#613,1.);
#613 = DIRECTION('',(0.,1.,-4.4E-16));
#614 = ORIENTED_EDGE('',*,*,#576,.F.);
#615 = ORIENTED_EDGE('',*,*,#300,.F.);
#616 = ORIENTED_EDGE('',*,*,#617,.T.);
#617 = EDGE_CURVE('',#292,#618,#620,.T.);
#618 = VERTEX_POINT('',#619);
#619 = CARTESIAN_POINT('',(-5.665393573998,66.402796322334,
    10.812749515039));
#620 = LINE('',#621,#622);
#621 = CARTESIAN_POINT('',(-9.416987298108,67.8,17.310700454553));
#622 = VECTOR('',#623,1.);
#623 = DIRECTION('',(0.491550153236,-0.183067712648,-0.851389839873));
#624 = ORIENTED_EDGE('',*,*,#625,.T.);
#625 = EDGE_CURVE('',#618,#593,#626,.T.);
#626 = CIRCLE('',#627,12.);
#627 = AXIS2_PLACEMENT_3D('',#628,#629,#630);
#628 = CARTESIAN_POINT('',(-4.566987298108,78.2,8.910254037844));
#629 = DIRECTION('',(0.866025403784,-5.29811119091E-16,0.5));
#630 = DIRECTION('',(0.5,-5.551115123126E-17,-0.866025403784));
#631 = PLANE('',#632);
#632 = AXIS2_PLACEMENT_3D('',#633,#634,#635);
#633 = CARTESIAN_POINT('',(-4.461154551791,66.566906285057,
    8.726946344119));
#634 = DIRECTION('',(0.866025403784,-4.996003610813E-16,0.5));
#635 = DIRECTION('',(0.5,2.775557561563E-17,-0.866025403784));
#636 = ADVANCED_FACE('',(#637),#655,.F.);
#637 = FACE_BOUND('',#638,.F.);
#638 = EDGE_LOOP('',(#639,#647,#648,#649));
#639 = ORIENTED_EDGE('',*,*,#640,.F.);
#640 = EDGE_CURVE('',#284,#641,#643,.T.);
#641 = VERTEX_POINT('',#642);
#642 = CARTESIAN_POINT('',(-6.531418977783,66.402796322334,
    10.312749515039));
#643 = LINE('',#644,#645);
#644 = CARTESIAN_POINT('',(-10.28301270189,67.8,16.810700454553));
#645 = VECTOR('',#646,1.);
#646 = DIRECTION('',(0.491550153236,-0.183067712648,-0.851389839873));
#647 = ORIENTED_EDGE('',*,*,#291,.T.);
#648 = ORIENTED_EDGE('',*,*,#617,.T.);
#649 = ORIENTED_EDGE('',*,*,#650,.F.);
#650 = EDGE_CURVE('',#641,#618,#651,.T.);
#651 = LINE('',#652,#653);
#652 = CARTESIAN_POINT('',(-6.531418977783,66.402796322334,
    10.312749515039));
#653 = VECTOR('',#654,1.);
#654 = DIRECTION('',(0.866025403784,-4.996003610813E-16,0.5));
#655 = PLANE('',#656);
#656 = AXIS2_PLACEMENT_3D('',#657,#658,#659);
#657 = CARTESIAN_POINT('',(-10.28301270189,67.8,16.810700454553));
#658 = DIRECTION('',(9.15338563242E-02,0.983100306472,-0.158541289766));
#659 = DIRECTION('',(0.491550153236,-0.183067712648,-0.851389839873));
#660 = ADVANCED_FACE('',(#661),#705,.F.);
#661 = FACE_BOUND('',#662,.F.);
#662 = EDGE_LOOP('',(#663,#674,#682,#690,#696,#697,#698));
#663 = ORIENTED_EDGE('',*,*,#664,.F.);
#664 = EDGE_CURVE('',#665,#667,#669,.T.);
#665 = VERTEX_POINT('',#666);
#666 = CARTESIAN_POINT('',(-2.433012701892,60.2,3.214101615138));
#667 = VERTEX_POINT('',#668);
#668 = CARTESIAN_POINT('',(-5.433012701892,66.2,8.410254037844));
#669 = CIRCLE('',#670,6.);
#670 = AXIS2_PLACEMENT_3D('',#671,#672,#673);
#671 = CARTESIAN_POINT('',(-5.433012701892,60.2,8.410254037844));
#672 = DIRECTION('',(0.866025403784,-5.29811119091E-16,0.5));
#673 = DIRECTION('',(0.5,-5.551115123126E-17,-0.866025403784));
#674 = ORIENTED_EDGE('',*,*,#675,.F.);
#675 = EDGE_CURVE('',#676,#665,#678,.T.);
#676 = VERTEX_POINT('',#677);
#677 = CARTESIAN_POINT('',(-2.417326185191,60.2,3.186931771217));
#678 = LINE('',#679,#680);
#679 = CARTESIAN_POINT('',(-2.183012701892,60.2,2.781088913246));
#680 = VECTOR('',#681,1.);
#681 = DIRECTION('',(-0.5,5.551115123126E-17,0.866025403784));
#682 = ORIENTED_EDGE('',*,*,#683,.T.);
#683 = EDGE_CURVE('',#676,#684,#686,.T.);
#684 = VERTEX_POINT('',#685);
#685 = CARTESIAN_POINT('',(-2.417326185191,69.,3.186931771217));
#686 = LINE('',#687,#688);
#687 = CARTESIAN_POINT('',(-2.417326185191,69.,3.186931771217));
#688 = VECTOR('',#689,1.);
#689 = DIRECTION('',(0.,1.,-4.4E-16));
#690 = ORIENTED_EDGE('',*,*,#691,.F.);
#691 = EDGE_CURVE('',#275,#684,#692,.T.);
#692 = LINE('',#693,#694);
#693 = CARTESIAN_POINT('',(-10.28301270189,69.,16.810700454553));
#694 = VECTOR('',#695,1.);
#695 = DIRECTION('',(0.5,-5.551115123126E-17,-0.866025403784));
#696 = ORIENTED_EDGE('',*,*,#283,.F.);
#697 = ORIENTED_EDGE('',*,*,#640,.T.);
#698 = ORIENTED_EDGE('',*,*,#699,.T.);
#699 = EDGE_CURVE('',#641,#667,#700,.T.);
#700 = CIRCLE('',#701,12.);
#701 = AXIS2_PLACEMENT_3D('',#702,#703,#704);
#702 = CARTESIAN_POINT('',(-5.433012701892,78.2,8.410254037844));
#703 = DIRECTION('',(0.866025403784,-5.29811119091E-16,0.5));
#704 = DIRECTION('',(0.5,-5.551115123126E-17,-0.866025403784));
#705 = PLANE('',#706);
#706 = AXIS2_PLACEMENT_3D('',#707,#708,#709);
#707 = CARTESIAN_POINT('',(-5.327179955575,66.566906285057,
    8.226946344119));
#708 = DIRECTION('',(0.866025403784,-4.996003610813E-16,0.5));
#709 = DIRECTION('',(0.5,2.775557561563E-17,-0.866025403784));
#710 = ADVANCED_FACE('',(#711),#730,.F.);
#711 = FACE_BOUND('',#712,.F.);
#712 = EDGE_LOOP('',(#713,#714,#715,#724));
#713 = ORIENTED_EDGE('',*,*,#274,.F.);
#714 = ORIENTED_EDGE('',*,*,#691,.T.);
#715 = ORIENTED_EDGE('',*,*,#716,.T.);
#716 = EDGE_CURVE('',#684,#717,#719,.T.);
#717 = VERTEX_POINT('',#718);
#718 = CARTESIAN_POINT('',(-3.968626966597,69.,0.5));
#719 = CIRCLE('',#720,4.);
#720 = AXIS2_PLACEMENT_3D('',#721,#722,#723);
#721 = CARTESIAN_POINT('',(0.,69.,1.42108547152E-14));
#722 = DIRECTION('',(0.,-1.,-2.2E-16));
#723 = DIRECTION('',(1.,0.,0.));
#724 = ORIENTED_EDGE('',*,*,#725,.F.);
#725 = EDGE_CURVE('',#267,#717,#726,.T.);
#726 = LINE('',#727,#728);
#727 = CARTESIAN_POINT('',(-19.7,69.,0.5));
#728 = VECTOR('',#729,1.);
#729 = DIRECTION('',(1.,0.,0.));
#730 = PLANE('',#731);
#731 = AXIS2_PLACEMENT_3D('',#732,#733,#734);
#732 = CARTESIAN_POINT('',(-1.04E-15,69.,1.514E-14));
#733 = DIRECTION('',(0.,1.,2.2E-16));
#734 = DIRECTION('',(0.,-2.2E-16,1.));
#735 = ADVANCED_FACE('',(#736),#780,.T.);
#736 = FACE_BOUND('',#737,.T.);
#737 = EDGE_LOOP('',(#738,#749,#757,#763,#764,#765,#773));
#738 = ORIENTED_EDGE('',*,*,#739,.F.);
#739 = EDGE_CURVE('',#740,#742,#744,.T.);
#740 = VERTEX_POINT('',#741);
#741 = CARTESIAN_POINT('',(-4.,60.2,0.5));
#742 = VERTEX_POINT('',#743);
#743 = CARTESIAN_POINT('',(-10.,66.2,0.5));
#744 = CIRCLE('',#745,6.);
#745 = AXIS2_PLACEMENT_3D('',#746,#747,#748);
#746 = CARTESIAN_POINT('',(-10.,60.2,0.5));
#747 = DIRECTION('',(0.,-2.2E-16,1.));
#748 = DIRECTION('',(1.,0.,0.));
#749 = ORIENTED_EDGE('',*,*,#750,.F.);
#750 = EDGE_CURVE('',#751,#740,#753,.T.);
#751 = VERTEX_POINT('',#752);
#752 = CARTESIAN_POINT('',(-3.968626966597,60.2,0.5));
#753 = LINE('',#754,#755);
#754 = CARTESIAN_POINT('',(-3.5,60.2,0.5));
#755 = VECTOR('',#756,1.);
#756 = DIRECTION('',(-1.,0.,0.));
#757 = ORIENTED_EDGE('',*,*,#758,.T.);
#758 = EDGE_CURVE('',#751,#717,#759,.T.);
#759 = LINE('',#760,#761);
#760 = CARTESIAN_POINT('',(-3.968626966597,69.,0.5));
#761 = VECTOR('',#762,1.);
#762 = DIRECTION('',(0.,1.,-4.4E-16));
#763 = ORIENTED_EDGE('',*,*,#725,.F.);
#764 = ORIENTED_EDGE('',*,*,#266,.F.);
#765 = ORIENTED_EDGE('',*,*,#766,.T.);
#766 = EDGE_CURVE('',#258,#767,#769,.T.);
#767 = VERTEX_POINT('',#768);
#768 = CARTESIAN_POINT('',(-12.19681255178,66.402796322334,0.5));
#769 = LINE('',#770,#771);
#770 = CARTESIAN_POINT('',(-19.7,67.8,0.5));
#771 = VECTOR('',#772,1.);
#772 = DIRECTION('',(0.983100306472,-0.183067712648,-4.E-17));
#773 = ORIENTED_EDGE('',*,*,#774,.T.);
#774 = EDGE_CURVE('',#767,#742,#775,.T.);
#775 = CIRCLE('',#776,12.);
#776 = AXIS2_PLACEMENT_3D('',#777,#778,#779);
#777 = CARTESIAN_POINT('',(-10.,78.2,0.5));
#778 = DIRECTION('',(0.,-2.2E-16,1.));
#779 = DIRECTION('',(1.,0.,0.));
#780 = PLANE('',#781);
#781 = AXIS2_PLACEMENT_3D('',#782,#783,#784);
#782 = CARTESIAN_POINT('',(-9.788334507366,66.566906285057,0.5));
#783 = DIRECTION('',(0.,-2.2E-16,1.));
#784 = DIRECTION('',(1.,0.,0.));
#785 = ADVANCED_FACE('',(#786),#804,.F.);
#786 = FACE_BOUND('',#787,.F.);
#787 = EDGE_LOOP('',(#788,#796,#797,#798));
#788 = ORIENTED_EDGE('',*,*,#789,.F.);
#789 = EDGE_CURVE('',#250,#790,#792,.T.);
#790 = VERTEX_POINT('',#791);
#791 = CARTESIAN_POINT('',(-12.19681255178,66.402796322334,-0.5));
#792 = LINE('',#793,#794);
#793 = CARTESIAN_POINT('',(-19.7,67.8,-0.5));
#794 = VECTOR('',#795,1.);
#795 = DIRECTION('',(0.983100306472,-0.183067712648,-4.E-17));
#796 = ORIENTED_EDGE('',*,*,#257,.T.);
#797 = ORIENTED_EDGE('',*,*,#766,.T.);
#798 = ORIENTED_EDGE('',*,*,#799,.F.);
#799 = EDGE_CURVE('',#790,#767,#800,.T.);
#800 = LINE('',#801,#802);
#801 = CARTESIAN_POINT('',(-12.19681255178,66.402796322334,-0.5));
#802 = VECTOR('',#803,1.);
#803 = DIRECTION('',(0.,0.,1.));
#804 = PLANE('',#805);
#805 = AXIS2_PLACEMENT_3D('',#806,#807,#808);
#806 = CARTESIAN_POINT('',(-19.7,67.8,-0.5));
#807 = DIRECTION('',(0.183067712648,0.983100306472,0.));
#808 = DIRECTION('',(0.983100306472,-0.183067712648,0.));
#809 = ADVANCED_FACE('',(#810),#854,.F.);
#810 = FACE_BOUND('',#811,.F.);
#811 = EDGE_LOOP('',(#812,#823,#831,#839,#845,#846,#847));
#812 = ORIENTED_EDGE('',*,*,#813,.F.);
#813 = EDGE_CURVE('',#814,#816,#818,.T.);
#814 = VERTEX_POINT('',#815);
#815 = CARTESIAN_POINT('',(-4.,60.2,-0.5));
#816 = VERTEX_POINT('',#817);
#817 = CARTESIAN_POINT('',(-10.,66.2,-0.5));
#818 = CIRCLE('',#819,6.);
#819 = AXIS2_PLACEMENT_3D('',#820,#821,#822);
#820 = CARTESIAN_POINT('',(-10.,60.2,-0.5));
#821 = DIRECTION('',(0.,-2.2E-16,1.));
#822 = DIRECTION('',(1.,0.,0.));
#823 = ORIENTED_EDGE('',*,*,#824,.F.);
#824 = EDGE_CURVE('',#825,#814,#827,.T.);
#825 = VERTEX_POINT('',#826);
#826 = CARTESIAN_POINT('',(-3.968626966597,60.2,-0.5));
#827 = LINE('',#828,#829);
#828 = CARTESIAN_POINT('',(-3.5,60.2,-0.5));
#829 = VECTOR('',#830,1.);
#830 = DIRECTION('',(-1.,0.,0.));
#831 = ORIENTED_EDGE('',*,*,#832,.T.);
#832 = EDGE_CURVE('',#825,#833,#835,.T.);
#833 = VERTEX_POINT('',#834);
#834 = CARTESIAN_POINT('',(-3.968626966597,69.,-0.5));
#835 = LINE('',#836,#837);
#836 = CARTESIAN_POINT('',(-3.968626966597,69.,-0.5));
#837 = VECTOR('',#838,1.);
#838 = DIRECTION('',(0.,1.,-4.4E-16));
#839 = ORIENTED_EDGE('',*,*,#840,.F.);
#840 = EDGE_CURVE('',#241,#833,#841,.T.);
#841 = LINE('',#842,#843);
#842 = CARTESIAN_POINT('',(-19.7,69.,-0.5));
#843 = VECTOR('',#844,1.);
#844 = DIRECTION('',(1.,0.,0.));
#845 = ORIENTED_EDGE('',*,*,#249,.F.);
#846 = ORIENTED_EDGE('',*,*,#789,.T.);
#847 = ORIENTED_EDGE('',*,*,#848,.T.);
#848 = EDGE_CURVE('',#790,#816,#849,.T.);
#849 = CIRCLE('',#850,12.);
#850 = AXIS2_PLACEMENT_3D('',#851,#852,#853);
#851 = CARTESIAN_POINT('',(-10.,78.2,-0.5));
#852 = DIRECTION('',(0.,-2.2E-16,1.));
#853 = DIRECTION('',(1.,0.,0.));
#854 = PLANE('',#855);
#855 = AXIS2_PLACEMENT_3D('',#856,#857,#858);
#856 = CARTESIAN_POINT('',(-9.788334507366,66.566906285057,-0.5));
#857 = DIRECTION('',(0.,-2.2E-16,1.));
#858 = DIRECTION('',(1.,0.,0.));
#859 = ADVANCED_FACE('',(#860),#879,.F.);
#860 = FACE_BOUND('',#861,.F.);
#861 = EDGE_LOOP('',(#862,#870,#871,#872));
#862 = ORIENTED_EDGE('',*,*,#863,.F.);
#863 = EDGE_CURVE('',#233,#864,#866,.T.);
#864 = VERTEX_POINT('',#865);
#865 = CARTESIAN_POINT('',(-2.417326185191,69.,-3.186931771217));
#866 = LINE('',#867,#868);
#867 = CARTESIAN_POINT('',(-10.28301270189,69.,-16.81070045455));
#868 = VECTOR('',#869,1.);
#869 = DIRECTION('',(0.5,-2.775557561563E-17,0.866025403784));
#870 = ORIENTED_EDGE('',*,*,#240,.F.);
#871 = ORIENTED_EDGE('',*,*,#840,.T.);
#872 = ORIENTED_EDGE('',*,*,#873,.T.);
#873 = EDGE_CURVE('',#833,#864,#874,.T.);
#874 = CIRCLE('',#875,4.);
#875 = AXIS2_PLACEMENT_3D('',#876,#877,#878);
#876 = CARTESIAN_POINT('',(0.,69.,1.42108547152E-14));
#877 = DIRECTION('',(0.,-1.,-2.2E-16));
#878 = DIRECTION('',(1.,0.,0.));
#879 = PLANE('',#880);
#880 = AXIS2_PLACEMENT_3D('',#881,#882,#883);
#881 = CARTESIAN_POINT('',(-1.04E-15,69.,1.514E-14));
#882 = DIRECTION('',(0.,1.,2.2E-16));
#883 = DIRECTION('',(0.,-2.2E-16,1.));
#884 = ADVANCED_FACE('',(#885),#929,.T.);
#885 = FACE_BOUND('',#886,.T.);
#886 = EDGE_LOOP('',(#887,#898,#906,#912,#913,#914,#922));
#887 = ORIENTED_EDGE('',*,*,#888,.F.);
#888 = EDGE_CURVE('',#889,#891,#893,.T.);
#889 = VERTEX_POINT('',#890);
#890 = CARTESIAN_POINT('',(-2.433012701892,60.2,-3.214101615138));
#891 = VERTEX_POINT('',#892);
#892 = CARTESIAN_POINT('',(-5.433012701892,66.2,-8.410254037844));
#893 = CIRCLE('',#894,6.);
#894 = AXIS2_PLACEMENT_3D('',#895,#896,#897);
#895 = CARTESIAN_POINT('',(-5.433012701892,60.2,-8.410254037844));
#896 = DIRECTION('',(-0.866025403784,-4.752963481953E-16,0.5));
#897 = DIRECTION('',(0.5,-8.326672684689E-17,0.866025403784));
#898 = ORIENTED_EDGE('',*,*,#899,.F.);
#899 = EDGE_CURVE('',#900,#889,#902,.T.);
#900 = VERTEX_POINT('',#901);
#901 = CARTESIAN_POINT('',(-2.417326185191,60.2,-3.186931771217));
#902 = LINE('',#903,#904);
#903 = CARTESIAN_POINT('',(-2.183012701892,60.2,-2.781088913246));
#904 = VECTOR('',#905,1.);
#905 = DIRECTION('',(-0.5,2.775557561563E-17,-0.866025403784));
#906 = ORIENTED_EDGE('',*,*,#907,.T.);
#907 = EDGE_CURVE('',#900,#864,#908,.T.);
#908 = LINE('',#909,#910);
#909 = CARTESIAN_POINT('',(-2.417326185191,69.,-3.186931771217));
#910 = VECTOR('',#911,1.);
#911 = DIRECTION('',(0.,1.,-4.4E-16));
#912 = ORIENTED_EDGE('',*,*,#863,.F.);
#913 = ORIENTED_EDGE('',*,*,#232,.F.);
#914 = ORIENTED_EDGE('',*,*,#915,.T.);
#915 = EDGE_CURVE('',#224,#916,#918,.T.);
#916 = VERTEX_POINT('',#917);
#917 = CARTESIAN_POINT('',(-6.531418977783,66.402796322334,
    -10.31274951503));
#918 = LINE('',#919,#920);
#919 = CARTESIAN_POINT('',(-10.28301270189,67.8,-16.81070045455));
#920 = VECTOR('',#921,1.);
#921 = DIRECTION('',(0.491550153236,-0.183067712648,0.851389839873));
#922 = ORIENTED_EDGE('',*,*,#923,.T.);
#923 = EDGE_CURVE('',#916,#891,#924,.T.);
#924 = CIRCLE('',#925,12.);
#925 = AXIS2_PLACEMENT_3D('',#926,#927,#928);
#926 = CARTESIAN_POINT('',(-5.433012701892,78.2,-8.410254037844));
#927 = DIRECTION('',(-0.866025403784,-4.752963481953E-16,0.5));
#928 = DIRECTION('',(0.5,-8.326672684689E-17,0.866025403784));
#929 = PLANE('',#930);
#930 = AXIS2_PLACEMENT_3D('',#931,#932,#933);
#931 = CARTESIAN_POINT('',(-5.327179955575,66.566906285057,
    -8.226946344119));
#932 = DIRECTION('',(-0.866025403784,-4.440892098501E-16,0.5));
#933 = DIRECTION('',(0.5,-1.110223024625E-16,0.866025403784));
#934 = ADVANCED_FACE('',(#935),#953,.F.);
#935 = FACE_BOUND('',#936,.F.);
#936 = EDGE_LOOP('',(#937,#945,#946,#947));
#937 = ORIENTED_EDGE('',*,*,#938,.F.);
#938 = EDGE_CURVE('',#216,#939,#941,.T.);
#939 = VERTEX_POINT('',#940);
#940 = CARTESIAN_POINT('',(-5.665393573998,66.402796322334,
    -10.81274951503));
#941 = LINE('',#942,#943);
#942 = CARTESIAN_POINT('',(-9.416987298108,67.8,-17.31070045455));
#943 = VECTOR('',#944,1.);
#944 = DIRECTION('',(0.491550153236,-0.183067712648,0.851389839873));
#945 = ORIENTED_EDGE('',*,*,#223,.T.);
#946 = ORIENTED_EDGE('',*,*,#915,.T.);
#947 = ORIENTED_EDGE('',*,*,#948,.F.);
#948 = EDGE_CURVE('',#939,#916,#949,.T.);
#949 = LINE('',#950,#951);
#950 = CARTESIAN_POINT('',(-5.665393573998,66.402796322334,
    -10.81274951503));
#951 = VECTOR('',#952,1.);
#952 = DIRECTION('',(-0.866025403784,-4.440892098501E-16,0.5));
#953 = PLANE('',#954);
#954 = AXIS2_PLACEMENT_3D('',#955,#956,#957);
#955 = CARTESIAN_POINT('',(-9.416987298108,67.8,-17.31070045455));
#956 = DIRECTION('',(9.153385632419E-02,0.983100306472,0.158541289766));
#957 = DIRECTION('',(0.491550153236,-0.183067712648,0.851389839873));
#958 = ADVANCED_FACE('',(#959),#1003,.F.);
#959 = FACE_BOUND('',#960,.F.);
#960 = EDGE_LOOP('',(#961,#972,#980,#988,#994,#995,#996));
#961 = ORIENTED_EDGE('',*,*,#962,.F.);
#962 = EDGE_CURVE('',#963,#965,#967,.T.);
#963 = VERTEX_POINT('',#964);
#964 = CARTESIAN_POINT('',(-1.566987298108,60.2,-3.714101615138));
#965 = VERTEX_POINT('',#966);
#966 = CARTESIAN_POINT('',(-4.566987298108,66.2,-8.910254037844));
#967 = CIRCLE('',#968,6.);
#968 = AXIS2_PLACEMENT_3D('',#969,#970,#971);
#969 = CARTESIAN_POINT('',(-4.566987298108,60.2,-8.910254037844));
#970 = DIRECTION('',(-0.866025403784,-4.752963481953E-16,0.5));
#971 = DIRECTION('',(0.5,-8.326672684689E-17,0.866025403784));
#972 = ORIENTED_EDGE('',*,*,#973,.F.);
#973 = EDGE_CURVE('',#974,#963,#976,.T.);
#974 = VERTEX_POINT('',#975);
#975 = CARTESIAN_POINT('',(-1.551300781406,60.2,-3.686931771217));
#976 = LINE('',#977,#978);
#977 = CARTESIAN_POINT('',(-1.316987298108,60.2,-3.281088913246));
#978 = VECTOR('',#979,1.);
#979 = DIRECTION('',(-0.5,2.775557561563E-17,-0.866025403784));
#980 = ORIENTED_EDGE('',*,*,#981,.T.);
#981 = EDGE_CURVE('',#974,#982,#984,.T.);
#982 = VERTEX_POINT('',#983);
#983 = CARTESIAN_POINT('',(-1.551300781406,69.,-3.686931771217));
#984 = LINE('',#985,#986);
#985 = CARTESIAN_POINT('',(-1.551300781406,69.,-3.686931771217));
#986 = VECTOR('',#987,1.);
#987 = DIRECTION('',(0.,1.,-4.4E-16));
#988 = ORIENTED_EDGE('',*,*,#989,.F.);
#989 = EDGE_CURVE('',#207,#982,#990,.T.);
#990 = LINE('',#991,#992);
#991 = CARTESIAN_POINT('',(-9.416987298108,69.,-17.31070045455));
#992 = VECTOR('',#993,1.);
#993 = DIRECTION('',(0.5,-2.775557561563E-17,0.866025403784));
#994 = ORIENTED_EDGE('',*,*,#215,.F.);
#995 = ORIENTED_EDGE('',*,*,#938,.T.);
#996 = ORIENTED_EDGE('',*,*,#997,.T.);
#997 = EDGE_CURVE('',#939,#965,#998,.T.);
#998 = CIRCLE('',#999,12.);
#999 = AXIS2_PLACEMENT_3D('',#1000,#1001,#1002);
#1000 = CARTESIAN_POINT('',(-4.566987298108,78.2,-8.910254037844));
#1001 = DIRECTION('',(-0.866025403784,-4.752963481953E-16,0.5));
#1002 = DIRECTION('',(0.5,-8.326672684689E-17,0.866025403784));
#1003 = PLANE('',#1004);
#1004 = AXIS2_PLACEMENT_3D('',#1005,#1006,#1007);
#1005 = CARTESIAN_POINT('',(-4.461154551791,66.566906285057,
    -8.726946344119));
#1006 = DIRECTION('',(-0.866025403784,-4.440892098501E-16,0.5));
#1007 = DIRECTION('',(0.5,-1.110223024625E-16,0.866025403784));
#1008 = ADVANCED_FACE('',(#1009),#1061,.F.);
#1009 = FACE_BOUND('',#1010,.F.);
#1010 = EDGE_LOOP('',(#1011,#1019,#1020,#1021,#1030,#1038,#1046,#1054));
#1011 = ORIENTED_EDGE('',*,*,#1012,.F.);
#1012 = EDGE_CURVE('',#199,#1013,#1015,.T.);
#1013 = VERTEX_POINT('',#1014);
#1014 = CARTESIAN_POINT('',(1.551300781406,69.,-3.686931771217));
#1015 = LINE('',#1016,#1017);
#1016 = CARTESIAN_POINT('',(9.416987298108,69.,-17.31070045455));
#1017 = VECTOR('',#1018,1.);
#1018 = DIRECTION('',(-0.5,-8.326672684689E-17,0.866025403784));
#1019 = ORIENTED_EDGE('',*,*,#206,.F.);
#1020 = ORIENTED_EDGE('',*,*,#989,.T.);
#1021 = ORIENTED_EDGE('',*,*,#1022,.T.);
#1022 = EDGE_CURVE('',#982,#1023,#1025,.T.);
#1023 = VERTEX_POINT('',#1024);
#1024 = CARTESIAN_POINT('',(-0.6,69.,-3.954743986657));
#1025 = CIRCLE('',#1026,4.);
#1026 = AXIS2_PLACEMENT_3D('',#1027,#1028,#1029);
#1027 = CARTESIAN_POINT('',(0.,69.,1.42108547152E-14));
#1028 = DIRECTION('',(0.,-1.,-2.2E-16));
#1029 = DIRECTION('',(1.,0.,0.));
#1030 = ORIENTED_EDGE('',*,*,#1031,.F.);
#1031 = EDGE_CURVE('',#1032,#1023,#1034,.T.);
#1032 = VERTEX_POINT('',#1033);
#1033 = CARTESIAN_POINT('',(-0.6,69.,-13.48323969741));
#1034 = LINE('',#1035,#1036);
#1035 = CARTESIAN_POINT('',(-0.6,69.,-0.74161984871));
#1036 = VECTOR('',#1037,1.);
#1037 = DIRECTION('',(0.,0.,1.));
#1038 = ORIENTED_EDGE('',*,*,#1039,.F.);
#1039 = EDGE_CURVE('',#1040,#1032,#1042,.T.);
#1040 = VERTEX_POINT('',#1041);
#1041 = CARTESIAN_POINT('',(0.6,69.,-13.48323969741));
#1042 = LINE('',#1043,#1044);
#1043 = CARTESIAN_POINT('',(-0.3,69.,-13.48323969741));
#1044 = VECTOR('',#1045,1.);
#1045 = DIRECTION('',(-1.,0.,0.));
#1046 = ORIENTED_EDGE('',*,*,#1047,.F.);
#1047 = EDGE_CURVE('',#1048,#1040,#1050,.T.);
#1048 = VERTEX_POINT('',#1049);
#1049 = CARTESIAN_POINT('',(0.6,69.,-3.954743986657));
#1050 = LINE('',#1051,#1052);
#1051 = CARTESIAN_POINT('',(0.6,69.,-6.74161984871));
#1052 = VECTOR('',#1053,1.);
#1053 = DIRECTION('',(0.,0.,-1.));
#1054 = ORIENTED_EDGE('',*,*,#1055,.T.);
#1055 = EDGE_CURVE('',#1048,#1013,#1056,.T.);
#1056 = CIRCLE('',#1057,4.);
#1057 = AXIS2_PLACEMENT_3D('',#1058,#1059,#1060);
#1058 = CARTESIAN_POINT('',(0.,69.,1.42108547152E-14));
#1059 = DIRECTION('',(0.,-1.,-2.2E-16));
#1060 = DIRECTION('',(1.,0.,0.));
#1061 = PLANE('',#1062);
#1062 = AXIS2_PLACEMENT_3D('',#1063,#1064,#1065);
#1063 = CARTESIAN_POINT('',(-1.04E-15,69.,1.514E-14));
#1064 = DIRECTION('',(0.,1.,2.2E-16));
#1065 = DIRECTION('',(0.,-2.2E-16,1.));
#1066 = ADVANCED_FACE('',(#1067),#1111,.T.);
#1067 = FACE_BOUND('',#1068,.T.);
#1068 = EDGE_LOOP('',(#1069,#1080,#1088,#1094,#1095,#1096,#1104));
#1069 = ORIENTED_EDGE('',*,*,#1070,.F.);
#1070 = EDGE_CURVE('',#1071,#1073,#1075,.T.);
#1071 = VERTEX_POINT('',#1072);
#1072 = CARTESIAN_POINT('',(1.566987298108,60.2,-3.714101615138));
#1073 = VERTEX_POINT('',#1074);
#1074 = CARTESIAN_POINT('',(4.566987298108,66.2,-8.910254037844));
#1075 = CIRCLE('',#1076,6.);
#1076 = AXIS2_PLACEMENT_3D('',#1077,#1078,#1079);
#1077 = CARTESIAN_POINT('',(4.566987298108,60.2,-8.910254037844));
#1078 = DIRECTION('',(-0.866025403784,3.930260016839E-16,-0.5));
#1079 = DIRECTION('',(-0.5,-1.110223024625E-16,0.866025403784));
#1080 = ORIENTED_EDGE('',*,*,#1081,.F.);
#1081 = EDGE_CURVE('',#1082,#1071,#1084,.T.);
#1082 = VERTEX_POINT('',#1083);
#1083 = CARTESIAN_POINT('',(1.551300781406,60.2,-3.686931771217));
#1084 = LINE('',#1085,#1086);
#1085 = CARTESIAN_POINT('',(1.316987298108,60.2,-3.281088913246));
#1086 = VECTOR('',#1087,1.);
#1087 = DIRECTION('',(0.5,8.326672684689E-17,-0.866025403784));
#1088 = ORIENTED_EDGE('',*,*,#1089,.T.);
#1089 = EDGE_CURVE('',#1082,#1013,#1090,.T.);
#1090 = LINE('',#1091,#1092);
#1091 = CARTESIAN_POINT('',(1.551300781406,69.,-3.686931771217));
#1092 = VECTOR('',#1093,1.);
#1093 = DIRECTION('',(0.,1.,-4.4E-16));
#1094 = ORIENTED_EDGE('',*,*,#1012,.F.);
#1095 = ORIENTED_EDGE('',*,*,#198,.F.);
#1096 = ORIENTED_EDGE('',*,*,#1097,.T.);
#1097 = EDGE_CURVE('',#190,#1098,#1100,.T.);
#1098 = VERTEX_POINT('',#1099);
#1099 = CARTESIAN_POINT('',(5.665393573998,66.402796322334,
    -10.81274951503));
#1100 = LINE('',#1101,#1102);
#1101 = CARTESIAN_POINT('',(9.416987298108,67.8,-17.31070045455));
#1102 = VECTOR('',#1103,1.);
#1103 = DIRECTION('',(-0.491550153236,-0.183067712648,0.851389839873));
#1104 = ORIENTED_EDGE('',*,*,#1105,.T.);
#1105 = EDGE_CURVE('',#1098,#1073,#1106,.T.);
#1106 = CIRCLE('',#1107,12.);
#1107 = AXIS2_PLACEMENT_3D('',#1108,#1109,#1110);
#1108 = CARTESIAN_POINT('',(4.566987298108,78.2,-8.910254037844));
#1109 = DIRECTION('',(-0.866025403784,3.930260016839E-16,-0.5));
#1110 = DIRECTION('',(-0.5,-1.110223024625E-16,0.866025403784));
#1111 = PLANE('',#1112);
#1112 = AXIS2_PLACEMENT_3D('',#1113,#1114,#1115);
#1113 = CARTESIAN_POINT('',(4.461154551791,66.566906285057,
    -8.726946344119));
#1114 = DIRECTION('',(-0.866025403784,3.330669073875E-16,-0.5));
#1115 = DIRECTION('',(-0.5,-8.326672684689E-17,0.866025403784));
#1116 = ADVANCED_FACE('',(#1117),#1135,.F.);
#1117 = FACE_BOUND('',#1118,.F.);
#1118 = EDGE_LOOP('',(#1119,#1127,#1128,#1129));
#1119 = ORIENTED_EDGE('',*,*,#1120,.F.);
#1120 = EDGE_CURVE('',#182,#1121,#1123,.T.);
#1121 = VERTEX_POINT('',#1122);
#1122 = CARTESIAN_POINT('',(6.531418977783,66.402796322334,
    -10.31274951503));
#1123 = LINE('',#1124,#1125);
#1124 = CARTESIAN_POINT('',(10.283012701892,67.8,-16.81070045455));
#1125 = VECTOR('',#1126,1.);
#1126 = DIRECTION('',(-0.491550153236,-0.183067712648,0.851389839873));
#1127 = ORIENTED_EDGE('',*,*,#189,.T.);
#1128 = ORIENTED_EDGE('',*,*,#1097,.T.);
#1129 = ORIENTED_EDGE('',*,*,#1130,.F.);
#1130 = EDGE_CURVE('',#1121,#1098,#1131,.T.);
#1131 = LINE('',#1132,#1133);
#1132 = CARTESIAN_POINT('',(6.531418977783,66.402796322334,
    -10.31274951503));
#1133 = VECTOR('',#1134,1.);
#1134 = DIRECTION('',(-0.866025403784,3.330669073875E-16,-0.5));
#1135 = PLANE('',#1136);
#1136 = AXIS2_PLACEMENT_3D('',#1137,#1138,#1139);
#1137 = CARTESIAN_POINT('',(10.283012701892,67.8,-16.81070045455));
#1138 = DIRECTION('',(-9.153385632419E-02,0.983100306472,0.158541289766)
  );
#1139 = DIRECTION('',(-0.491550153236,-0.183067712648,0.851389839873));
#1140 = ADVANCED_FACE('',(#1141),#1185,.F.);
#1141 = FACE_BOUND('',#1142,.F.);
#1142 = EDGE_LOOP('',(#1143,#1154,#1162,#1170,#1176,#1177,#1178));
#1143 = ORIENTED_EDGE('',*,*,#1144,.F.);
#1144 = EDGE_CURVE('',#1145,#1147,#1149,.T.);
#1145 = VERTEX_POINT('',#1146);
#1146 = CARTESIAN_POINT('',(2.433012701892,60.2,-3.214101615138));
#1147 = VERTEX_POINT('',#1148);
#1148 = CARTESIAN_POINT('',(5.433012701892,66.2,-8.410254037844));
#1149 = CIRCLE('',#1150,6.);
#1150 = AXIS2_PLACEMENT_3D('',#1151,#1152,#1153);
#1151 = CARTESIAN_POINT('',(5.433012701892,60.2,-8.410254037844));
#1152 = DIRECTION('',(-0.866025403784,3.930260016839E-16,-0.5));
#1153 = DIRECTION('',(-0.5,-1.110223024625E-16,0.866025403784));
#1154 = ORIENTED_EDGE('',*,*,#1155,.F.);
#1155 = EDGE_CURVE('',#1156,#1145,#1158,.T.);
#1156 = VERTEX_POINT('',#1157);
#1157 = CARTESIAN_POINT('',(2.417326185191,60.2,-3.186931771217));
#1158 = LINE('',#1159,#1160);
#1159 = CARTESIAN_POINT('',(2.183012701892,60.2,-2.781088913246));
#1160 = VECTOR('',#1161,1.);
#1161 = DIRECTION('',(0.5,8.326672684689E-17,-0.866025403784));
#1162 = ORIENTED_EDGE('',*,*,#1163,.T.);
#1163 = EDGE_CURVE('',#1156,#1164,#1166,.T.);
#1164 = VERTEX_POINT('',#1165);
#1165 = CARTESIAN_POINT('',(2.417326185191,69.,-3.186931771217));
#1166 = LINE('',#1167,#1168);
#1167 = CARTESIAN_POINT('',(2.417326185191,69.,-3.186931771217));
#1168 = VECTOR('',#1169,1.);
#1169 = DIRECTION('',(0.,1.,-4.4E-16));
#1170 = ORIENTED_EDGE('',*,*,#1171,.F.);
#1171 = EDGE_CURVE('',#173,#1164,#1172,.T.);
#1172 = LINE('',#1173,#1174);
#1173 = CARTESIAN_POINT('',(10.283012701892,69.,-16.81070045455));
#1174 = VECTOR('',#1175,1.);
#1175 = DIRECTION('',(-0.5,-8.326672684689E-17,0.866025403784));
#1176 = ORIENTED_EDGE('',*,*,#181,.F.);
#1177 = ORIENTED_EDGE('',*,*,#1120,.T.);
#1178 = ORIENTED_EDGE('',*,*,#1179,.T.);
#1179 = EDGE_CURVE('',#1121,#1147,#1180,.T.);
#1180 = CIRCLE('',#1181,12.);
#1181 = AXIS2_PLACEMENT_3D('',#1182,#1183,#1184);
#1182 = CARTESIAN_POINT('',(5.433012701892,78.2,-8.410254037844));
#1183 = DIRECTION('',(-0.866025403784,3.930260016839E-16,-0.5));
#1184 = DIRECTION('',(-0.5,-1.110223024625E-16,0.866025403784));
#1185 = PLANE('',#1186);
#1186 = AXIS2_PLACEMENT_3D('',#1187,#1188,#1189);
#1187 = CARTESIAN_POINT('',(5.327179955575,66.566906285057,
    -8.226946344119));
#1188 = DIRECTION('',(-0.866025403784,3.330669073875E-16,-0.5));
#1189 = DIRECTION('',(-0.5,-8.326672684689E-17,0.866025403784));
#1190 = ADVANCED_FACE('',(#1191),#1210,.F.);
#1191 = FACE_BOUND('',#1192,.F.);
#1192 = EDGE_LOOP('',(#1193,#1201,#1202,#1203));
#1193 = ORIENTED_EDGE('',*,*,#1194,.F.);
#1194 = EDGE_CURVE('',#165,#1195,#1197,.T.);
#1195 = VERTEX_POINT('',#1196);
#1196 = CARTESIAN_POINT('',(3.968626966597,69.,-0.5));
#1197 = LINE('',#1198,#1199);
#1198 = CARTESIAN_POINT('',(19.7,69.,-0.5));
#1199 = VECTOR('',#1200,1.);
#1200 = DIRECTION('',(-1.,3.4E-16,1.E-16));
#1201 = ORIENTED_EDGE('',*,*,#172,.F.);
#1202 = ORIENTED_EDGE('',*,*,#1171,.T.);
#1203 = ORIENTED_EDGE('',*,*,#1204,.T.);
#1204 = EDGE_CURVE('',#1164,#1195,#1205,.T.);
#1205 = CIRCLE('',#1206,4.);
#1206 = AXIS2_PLACEMENT_3D('',#1207,#1208,#1209);
#1207 = CARTESIAN_POINT('',(0.,69.,1.42108547152E-14));
#1208 = DIRECTION('',(0.,-1.,-2.2E-16));
#1209 = DIRECTION('',(1.,0.,0.));
#1210 = PLANE('',#1211);
#1211 = AXIS2_PLACEMENT_3D('',#1212,#1213,#1214);
#1212 = CARTESIAN_POINT('',(-1.04E-15,69.,1.514E-14));
#1213 = DIRECTION('',(0.,1.,2.2E-16));
#1214 = DIRECTION('',(0.,-2.2E-16,1.));
#1215 = ADVANCED_FACE('',(#1216),#1260,.T.);
#1216 = FACE_BOUND('',#1217,.T.);
#1217 = EDGE_LOOP('',(#1218,#1229,#1237,#1243,#1244,#1245,#1253));
#1218 = ORIENTED_EDGE('',*,*,#1219,.F.);
#1219 = EDGE_CURVE('',#1220,#1222,#1224,.T.);
#1220 = VERTEX_POINT('',#1221);
#1221 = CARTESIAN_POINT('',(4.,60.2,-0.5));
#1222 = VERTEX_POINT('',#1223);
#1223 = CARTESIAN_POINT('',(10.,66.2,-0.5));
#1224 = CIRCLE('',#1225,6.);
#1225 = AXIS2_PLACEMENT_3D('',#1226,#1227,#1228);
#1226 = CARTESIAN_POINT('',(10.,60.2,-0.5));
#1227 = DIRECTION('',(-1.E-16,-7.8E-16,-1.));
#1228 = DIRECTION('',(-1.,3.4E-16,1.E-16));
#1229 = ORIENTED_EDGE('',*,*,#1230,.F.);
#1230 = EDGE_CURVE('',#1231,#1220,#1233,.T.);
#1231 = VERTEX_POINT('',#1232);
#1232 = CARTESIAN_POINT('',(3.968626966597,60.2,-0.5));
#1233 = LINE('',#1234,#1235);
#1234 = CARTESIAN_POINT('',(3.5,60.2,-0.5));
#1235 = VECTOR('',#1236,1.);
#1236 = DIRECTION('',(1.,-3.4E-16,-1.E-16));
#1237 = ORIENTED_EDGE('',*,*,#1238,.T.);
#1238 = EDGE_CURVE('',#1231,#1195,#1239,.T.);
#1239 = LINE('',#1240,#1241);
#1240 = CARTESIAN_POINT('',(3.968626966597,69.,-0.5));
#1241 = VECTOR('',#1242,1.);
#1242 = DIRECTION('',(0.,1.,-4.4E-16));
#1243 = ORIENTED_EDGE('',*,*,#1194,.F.);
#1244 = ORIENTED_EDGE('',*,*,#164,.F.);
#1245 = ORIENTED_EDGE('',*,*,#1246,.T.);
#1246 = EDGE_CURVE('',#156,#1247,#1249,.T.);
#1247 = VERTEX_POINT('',#1248);
#1248 = CARTESIAN_POINT('',(12.196812551781,66.402796322334,-0.5));
#1249 = LINE('',#1250,#1251);
#1250 = CARTESIAN_POINT('',(19.7,67.8,-0.5));
#1251 = VECTOR('',#1252,1.);
#1252 = DIRECTION('',(-0.983100306472,-0.183067712648,2.430677126484E-16
    ));
#1253 = ORIENTED_EDGE('',*,*,#1254,.T.);
#1254 = EDGE_CURVE('',#1247,#1222,#1255,.T.);
#1255 = CIRCLE('',#1256,12.);
#1256 = AXIS2_PLACEMENT_3D('',#1257,#1258,#1259);
#1257 = CARTESIAN_POINT('',(10.,78.2,-0.5));
#1258 = DIRECTION('',(-1.E-16,-7.8E-16,-1.));
#1259 = DIRECTION('',(-1.,3.4E-16,1.E-16));
#1260 = PLANE('',#1261);
#1261 = AXIS2_PLACEMENT_3D('',#1262,#1263,#1264);
#1262 = CARTESIAN_POINT('',(9.788334507366,66.566906285057,-0.5));
#1263 = DIRECTION('',(-1.E-16,-7.8E-16,-1.));
#1264 = DIRECTION('',(-1.,3.4E-16,1.E-16));
#1265 = ADVANCED_FACE('',(#1266),#1285,.F.);
#1266 = FACE_BOUND('',#1267,.F.);
#1267 = EDGE_LOOP('',(#1268,#1276,#1277,#1278,#1279));
#1268 = ORIENTED_EDGE('',*,*,#1269,.F.);
#1269 = EDGE_CURVE('',#131,#1270,#1272,.T.);
#1270 = VERTEX_POINT('',#1271);
#1271 = CARTESIAN_POINT('',(12.196812551781,66.402796322334,0.5));
#1272 = LINE('',#1273,#1274);
#1273 = CARTESIAN_POINT('',(19.7,67.8,0.5));
#1274 = VECTOR('',#1275,1.);
#1275 = DIRECTION('',(-0.983100306472,-0.183067712648,2.430677126484E-16
    ));
#1276 = ORIENTED_EDGE('',*,*,#138,.T.);
#1277 = ORIENTED_EDGE('',*,*,#155,.T.);
#1278 = ORIENTED_EDGE('',*,*,#1246,.T.);
#1279 = ORIENTED_EDGE('',*,*,#1280,.F.);
#1280 = EDGE_CURVE('',#1270,#1247,#1281,.T.);
#1281 = LINE('',#1282,#1283);
#1282 = CARTESIAN_POINT('',(12.196812551781,66.402796322334,0.5));
#1283 = VECTOR('',#1284,1.);
#1284 = DIRECTION('',(-1.E-16,-5.6E-16,-1.));
#1285 = PLANE('',#1286);
#1286 = AXIS2_PLACEMENT_3D('',#1287,#1288,#1289);
#1287 = CARTESIAN_POINT('',(19.7,67.8,0.5));
#1288 = DIRECTION('',(-0.183067712648,0.983100306472,-5.331003064722E-16
    ));
#1289 = DIRECTION('',(-0.983100306472,-0.183067712648,2.030677126484E-16
    ));
#1290 = ADVANCED_FACE('',(#1291),#1328,.F.);
#1291 = FACE_BOUND('',#1292,.F.);
#1292 = EDGE_LOOP('',(#1293,#1304,#1312,#1318,#1319,#1320,#1321));
#1293 = ORIENTED_EDGE('',*,*,#1294,.F.);
#1294 = EDGE_CURVE('',#1295,#1297,#1299,.T.);
#1295 = VERTEX_POINT('',#1296);
#1296 = CARTESIAN_POINT('',(4.,60.2,0.5));
#1297 = VERTEX_POINT('',#1298);
#1298 = CARTESIAN_POINT('',(10.,66.2,0.5));
#1299 = CIRCLE('',#1300,6.);
#1300 = AXIS2_PLACEMENT_3D('',#1301,#1302,#1303);
#1301 = CARTESIAN_POINT('',(10.,60.2,0.5));
#1302 = DIRECTION('',(-1.E-16,-7.8E-16,-1.));
#1303 = DIRECTION('',(-1.,3.4E-16,1.E-16));
#1304 = ORIENTED_EDGE('',*,*,#1305,.F.);
#1305 = EDGE_CURVE('',#1306,#1295,#1308,.T.);
#1306 = VERTEX_POINT('',#1307);
#1307 = CARTESIAN_POINT('',(3.968626966597,60.2,0.5));
#1308 = LINE('',#1309,#1310);
#1309 = CARTESIAN_POINT('',(3.5,60.2,0.5));
#1310 = VECTOR('',#1311,1.);
#1311 = DIRECTION('',(1.,-3.4E-16,-1.E-16));
#1312 = ORIENTED_EDGE('',*,*,#1313,.T.);
#1313 = EDGE_CURVE('',#1306,#411,#1314,.T.);
#1314 = LINE('',#1315,#1316);
#1315 = CARTESIAN_POINT('',(3.968626966597,69.,0.5));
#1316 = VECTOR('',#1317,1.);
#1317 = DIRECTION('',(0.,1.,-4.4E-16));
#1318 = ORIENTED_EDGE('',*,*,#410,.F.);
#1319 = ORIENTED_EDGE('',*,*,#130,.F.);
#1320 = ORIENTED_EDGE('',*,*,#1269,.T.);
#1321 = ORIENTED_EDGE('',*,*,#1322,.T.);
#1322 = EDGE_CURVE('',#1270,#1297,#1323,.T.);
#1323 = CIRCLE('',#1324,12.);
#1324 = AXIS2_PLACEMENT_3D('',#1325,#1326,#1327);
#1325 = CARTESIAN_POINT('',(10.,78.2,0.5));
#1326 = DIRECTION('',(-1.E-16,-7.8E-16,-1.));
#1327 = DIRECTION('',(-1.,3.4E-16,1.E-16));
#1328 = PLANE('',#1329);
#1329 = AXIS2_PLACEMENT_3D('',#1330,#1331,#1332);
#1330 = CARTESIAN_POINT('',(9.788334507366,66.566906285057,0.5));
#1331 = DIRECTION('',(-1.E-16,-7.8E-16,-1.));
#1332 = DIRECTION('',(-1.,3.4E-16,1.E-16));
#1333 = ADVANCED_FACE('',(#1334),#1359,.T.);
#1334 = FACE_BOUND('',#1335,.T.);
#1335 = EDGE_LOOP('',(#1336,#1346,#1352,#1353));
#1336 = ORIENTED_EDGE('',*,*,#1337,.F.);
#1337 = EDGE_CURVE('',#1338,#1340,#1342,.T.);
#1338 = VERTEX_POINT('',#1339);
#1339 = CARTESIAN_POINT('',(-1.24899959968,60.2,1.));
#1340 = VERTEX_POINT('',#1341);
#1341 = CARTESIAN_POINT('',(1.24899959968,60.2,1.));
#1342 = LINE('',#1343,#1344);
#1343 = CARTESIAN_POINT('',(-1.24899959968,60.2,1.));
#1344 = VECTOR('',#1345,1.);
#1345 = DIRECTION('',(1.,0.,0.));
#1346 = ORIENTED_EDGE('',*,*,#1347,.T.);
#1347 = EDGE_CURVE('',#1338,#354,#1348,.T.);
#1348 = LINE('',#1349,#1350);
#1349 = CARTESIAN_POINT('',(-1.24899959968,60.2,1.));
#1350 = VECTOR('',#1351,1.);
#1351 = DIRECTION('',(0.,1.,-2.2E-16));
#1352 = ORIENTED_EDGE('',*,*,#351,.F.);
#1353 = ORIENTED_EDGE('',*,*,#1354,.F.);
#1354 = EDGE_CURVE('',#1340,#352,#1355,.T.);
#1355 = LINE('',#1356,#1357);
#1356 = CARTESIAN_POINT('',(1.24899959968,60.2,1.));
#1357 = VECTOR('',#1358,1.);
#1358 = DIRECTION('',(0.,1.,-2.2E-16));
#1359 = PLANE('',#1360);
#1360 = AXIS2_PLACEMENT_3D('',#1361,#1362,#1363);
#1361 = CARTESIAN_POINT('',(-1.24899959968,60.2,1.));
#1362 = DIRECTION('',(0.,-2.2E-16,-1.));
#1363 = DIRECTION('',(1.,0.,0.));
#1364 = ADVANCED_FACE('',(#1365),#1384,.F.);
#1365 = FACE_BOUND('',#1366,.F.);
#1366 = EDGE_LOOP('',(#1367,#1376,#1382,#1383));
#1367 = ORIENTED_EDGE('',*,*,#1368,.F.);
#1368 = EDGE_CURVE('',#1369,#1340,#1371,.T.);
#1369 = VERTEX_POINT('',#1370);
#1370 = CARTESIAN_POINT('',(0.6,60.2,-1.483239697419));
#1371 = CIRCLE('',#1372,1.6);
#1372 = AXIS2_PLACEMENT_3D('',#1373,#1374,#1375);
#1373 = CARTESIAN_POINT('',(0.,60.2,2.84217094304E-14));
#1374 = DIRECTION('',(0.,-1.,-2.2E-16));
#1375 = DIRECTION('',(1.,0.,0.));
#1376 = ORIENTED_EDGE('',*,*,#1377,.T.);
#1377 = EDGE_CURVE('',#1369,#387,#1378,.T.);
#1378 = LINE('',#1379,#1380);
#1379 = CARTESIAN_POINT('',(0.6,60.2,-1.483239697419));
#1380 = VECTOR('',#1381,1.);
#1381 = DIRECTION('',(0.,1.,-2.2E-16));
#1382 = ORIENTED_EDGE('',*,*,#394,.T.);
#1383 = ORIENTED_EDGE('',*,*,#1354,.F.);
#1384 = CYLINDRICAL_SURFACE('',#1385,1.6);
#1385 = AXIS2_PLACEMENT_3D('',#1386,#1387,#1388);
#1386 = CARTESIAN_POINT('',(0.,60.2,0.));
#1387 = DIRECTION('',(0.,-1.,2.2E-16));
#1388 = DIRECTION('',(1.,0.,0.));
#1389 = ADVANCED_FACE('',(#1390),#1415,.F.);
#1390 = FACE_BOUND('',#1391,.F.);
#1391 = EDGE_LOOP('',(#1392,#1393,#1399,#1400,#1401,#1409));
#1392 = ORIENTED_EDGE('',*,*,#1047,.T.);
#1393 = ORIENTED_EDGE('',*,*,#1394,.T.);
#1394 = EDGE_CURVE('',#1040,#379,#1395,.T.);
#1395 = LINE('',#1396,#1397);
#1396 = CARTESIAN_POINT('',(0.6,60.2,-13.48323969741));
#1397 = VECTOR('',#1398,1.);
#1398 = DIRECTION('',(0.,1.,-2.2E-16));
#1399 = ORIENTED_EDGE('',*,*,#386,.F.);
#1400 = ORIENTED_EDGE('',*,*,#1377,.F.);
#1401 = ORIENTED_EDGE('',*,*,#1402,.F.);
#1402 = EDGE_CURVE('',#1403,#1369,#1405,.T.);
#1403 = VERTEX_POINT('',#1404);
#1404 = CARTESIAN_POINT('',(0.6,60.2,-3.954743986657));
#1405 = LINE('',#1406,#1407);
#1406 = CARTESIAN_POINT('',(0.6,60.2,-13.48323969741));
#1407 = VECTOR('',#1408,1.);
#1408 = DIRECTION('',(0.,-2.2E-16,1.));
#1409 = ORIENTED_EDGE('',*,*,#1410,.T.);
#1410 = EDGE_CURVE('',#1403,#1048,#1411,.T.);
#1411 = LINE('',#1412,#1413);
#1412 = CARTESIAN_POINT('',(0.6,69.,-3.954743986657));
#1413 = VECTOR('',#1414,1.);
#1414 = DIRECTION('',(0.,1.,-4.4E-16));
#1415 = PLANE('',#1416);
#1416 = AXIS2_PLACEMENT_3D('',#1417,#1418,#1419);
#1417 = CARTESIAN_POINT('',(0.6,60.2,-13.48323969741));
#1418 = DIRECTION('',(1.,0.,0.));
#1419 = DIRECTION('',(0.,2.2E-16,1.));
#1420 = ADVANCED_FACE('',(#1421),#1432,.F.);
#1421 = FACE_BOUND('',#1422,.F.);
#1422 = EDGE_LOOP('',(#1423,#1424,#1430,#1431));
#1423 = ORIENTED_EDGE('',*,*,#1039,.T.);
#1424 = ORIENTED_EDGE('',*,*,#1425,.T.);
#1425 = EDGE_CURVE('',#1032,#371,#1426,.T.);
#1426 = LINE('',#1427,#1428);
#1427 = CARTESIAN_POINT('',(-0.6,60.2,-13.48323969741));
#1428 = VECTOR('',#1429,1.);
#1429 = DIRECTION('',(0.,1.,-2.2E-16));
#1430 = ORIENTED_EDGE('',*,*,#378,.F.);
#1431 = ORIENTED_EDGE('',*,*,#1394,.F.);
#1432 = PLANE('',#1433);
#1433 = AXIS2_PLACEMENT_3D('',#1434,#1435,#1436);
#1434 = CARTESIAN_POINT('',(-0.6,60.2,-13.48323969741));
#1435 = DIRECTION('',(0.,-2.2E-16,-1.));
#1436 = DIRECTION('',(1.,0.,0.));
#1437 = ADVANCED_FACE('',(#1438),#1465,.F.);
#1438 = FACE_BOUND('',#1439,.F.);
#1439 = EDGE_LOOP('',(#1440,#1450,#1456,#1457,#1458,#1459));
#1440 = ORIENTED_EDGE('',*,*,#1441,.F.);
#1441 = EDGE_CURVE('',#1442,#1444,#1446,.T.);
#1442 = VERTEX_POINT('',#1443);
#1443 = CARTESIAN_POINT('',(-0.6,60.2,-1.483239697419));
#1444 = VERTEX_POINT('',#1445);
#1445 = CARTESIAN_POINT('',(-0.6,60.2,-3.954743986657));
#1446 = LINE('',#1447,#1448);
#1447 = CARTESIAN_POINT('',(-0.6,60.2,-1.483239697419));
#1448 = VECTOR('',#1449,1.);
#1449 = DIRECTION('',(0.,2.2E-16,-1.));
#1450 = ORIENTED_EDGE('',*,*,#1451,.T.);
#1451 = EDGE_CURVE('',#1442,#362,#1452,.T.);
#1452 = LINE('',#1453,#1454);
#1453 = CARTESIAN_POINT('',(-0.6,60.2,-1.483239697419));
#1454 = VECTOR('',#1455,1.);
#1455 = DIRECTION('',(0.,1.,-2.2E-16));
#1456 = ORIENTED_EDGE('',*,*,#370,.F.);
#1457 = ORIENTED_EDGE('',*,*,#1425,.F.);
#1458 = ORIENTED_EDGE('',*,*,#1031,.T.);
#1459 = ORIENTED_EDGE('',*,*,#1460,.F.);
#1460 = EDGE_CURVE('',#1444,#1023,#1461,.T.);
#1461 = LINE('',#1462,#1463);
#1462 = CARTESIAN_POINT('',(-0.6,69.,-3.954743986657));
#1463 = VECTOR('',#1464,1.);
#1464 = DIRECTION('',(0.,1.,-4.4E-16));
#1465 = PLANE('',#1466);
#1466 = AXIS2_PLACEMENT_3D('',#1467,#1468,#1469);
#1467 = CARTESIAN_POINT('',(-0.6,60.2,-1.483239697419));
#1468 = DIRECTION('',(-1.,0.,0.));
#1469 = DIRECTION('',(0.,-2.2E-16,-1.));
#1470 = ADVANCED_FACE('',(#1471),#1483,.F.);
#1471 = FACE_BOUND('',#1472,.F.);
#1472 = EDGE_LOOP('',(#1473,#1480,#1481,#1482));
#1473 = ORIENTED_EDGE('',*,*,#1474,.F.);
#1474 = EDGE_CURVE('',#1338,#1442,#1475,.T.);
#1475 = CIRCLE('',#1476,1.6);
#1476 = AXIS2_PLACEMENT_3D('',#1477,#1478,#1479);
#1477 = CARTESIAN_POINT('',(0.,60.2,2.84217094304E-14));
#1478 = DIRECTION('',(0.,-1.,-2.2E-16));
#1479 = DIRECTION('',(1.,0.,0.));
#1480 = ORIENTED_EDGE('',*,*,#1347,.T.);
#1481 = ORIENTED_EDGE('',*,*,#361,.T.);
#1482 = ORIENTED_EDGE('',*,*,#1451,.F.);
#1483 = CYLINDRICAL_SURFACE('',#1484,1.6);
#1484 = AXIS2_PLACEMENT_3D('',#1485,#1486,#1487);
#1485 = CARTESIAN_POINT('',(0.,60.2,0.));
#1486 = DIRECTION('',(0.,-1.,2.2E-16));
#1487 = DIRECTION('',(1.,0.,0.));
#1488 = ADVANCED_FACE('',(#1489),#1501,.T.);
#1489 = FACE_BOUND('',#1490,.F.);
#1490 = EDGE_LOOP('',(#1491,#1492,#1493,#1494));
#1491 = ORIENTED_EDGE('',*,*,#460,.T.);
#1492 = ORIENTED_EDGE('',*,*,#418,.F.);
#1493 = ORIENTED_EDGE('',*,*,#1313,.F.);
#1494 = ORIENTED_EDGE('',*,*,#1495,.T.);
#1495 = EDGE_CURVE('',#1306,#453,#1496,.T.);
#1496 = CIRCLE('',#1497,4.);
#1497 = AXIS2_PLACEMENT_3D('',#1498,#1499,#1500);
#1498 = CARTESIAN_POINT('',(0.,60.2,1.42108547152E-14));
#1499 = DIRECTION('',(0.,-1.,-2.2E-16));
#1500 = DIRECTION('',(1.,0.,0.));
#1501 = CYLINDRICAL_SURFACE('',#1502,4.);
#1502 = AXIS2_PLACEMENT_3D('',#1503,#1504,#1505);
#1503 = CARTESIAN_POINT('',(0.,69.,-1.532E-14));
#1504 = DIRECTION('',(0.,1.,-4.4E-16));
#1505 = DIRECTION('',(1.,0.,0.));
#1506 = ADVANCED_FACE('',(#1507),#1523,.F.);
#1507 = FACE_BOUND('',#1508,.T.);
#1508 = EDGE_LOOP('',(#1509,#1515,#1516,#1522));
#1509 = ORIENTED_EDGE('',*,*,#1510,.T.);
#1510 = EDGE_CURVE('',#516,#442,#1511,.T.);
#1511 = LINE('',#1512,#1513);
#1512 = CARTESIAN_POINT('',(1.566987298108,60.2,3.714101615138));
#1513 = VECTOR('',#1514,1.);
#1514 = DIRECTION('',(0.866025403784,-2.6E-16,-0.5));
#1515 = ORIENTED_EDGE('',*,*,#441,.T.);
#1516 = ORIENTED_EDGE('',*,*,#1517,.F.);
#1517 = EDGE_CURVE('',#518,#444,#1518,.T.);
#1518 = LINE('',#1519,#1520);
#1519 = CARTESIAN_POINT('',(4.566987298108,66.2,8.910254037844));
#1520 = VECTOR('',#1521,1.);
#1521 = DIRECTION('',(0.866025403784,-3.055111512313E-16,-0.5));
#1522 = ORIENTED_EDGE('',*,*,#515,.F.);
#1523 = CYLINDRICAL_SURFACE('',#1524,6.);
#1524 = AXIS2_PLACEMENT_3D('',#1525,#1526,#1527);
#1525 = CARTESIAN_POINT('',(4.566987298108,60.2,8.910254037844));
#1526 = DIRECTION('',(-0.866025403784,3.055111512313E-16,0.5));
#1527 = DIRECTION('',(-0.5,3.883208357347E-17,-0.866025403784));
#1528 = ADVANCED_FACE('',(#1529),#1535,.T.);
#1529 = FACE_BOUND('',#1530,.F.);
#1530 = EDGE_LOOP('',(#1531,#1532,#1533,#1534));
#1531 = ORIENTED_EDGE('',*,*,#501,.T.);
#1532 = ORIENTED_EDGE('',*,*,#476,.T.);
#1533 = ORIENTED_EDGE('',*,*,#1517,.F.);
#1534 = ORIENTED_EDGE('',*,*,#550,.F.);
#1535 = CYLINDRICAL_SURFACE('',#1536,12.);
#1536 = AXIS2_PLACEMENT_3D('',#1537,#1538,#1539);
#1537 = CARTESIAN_POINT('',(4.566987298108,78.2,8.910254037844));
#1538 = DIRECTION('',(-0.866025403784,3.055111512313E-16,0.5));
#1539 = DIRECTION('',(-0.5,3.883208357347E-17,-0.866025403784));
#1540 = ADVANCED_FACE('',(#1541),#1553,.T.);
#1541 = FACE_BOUND('',#1542,.F.);
#1542 = EDGE_LOOP('',(#1543,#1544,#1545,#1546));
#1543 = ORIENTED_EDGE('',*,*,#609,.T.);
#1544 = ORIENTED_EDGE('',*,*,#567,.F.);
#1545 = ORIENTED_EDGE('',*,*,#534,.F.);
#1546 = ORIENTED_EDGE('',*,*,#1547,.T.);
#1547 = EDGE_CURVE('',#527,#602,#1548,.T.);
#1548 = CIRCLE('',#1549,4.);
#1549 = AXIS2_PLACEMENT_3D('',#1550,#1551,#1552);
#1550 = CARTESIAN_POINT('',(0.,60.2,1.42108547152E-14));
#1551 = DIRECTION('',(0.,-1.,-2.2E-16));
#1552 = DIRECTION('',(1.,0.,0.));
#1553 = CYLINDRICAL_SURFACE('',#1554,4.);
#1554 = AXIS2_PLACEMENT_3D('',#1555,#1556,#1557);
#1555 = CARTESIAN_POINT('',(0.,69.,-1.532E-14));
#1556 = DIRECTION('',(0.,1.,-4.4E-16));
#1557 = DIRECTION('',(1.,0.,0.));
#1558 = ADVANCED_FACE('',(#1559),#1575,.F.);
#1559 = FACE_BOUND('',#1560,.T.);
#1560 = EDGE_LOOP('',(#1561,#1567,#1568,#1574));
#1561 = ORIENTED_EDGE('',*,*,#1562,.T.);
#1562 = EDGE_CURVE('',#665,#591,#1563,.T.);
#1563 = LINE('',#1564,#1565);
#1564 = CARTESIAN_POINT('',(-2.433012701892,60.2,3.214101615138));
#1565 = VECTOR('',#1566,1.);
#1566 = DIRECTION('',(0.866025403784,-1.5E-16,0.5));
#1567 = ORIENTED_EDGE('',*,*,#590,.T.);
#1568 = ORIENTED_EDGE('',*,*,#1569,.F.);
#1569 = EDGE_CURVE('',#667,#593,#1570,.T.);
#1570 = LINE('',#1571,#1572);
#1571 = CARTESIAN_POINT('',(-5.433012701892,66.2,8.410254037844));
#1572 = VECTOR('',#1573,1.);
#1573 = DIRECTION('',(0.866025403784,-4.996003610813E-16,0.5));
#1574 = ORIENTED_EDGE('',*,*,#664,.F.);
#1575 = CYLINDRICAL_SURFACE('',#1576,6.);
#1576 = AXIS2_PLACEMENT_3D('',#1577,#1578,#1579);
#1577 = CARTESIAN_POINT('',(-5.433012701892,60.2,8.410254037844));
#1578 = DIRECTION('',(-0.866025403784,4.996003610813E-16,-0.5));
#1579 = DIRECTION('',(0.5,-1.387778780781E-16,-0.866025403784));
#1580 = ADVANCED_FACE('',(#1581),#1587,.T.);
#1581 = FACE_BOUND('',#1582,.F.);
#1582 = EDGE_LOOP('',(#1583,#1584,#1585,#1586));
#1583 = ORIENTED_EDGE('',*,*,#650,.T.);
#1584 = ORIENTED_EDGE('',*,*,#625,.T.);
#1585 = ORIENTED_EDGE('',*,*,#1569,.F.);
#1586 = ORIENTED_EDGE('',*,*,#699,.F.);
#1587 = CYLINDRICAL_SURFACE('',#1588,12.);
#1588 = AXIS2_PLACEMENT_3D('',#1589,#1590,#1591);
#1589 = CARTESIAN_POINT('',(-5.433012701892,78.2,8.410254037844));
#1590 = DIRECTION('',(-0.866025403784,4.996003610813E-16,-0.5));
#1591 = DIRECTION('',(0.5,-1.387778780781E-16,-0.866025403784));
#1592 = ADVANCED_FACE('',(#1593),#1605,.T.);
#1593 = FACE_BOUND('',#1594,.F.);
#1594 = EDGE_LOOP('',(#1595,#1602,#1603,#1604));
#1595 = ORIENTED_EDGE('',*,*,#1596,.T.);
#1596 = EDGE_CURVE('',#676,#751,#1597,.T.);
#1597 = CIRCLE('',#1598,4.);
#1598 = AXIS2_PLACEMENT_3D('',#1599,#1600,#1601);
#1599 = CARTESIAN_POINT('',(0.,60.2,1.42108547152E-14));
#1600 = DIRECTION('',(0.,-1.,-2.2E-16));
#1601 = DIRECTION('',(1.,0.,0.));
#1602 = ORIENTED_EDGE('',*,*,#758,.T.);
#1603 = ORIENTED_EDGE('',*,*,#716,.F.);
#1604 = ORIENTED_EDGE('',*,*,#683,.F.);
#1605 = CYLINDRICAL_SURFACE('',#1606,4.);
#1606 = AXIS2_PLACEMENT_3D('',#1607,#1608,#1609);
#1607 = CARTESIAN_POINT('',(0.,69.,-1.532E-14));
#1608 = DIRECTION('',(0.,1.,-4.4E-16));
#1609 = DIRECTION('',(1.,0.,0.));
#1610 = ADVANCED_FACE('',(#1611),#1627,.F.);
#1611 = FACE_BOUND('',#1612,.T.);
#1612 = EDGE_LOOP('',(#1613,#1619,#1620,#1626));
#1613 = ORIENTED_EDGE('',*,*,#1614,.T.);
#1614 = EDGE_CURVE('',#814,#740,#1615,.T.);
#1615 = LINE('',#1616,#1617);
#1616 = CARTESIAN_POINT('',(-4.,60.2,-0.5));
#1617 = VECTOR('',#1618,1.);
#1618 = DIRECTION('',(0.,0.,1.));
#1619 = ORIENTED_EDGE('',*,*,#739,.T.);
#1620 = ORIENTED_EDGE('',*,*,#1621,.F.);
#1621 = EDGE_CURVE('',#816,#742,#1622,.T.);
#1622 = LINE('',#1623,#1624);
#1623 = CARTESIAN_POINT('',(-10.,66.2,-0.5));
#1624 = VECTOR('',#1625,1.);
#1625 = DIRECTION('',(0.,0.,1.));
#1626 = ORIENTED_EDGE('',*,*,#813,.F.);
#1627 = CYLINDRICAL_SURFACE('',#1628,6.);
#1628 = AXIS2_PLACEMENT_3D('',#1629,#1630,#1631);
#1629 = CARTESIAN_POINT('',(-10.,60.2,-0.5));
#1630 = DIRECTION('',(0.,0.,-1.));
#1631 = DIRECTION('',(1.,0.,0.));
#1632 = ADVANCED_FACE('',(#1633),#1639,.T.);
#1633 = FACE_BOUND('',#1634,.F.);
#1634 = EDGE_LOOP('',(#1635,#1636,#1637,#1638));
#1635 = ORIENTED_EDGE('',*,*,#799,.T.);
#1636 = ORIENTED_EDGE('',*,*,#774,.T.);
#1637 = ORIENTED_EDGE('',*,*,#1621,.F.);
#1638 = ORIENTED_EDGE('',*,*,#848,.F.);
#1639 = CYLINDRICAL_SURFACE('',#1640,12.);
#1640 = AXIS2_PLACEMENT_3D('',#1641,#1642,#1643);
#1641 = CARTESIAN_POINT('',(-10.,78.2,-0.5));
#1642 = DIRECTION('',(0.,0.,-1.));
#1643 = DIRECTION('',(1.,0.,0.));
#1644 = ADVANCED_FACE('',(#1645),#1657,.T.);
#1645 = FACE_BOUND('',#1646,.F.);
#1646 = EDGE_LOOP('',(#1647,#1648,#1655,#1656));
#1647 = ORIENTED_EDGE('',*,*,#832,.F.);
#1648 = ORIENTED_EDGE('',*,*,#1649,.T.);
#1649 = EDGE_CURVE('',#825,#900,#1650,.T.);
#1650 = CIRCLE('',#1651,4.);
#1651 = AXIS2_PLACEMENT_3D('',#1652,#1653,#1654);
#1652 = CARTESIAN_POINT('',(0.,60.2,1.42108547152E-14));
#1653 = DIRECTION('',(0.,-1.,-2.2E-16));
#1654 = DIRECTION('',(1.,0.,0.));
#1655 = ORIENTED_EDGE('',*,*,#907,.T.);
#1656 = ORIENTED_EDGE('',*,*,#873,.F.);
#1657 = CYLINDRICAL_SURFACE('',#1658,4.);
#1658 = AXIS2_PLACEMENT_3D('',#1659,#1660,#1661);
#1659 = CARTESIAN_POINT('',(0.,69.,-1.532E-14));
#1660 = DIRECTION('',(0.,1.,-4.4E-16));
#1661 = DIRECTION('',(1.,0.,0.));
#1662 = ADVANCED_FACE('',(#1663),#1679,.F.);
#1663 = FACE_BOUND('',#1664,.T.);
#1664 = EDGE_LOOP('',(#1665,#1671,#1672,#1678));
#1665 = ORIENTED_EDGE('',*,*,#1666,.T.);
#1666 = EDGE_CURVE('',#963,#889,#1667,.T.);
#1667 = LINE('',#1668,#1669);
#1668 = CARTESIAN_POINT('',(-1.566987298108,60.2,-3.714101615138));
#1669 = VECTOR('',#1670,1.);
#1670 = DIRECTION('',(-0.866025403784,4.E-17,0.5));
#1671 = ORIENTED_EDGE('',*,*,#888,.T.);
#1672 = ORIENTED_EDGE('',*,*,#1673,.F.);
#1673 = EDGE_CURVE('',#965,#891,#1674,.T.);
#1674 = LINE('',#1675,#1676);
#1675 = CARTESIAN_POINT('',(-4.566987298108,66.2,-8.910254037844));
#1676 = VECTOR('',#1677,1.);
#1677 = DIRECTION('',(-0.866025403784,-4.440892098501E-16,0.5));
#1678 = ORIENTED_EDGE('',*,*,#962,.F.);
#1679 = CYLINDRICAL_SURFACE('',#1680,6.);
#1680 = AXIS2_PLACEMENT_3D('',#1681,#1682,#1683);
#1681 = CARTESIAN_POINT('',(-4.566987298108,60.2,-8.910254037844));
#1682 = DIRECTION('',(0.866025403784,4.440892098501E-16,-0.5));
#1683 = DIRECTION('',(0.5,5.551115123126E-17,0.866025403784));
#1684 = ADVANCED_FACE('',(#1685),#1691,.T.);
#1685 = FACE_BOUND('',#1686,.F.);
#1686 = EDGE_LOOP('',(#1687,#1688,#1689,#1690));
#1687 = ORIENTED_EDGE('',*,*,#948,.T.);
#1688 = ORIENTED_EDGE('',*,*,#923,.T.);
#1689 = ORIENTED_EDGE('',*,*,#1673,.F.);
#1690 = ORIENTED_EDGE('',*,*,#997,.F.);
#1691 = CYLINDRICAL_SURFACE('',#1692,12.);
#1692 = AXIS2_PLACEMENT_3D('',#1693,#1694,#1695);
#1693 = CARTESIAN_POINT('',(-4.566987298108,78.2,-8.910254037844));
#1694 = DIRECTION('',(0.866025403784,4.440892098501E-16,-0.5));
#1695 = DIRECTION('',(0.5,5.551115123126E-17,0.866025403784));
#1696 = ADVANCED_FACE('',(#1697),#1709,.T.);
#1697 = FACE_BOUND('',#1698,.F.);
#1698 = EDGE_LOOP('',(#1699,#1700,#1707,#1708));
#1699 = ORIENTED_EDGE('',*,*,#981,.F.);
#1700 = ORIENTED_EDGE('',*,*,#1701,.T.);
#1701 = EDGE_CURVE('',#974,#1444,#1702,.T.);
#1702 = CIRCLE('',#1703,4.);
#1703 = AXIS2_PLACEMENT_3D('',#1704,#1705,#1706);
#1704 = CARTESIAN_POINT('',(0.,60.2,1.42108547152E-14));
#1705 = DIRECTION('',(0.,-1.,-2.2E-16));
#1706 = DIRECTION('',(1.,0.,0.));
#1707 = ORIENTED_EDGE('',*,*,#1460,.T.);
#1708 = ORIENTED_EDGE('',*,*,#1022,.F.);
#1709 = CYLINDRICAL_SURFACE('',#1710,4.);
#1710 = AXIS2_PLACEMENT_3D('',#1711,#1712,#1713);
#1711 = CARTESIAN_POINT('',(0.,69.,-1.532E-14));
#1712 = DIRECTION('',(0.,1.,-4.4E-16));
#1713 = DIRECTION('',(1.,0.,0.));
#1714 = ADVANCED_FACE('',(#1715),#1727,.T.);
#1715 = FACE_BOUND('',#1716,.F.);
#1716 = EDGE_LOOP('',(#1717,#1718,#1719,#1720));
#1717 = ORIENTED_EDGE('',*,*,#1089,.T.);
#1718 = ORIENTED_EDGE('',*,*,#1055,.F.);
#1719 = ORIENTED_EDGE('',*,*,#1410,.F.);
#1720 = ORIENTED_EDGE('',*,*,#1721,.T.);
#1721 = EDGE_CURVE('',#1403,#1082,#1722,.T.);
#1722 = CIRCLE('',#1723,4.);
#1723 = AXIS2_PLACEMENT_3D('',#1724,#1725,#1726);
#1724 = CARTESIAN_POINT('',(0.,60.2,1.42108547152E-14));
#1725 = DIRECTION('',(0.,-1.,-2.2E-16));
#1726 = DIRECTION('',(1.,0.,0.));
#1727 = CYLINDRICAL_SURFACE('',#1728,4.);
#1728 = AXIS2_PLACEMENT_3D('',#1729,#1730,#1731);
#1729 = CARTESIAN_POINT('',(0.,69.,-1.532E-14));
#1730 = DIRECTION('',(0.,1.,-4.4E-16));
#1731 = DIRECTION('',(1.,0.,0.));
#1732 = ADVANCED_FACE('',(#1733),#1749,.F.);
#1733 = FACE_BOUND('',#1734,.T.);
#1734 = EDGE_LOOP('',(#1735,#1741,#1742,#1748));
#1735 = ORIENTED_EDGE('',*,*,#1736,.T.);
#1736 = EDGE_CURVE('',#1145,#1071,#1737,.T.);
#1737 = LINE('',#1738,#1739);
#1738 = CARTESIAN_POINT('',(2.433012701892,60.2,-3.214101615138));
#1739 = VECTOR('',#1740,1.);
#1740 = DIRECTION('',(-0.866025403784,-7.E-17,-0.5));
#1741 = ORIENTED_EDGE('',*,*,#1070,.T.);
#1742 = ORIENTED_EDGE('',*,*,#1743,.F.);
#1743 = EDGE_CURVE('',#1147,#1073,#1744,.T.);
#1744 = LINE('',#1745,#1746);
#1745 = CARTESIAN_POINT('',(5.433012701892,66.2,-8.410254037844));
#1746 = VECTOR('',#1747,1.);
#1747 = DIRECTION('',(-0.866025403784,3.330669073875E-16,-0.5));
#1748 = ORIENTED_EDGE('',*,*,#1144,.F.);
#1749 = CYLINDRICAL_SURFACE('',#1750,6.);
#1750 = AXIS2_PLACEMENT_3D('',#1751,#1752,#1753);
#1751 = CARTESIAN_POINT('',(5.433012701892,60.2,-8.410254037844));
#1752 = DIRECTION('',(0.866025403784,-3.330669073875E-16,0.5));
#1753 = DIRECTION('',(-0.5,-1.665334536938E-16,0.866025403784));
#1754 = ADVANCED_FACE('',(#1755),#1761,.T.);
#1755 = FACE_BOUND('',#1756,.F.);
#1756 = EDGE_LOOP('',(#1757,#1758,#1759,#1760));
#1757 = ORIENTED_EDGE('',*,*,#1130,.T.);
#1758 = ORIENTED_EDGE('',*,*,#1105,.T.);
#1759 = ORIENTED_EDGE('',*,*,#1743,.F.);
#1760 = ORIENTED_EDGE('',*,*,#1179,.F.);
#1761 = CYLINDRICAL_SURFACE('',#1762,12.);
#1762 = AXIS2_PLACEMENT_3D('',#1763,#1764,#1765);
#1763 = CARTESIAN_POINT('',(5.433012701892,78.2,-8.410254037844));
#1764 = DIRECTION('',(0.866025403784,-3.330669073875E-16,0.5));
#1765 = DIRECTION('',(-0.5,-1.665334536938E-16,0.866025403784));
#1766 = ADVANCED_FACE('',(#1767),#1779,.T.);
#1767 = FACE_BOUND('',#1768,.F.);
#1768 = EDGE_LOOP('',(#1769,#1770,#1771,#1772));
#1769 = ORIENTED_EDGE('',*,*,#1238,.T.);
#1770 = ORIENTED_EDGE('',*,*,#1204,.F.);
#1771 = ORIENTED_EDGE('',*,*,#1163,.F.);
#1772 = ORIENTED_EDGE('',*,*,#1773,.T.);
#1773 = EDGE_CURVE('',#1156,#1231,#1774,.T.);
#1774 = CIRCLE('',#1775,4.);
#1775 = AXIS2_PLACEMENT_3D('',#1776,#1777,#1778);
#1776 = CARTESIAN_POINT('',(0.,60.2,1.42108547152E-14));
#1777 = DIRECTION('',(0.,-1.,-2.2E-16));
#1778 = DIRECTION('',(1.,0.,0.));
#1779 = CYLINDRICAL_SURFACE('',#1780,4.);
#1780 = AXIS2_PLACEMENT_3D('',#1781,#1782,#1783);
#1781 = CARTESIAN_POINT('',(0.,69.,-1.532E-14));
#1782 = DIRECTION('',(0.,1.,-4.4E-16));
#1783 = DIRECTION('',(1.,0.,0.));
#1784 = ADVANCED_FACE('',(#1785),#1801,.F.);
#1785 = FACE_BOUND('',#1786,.T.);
#1786 = EDGE_LOOP('',(#1787,#1793,#1794,#1800));
#1787 = ORIENTED_EDGE('',*,*,#1788,.T.);
#1788 = EDGE_CURVE('',#1295,#1220,#1789,.T.);
#1789 = LINE('',#1790,#1791);
#1790 = CARTESIAN_POINT('',(4.,60.2,0.5));
#1791 = VECTOR('',#1792,1.);
#1792 = DIRECTION('',(1.2E-16,-2.2E-16,-1.));
#1793 = ORIENTED_EDGE('',*,*,#1219,.T.);
#1794 = ORIENTED_EDGE('',*,*,#1795,.F.);
#1795 = EDGE_CURVE('',#1297,#1222,#1796,.T.);
#1796 = LINE('',#1797,#1798);
#1797 = CARTESIAN_POINT('',(10.,66.2,0.5));
#1798 = VECTOR('',#1799,1.);
#1799 = DIRECTION('',(-1.E-16,-5.6E-16,-1.));
#1800 = ORIENTED_EDGE('',*,*,#1294,.F.);
#1801 = CYLINDRICAL_SURFACE('',#1802,6.);
#1802 = AXIS2_PLACEMENT_3D('',#1803,#1804,#1805);
#1803 = CARTESIAN_POINT('',(10.,60.2,0.5));
#1804 = DIRECTION('',(1.E-16,5.6E-16,1.));
#1805 = DIRECTION('',(-1.,3.4E-16,1.E-16));
#1806 = ADVANCED_FACE('',(#1807),#1813,.T.);
#1807 = FACE_BOUND('',#1808,.F.);
#1808 = EDGE_LOOP('',(#1809,#1810,#1811,#1812));
#1809 = ORIENTED_EDGE('',*,*,#1280,.T.);
#1810 = ORIENTED_EDGE('',*,*,#1254,.T.);
#1811 = ORIENTED_EDGE('',*,*,#1795,.F.);
#1812 = ORIENTED_EDGE('',*,*,#1322,.F.);
#1813 = CYLINDRICAL_SURFACE('',#1814,12.);
#1814 = AXIS2_PLACEMENT_3D('',#1815,#1816,#1817);
#1815 = CARTESIAN_POINT('',(10.,78.2,0.5));
#1816 = DIRECTION('',(1.E-16,5.6E-16,1.));
#1817 = DIRECTION('',(-1.,3.4E-16,1.E-16));
#1818 = ADVANCED_FACE('',(#1819),#1851,.T.);
#1819 = FACE_BOUND('',#1820,.T.);
#1820 = EDGE_LOOP('',(#1821,#1822,#1823,#1824,#1825,#1826,#1827,#1828,
    #1829,#1830,#1831,#1832,#1833,#1834,#1835,#1836,#1837,#1838,#1839,
    #1840,#1841,#1842,#1843,#1844,#1845,#1846,#1847,#1848,#1849,#1850));
#1821 = ORIENTED_EDGE('',*,*,#1510,.F.);
#1822 = ORIENTED_EDGE('',*,*,#526,.F.);
#1823 = ORIENTED_EDGE('',*,*,#1547,.T.);
#1824 = ORIENTED_EDGE('',*,*,#601,.T.);
#1825 = ORIENTED_EDGE('',*,*,#1562,.F.);
#1826 = ORIENTED_EDGE('',*,*,#675,.F.);
#1827 = ORIENTED_EDGE('',*,*,#1596,.T.);
#1828 = ORIENTED_EDGE('',*,*,#750,.T.);
#1829 = ORIENTED_EDGE('',*,*,#1614,.F.);
#1830 = ORIENTED_EDGE('',*,*,#824,.F.);
#1831 = ORIENTED_EDGE('',*,*,#1649,.T.);
#1832 = ORIENTED_EDGE('',*,*,#899,.T.);
#1833 = ORIENTED_EDGE('',*,*,#1666,.F.);
#1834 = ORIENTED_EDGE('',*,*,#973,.F.);
#1835 = ORIENTED_EDGE('',*,*,#1701,.T.);
#1836 = ORIENTED_EDGE('',*,*,#1441,.F.);
#1837 = ORIENTED_EDGE('',*,*,#1474,.F.);
#1838 = ORIENTED_EDGE('',*,*,#1337,.T.);
#1839 = ORIENTED_EDGE('',*,*,#1368,.F.);
#1840 = ORIENTED_EDGE('',*,*,#1402,.F.);
#1841 = ORIENTED_EDGE('',*,*,#1721,.T.);
#1842 = ORIENTED_EDGE('',*,*,#1081,.T.);
#1843 = ORIENTED_EDGE('',*,*,#1736,.F.);
#1844 = ORIENTED_EDGE('',*,*,#1155,.F.);
#1845 = ORIENTED_EDGE('',*,*,#1773,.T.);
#1846 = ORIENTED_EDGE('',*,*,#1230,.T.);
#1847 = ORIENTED_EDGE('',*,*,#1788,.F.);
#1848 = ORIENTED_EDGE('',*,*,#1305,.F.);
#1849 = ORIENTED_EDGE('',*,*,#1495,.T.);
#1850 = ORIENTED_EDGE('',*,*,#452,.T.);
#1851 = PLANE('',#1852);
#1852 = AXIS2_PLACEMENT_3D('',#1853,#1854,#1855);
#1853 = CARTESIAN_POINT('',(9.13E-15,60.2,-0.219003588953));
#1854 = DIRECTION('',(0.,-1.,-2.2E-16));
#1855 = DIRECTION('',(1.,0.,0.));
#1856 = ( GEOMETRIC_REPRESENTATION_CONTEXT(3) 
GLOBAL_UNCERTAINTY_ASSIGNED_CONTEXT((#1860)) 
GLOBAL_UNIT_ASSIGNED_CONTEXT((#1857,#1858,#1859)) REPRESENTATION_CONTEXT
('Context #1','3D Context with UNIT and UNCERTAINTY') );
#1857 = ( LENGTH_UNIT() NAMED_UNIT(*) SI_UNIT(.MILLI.,.METRE.) );
#1858 = ( NAMED_UNIT(*) PLANE_ANGLE_UNIT() SI_UNIT($,.RADIAN.) );
#1859 = ( NAMED_UNIT(*) SI_UNIT($,.STERADIAN.) SOLID_ANGLE_UNIT() );
#1860 = UNCERTAINTY_MEASURE_WITH_UNIT(LENGTH_MEASURE(5.E-06),#1857,
  'distance_accuracy_value','confusion accuracy');
#1861 = PRODUCT_RELATED_PRODUCT_CATEGORY('part',$,(#7));
#1862 = MECHANICAL_DESIGN_GEOMETRIC_PRESENTATION_REPRESENTATION('',(
    #1863),#1856);
#1863 = STYLED_ITEM('color',(#1864),#15);
#1864 = PRESENTATION_STYLE_ASSIGNMENT((#1865,#1871));
#1865 = SURFACE_STYLE_USAGE(.BOTH.,#1866);
#1866 = SURFACE_SIDE_STYLE('',(#1867));
#1867 = SURFACE_STYLE_FILL_AREA(#1868);
#1868 = FILL_AREA_STYLE('',(#1869));
#1869 = FILL_AREA_STYLE_COLOUR('',#1870);
#1870 = COLOUR_RGB('',0.984313737446,0.866666664203,0.494117641438);
#1871 = CURVE_STYLE('',#1872,POSITIVE_LENGTH_MEASURE(0.1),#1873);
#1872 = DRAUGHTING_PRE_DEFINED_CURVE_FONT('continuous');
#1873 = COLOUR_RGB('',9.803921802644E-02,9.803921802644E-02,
  9.803921802644E-02);
ENDSEC;
END-ISO-10303-21;
