ISO-10303-21;
HEADER;
FILE_DESCRIPTION(('FreeCAD Model'),'2;1');
FILE_NAME('Open CASCADE Shape Model','2025-11-25T09:22:37',('Author'),(
    ''),'Open CASCADE STEP processor 7.8','FreeCAD','Unknown');
FILE_SCHEMA(('AUTOMOTIVE_DESIGN { 1 0 10303 214 1 1 1 1 }'));
ENDSEC;
DATA;
#1 = APPLICATION_PROTOCOL_DEFINITION('international standard',
  'automotive_design',2000,#2);
#2 = APPLICATION_CONTEXT(
  'core data for automotive mechanical design processes');
#3 = SHAPE_DEFINITION_REPRESENTATION(#4,#10);
#4 = PRODUCT_DEFINITION_SHAPE('','',#5);
#5 = PRODUCT_DEFINITION('design','',#6,#9);
#6 = PRODUCT_DEFINITION_FORMATION('','',#7);
#7 = PRODUCT('MotorBacket','MotorBacket','',(#8));
#8 = PRODUCT_CONTEXT('',#2,'mechanical');
#9 = PRODUCT_DEFINITION_CONTEXT('part definition',#2,'design');
#10 = ADVANCED_BREP_SHAPE_REPRESENTATION('',(#11,#15),#2183);
#11 = AXIS2_PLACEMENT_3D('',#12,#13,#14);
#12 = CARTESIAN_POINT('',(0.,0.,0.));
#13 = DIRECTION('',(0.,0.,1.));
#14 = DIRECTION('',(1.,0.,-0.));
#15 = MANIFOLD_SOLID_BREP('',#16);
#16 = CLOSED_SHELL('',(#17,#143,#202,#227,#299,#324,#348,#373,#445,#470,
    #522,#660,#685,#869,#894,#1025,#1085,#1110,#1128,#1171,#1238,#1269,
    #1286,#1312,#1337,#1410,#1440,#1457,#1482,#1494,#1519,#1537,#1555,
    #1573,#1591,#1609,#1627,#1645,#1663,#1681,#1693,#1711,#1729,#1747,
    #1765,#1783,#1801,#1819,#1837,#1855,#1867,#1891,#1915,#1939,#1963,
    #1980,#2004,#2028,#2052,#2076,#2100,#2124,#2141,#2162));
#17 = ADVANCED_FACE('',(#18),#138,.T.);
#18 = FACE_BOUND('',#19,.F.);
#19 = EDGE_LOOP('',(#20,#30,#39,#47,#56,#64,#73,#81,#90,#98,#106,#115,
    #123,#132));
#20 = ORIENTED_EDGE('',*,*,#21,.T.);
#21 = EDGE_CURVE('',#22,#24,#26,.T.);
#22 = VERTEX_POINT('',#23);
#23 = CARTESIAN_POINT('',(-6.,0.,5.));
#24 = VERTEX_POINT('',#25);
#25 = CARTESIAN_POINT('',(-6.4,0.,5.));
#26 = LINE('',#27,#28);
#27 = CARTESIAN_POINT('',(-6.,-1.11E-15,5.));
#28 = VECTOR('',#29,1.);
#29 = DIRECTION('',(-1.,0.,0.));
#30 = ORIENTED_EDGE('',*,*,#31,.T.);
#31 = EDGE_CURVE('',#24,#32,#34,.T.);
#32 = VERTEX_POINT('',#33);
#33 = CARTESIAN_POINT('',(-7.4,0.,4.));
#34 = CIRCLE('',#35,1.);
#35 = AXIS2_PLACEMENT_3D('',#36,#37,#38);
#36 = CARTESIAN_POINT('',(-6.4,-8.9E-16,4.));
#37 = DIRECTION('',(0.,-1.,-2.2E-16));
#38 = DIRECTION('',(1.,0.,0.));
#39 = ORIENTED_EDGE('',*,*,#40,.T.);
#40 = EDGE_CURVE('',#32,#41,#43,.T.);
#41 = VERTEX_POINT('',#42);
#42 = CARTESIAN_POINT('',(-7.4,0.,-5.4));
#43 = LINE('',#44,#45);
#44 = CARTESIAN_POINT('',(-7.4,-8.9E-16,4.));
#45 = VECTOR('',#46,1.);
#46 = DIRECTION('',(0.,2.2E-16,-1.));
#47 = ORIENTED_EDGE('',*,*,#48,.T.);
#48 = EDGE_CURVE('',#41,#49,#51,.T.);
#49 = VERTEX_POINT('',#50);
#50 = CARTESIAN_POINT('',(-6.4,0.,-6.4));
#51 = CIRCLE('',#52,1.);
#52 = AXIS2_PLACEMENT_3D('',#53,#54,#55);
#53 = CARTESIAN_POINT('',(-6.4,1.2E-15,-5.4));
#54 = DIRECTION('',(0.,-1.,-2.2E-16));
#55 = DIRECTION('',(1.,0.,0.));
#56 = ORIENTED_EDGE('',*,*,#57,.T.);
#57 = EDGE_CURVE('',#49,#58,#60,.T.);
#58 = VERTEX_POINT('',#59);
#59 = CARTESIAN_POINT('',(6.4,0.,-6.4));
#60 = LINE('',#61,#62);
#61 = CARTESIAN_POINT('',(-6.4,1.42E-15,-6.4));
#62 = VECTOR('',#63,1.);
#63 = DIRECTION('',(1.,0.,0.));
#64 = ORIENTED_EDGE('',*,*,#65,.T.);
#65 = EDGE_CURVE('',#58,#66,#68,.T.);
#66 = VERTEX_POINT('',#67);
#67 = CARTESIAN_POINT('',(7.4,0.,-5.4));
#68 = CIRCLE('',#69,1.);
#69 = AXIS2_PLACEMENT_3D('',#70,#71,#72);
#70 = CARTESIAN_POINT('',(6.4,1.2E-15,-5.4));
#71 = DIRECTION('',(0.,-1.,-2.2E-16));
#72 = DIRECTION('',(1.,0.,0.));
#73 = ORIENTED_EDGE('',*,*,#74,.T.);
#74 = EDGE_CURVE('',#66,#75,#77,.T.);
#75 = VERTEX_POINT('',#76);
#76 = CARTESIAN_POINT('',(7.4,0.,4.));
#77 = LINE('',#78,#79);
#78 = CARTESIAN_POINT('',(7.4,1.2E-15,-5.4));
#79 = VECTOR('',#80,1.);
#80 = DIRECTION('',(0.,-2.2E-16,1.));
#81 = ORIENTED_EDGE('',*,*,#82,.T.);
#82 = EDGE_CURVE('',#75,#83,#85,.T.);
#83 = VERTEX_POINT('',#84);
#84 = CARTESIAN_POINT('',(6.4,0.,5.));
#85 = CIRCLE('',#86,1.);
#86 = AXIS2_PLACEMENT_3D('',#87,#88,#89);
#87 = CARTESIAN_POINT('',(6.4,-8.9E-16,4.));
#88 = DIRECTION('',(0.,-1.,-2.2E-16));
#89 = DIRECTION('',(1.,0.,0.));
#90 = ORIENTED_EDGE('',*,*,#91,.T.);
#91 = EDGE_CURVE('',#83,#92,#94,.T.);
#92 = VERTEX_POINT('',#93);
#93 = CARTESIAN_POINT('',(6.,0.,5.));
#94 = LINE('',#95,#96);
#95 = CARTESIAN_POINT('',(6.4,-1.11E-15,5.));
#96 = VECTOR('',#97,1.);
#97 = DIRECTION('',(-1.,0.,0.));
#98 = ORIENTED_EDGE('',*,*,#99,.F.);
#99 = EDGE_CURVE('',#100,#92,#102,.T.);
#100 = VERTEX_POINT('',#101);
#101 = CARTESIAN_POINT('',(6.,0.,-4.2));
#102 = LINE('',#103,#104);
#103 = CARTESIAN_POINT('',(6.,9.3E-16,-4.2));
#104 = VECTOR('',#105,1.);
#105 = DIRECTION('',(0.,-2.2E-16,1.));
#106 = ORIENTED_EDGE('',*,*,#107,.F.);
#107 = EDGE_CURVE('',#108,#100,#110,.T.);
#108 = VERTEX_POINT('',#109);
#109 = CARTESIAN_POINT('',(5.,0.,-5.2));
#110 = CIRCLE('',#111,1.);
#111 = AXIS2_PLACEMENT_3D('',#112,#113,#114);
#112 = CARTESIAN_POINT('',(5.,9.3E-16,-4.2));
#113 = DIRECTION('',(0.,-1.,-2.2E-16));
#114 = DIRECTION('',(1.,0.,0.));
#115 = ORIENTED_EDGE('',*,*,#116,.F.);
#116 = EDGE_CURVE('',#117,#108,#119,.T.);
#117 = VERTEX_POINT('',#118);
#118 = CARTESIAN_POINT('',(-5.,0.,-5.2));
#119 = LINE('',#120,#121);
#120 = CARTESIAN_POINT('',(-5.,1.15E-15,-5.2));
#121 = VECTOR('',#122,1.);
#122 = DIRECTION('',(1.,0.,0.));
#123 = ORIENTED_EDGE('',*,*,#124,.F.);
#124 = EDGE_CURVE('',#125,#117,#127,.T.);
#125 = VERTEX_POINT('',#126);
#126 = CARTESIAN_POINT('',(-6.,0.,-4.2));
#127 = CIRCLE('',#128,1.);
#128 = AXIS2_PLACEMENT_3D('',#129,#130,#131);
#129 = CARTESIAN_POINT('',(-5.,9.3E-16,-4.2));
#130 = DIRECTION('',(0.,-1.,-2.2E-16));
#131 = DIRECTION('',(1.,0.,0.));
#132 = ORIENTED_EDGE('',*,*,#133,.F.);
#133 = EDGE_CURVE('',#22,#125,#134,.T.);
#134 = LINE('',#135,#136);
#135 = CARTESIAN_POINT('',(-6.,-1.11E-15,5.));
#136 = VECTOR('',#137,1.);
#137 = DIRECTION('',(0.,2.2E-16,-1.));
#138 = PLANE('',#139);
#139 = AXIS2_PLACEMENT_3D('',#140,#141,#142);
#140 = CARTESIAN_POINT('',(-1.E-16,0.,-2.211210086961));
#141 = DIRECTION('',(0.,1.,2.2E-16));
#142 = DIRECTION('',(0.,-2.2E-16,1.));
#143 = ADVANCED_FACE('',(#144,#186),#197,.T.);
#144 = FACE_BOUND('',#145,.T.);
#145 = EDGE_LOOP('',(#146,#147,#155,#163,#172,#180));
#146 = ORIENTED_EDGE('',*,*,#21,.T.);
#147 = ORIENTED_EDGE('',*,*,#148,.T.);
#148 = EDGE_CURVE('',#24,#149,#151,.T.);
#149 = VERTEX_POINT('',#150);
#150 = CARTESIAN_POINT('',(-6.4,-12.,5.));
#151 = LINE('',#152,#153);
#152 = CARTESIAN_POINT('',(-6.4,1.11E-15,5.));
#153 = VECTOR('',#154,1.);
#154 = DIRECTION('',(0.,-1.,2.2E-16));
#155 = ORIENTED_EDGE('',*,*,#156,.T.);
#156 = EDGE_CURVE('',#149,#157,#159,.T.);
#157 = VERTEX_POINT('',#158);
#158 = CARTESIAN_POINT('',(-10.,-12.,5.));
#159 = LINE('',#160,#161);
#160 = CARTESIAN_POINT('',(-6.,-12.,5.));
#161 = VECTOR('',#162,1.);
#162 = DIRECTION('',(-1.,-0.,0.));
#163 = ORIENTED_EDGE('',*,*,#164,.F.);
#164 = EDGE_CURVE('',#165,#157,#167,.T.);
#165 = VERTEX_POINT('',#166);
#166 = CARTESIAN_POINT('',(-10.,-20.,5.));
#167 = CIRCLE('',#168,4.);
#168 = AXIS2_PLACEMENT_3D('',#169,#170,#171);
#169 = CARTESIAN_POINT('',(-10.,-16.,5.));
#170 = DIRECTION('',(0.,2.2E-16,-1.));
#171 = DIRECTION('',(1.,0.,0.));
#172 = ORIENTED_EDGE('',*,*,#173,.F.);
#173 = EDGE_CURVE('',#174,#165,#176,.T.);
#174 = VERTEX_POINT('',#175);
#175 = CARTESIAN_POINT('',(-6.,-20.,5.));
#176 = LINE('',#177,#178);
#177 = CARTESIAN_POINT('',(-6.,-20.,5.));
#178 = VECTOR('',#179,1.);
#179 = DIRECTION('',(-1.,0.,0.));
#180 = ORIENTED_EDGE('',*,*,#181,.F.);
#181 = EDGE_CURVE('',#22,#174,#182,.T.);
#182 = LINE('',#183,#184);
#183 = CARTESIAN_POINT('',(-6.,-5.402596439169,5.));
#184 = VECTOR('',#185,1.);
#185 = DIRECTION('',(0.,-1.,1.5E-16));
#186 = FACE_BOUND('',#187,.T.);
#187 = EDGE_LOOP('',(#188));
#188 = ORIENTED_EDGE('',*,*,#189,.T.);
#189 = EDGE_CURVE('',#190,#190,#192,.T.);
#190 = VERTEX_POINT('',#191);
#191 = CARTESIAN_POINT('',(-7.6,-16.,5.));
#192 = CIRCLE('',#193,1.4);
#193 = AXIS2_PLACEMENT_3D('',#194,#195,#196);
#194 = CARTESIAN_POINT('',(-9.,-16.,5.));
#195 = DIRECTION('',(0.,0.,-1.));
#196 = DIRECTION('',(1.,0.,0.));
#197 = PLANE('',#198);
#198 = AXIS2_PLACEMENT_3D('',#199,#200,#201);
#199 = CARTESIAN_POINT('',(-7.856015633098,-11.2923076923,5.));
#200 = DIRECTION('',(0.,9.E-17,1.));
#201 = DIRECTION('',(0.,-1.,9.E-17));
#202 = ADVANCED_FACE('',(#203),#222,.T.);
#203 = FACE_BOUND('',#204,.F.);
#204 = EDGE_LOOP('',(#205,#206,#207,#216));
#205 = ORIENTED_EDGE('',*,*,#31,.F.);
#206 = ORIENTED_EDGE('',*,*,#148,.T.);
#207 = ORIENTED_EDGE('',*,*,#208,.F.);
#208 = EDGE_CURVE('',#209,#149,#211,.T.);
#209 = VERTEX_POINT('',#210);
#210 = CARTESIAN_POINT('',(-7.4,-12.,4.));
#211 = CIRCLE('',#212,1.);
#212 = AXIS2_PLACEMENT_3D('',#213,#214,#215);
#213 = CARTESIAN_POINT('',(-6.4,-12.,4.));
#214 = DIRECTION('',(0.,1.,-2.2E-16));
#215 = DIRECTION('',(1.,0.,0.));
#216 = ORIENTED_EDGE('',*,*,#217,.F.);
#217 = EDGE_CURVE('',#32,#209,#218,.T.);
#218 = LINE('',#219,#220);
#219 = CARTESIAN_POINT('',(-7.4,8.9E-16,4.));
#220 = VECTOR('',#221,1.);
#221 = DIRECTION('',(0.,-1.,2.2E-16));
#222 = CYLINDRICAL_SURFACE('',#223,1.);
#223 = AXIS2_PLACEMENT_3D('',#224,#225,#226);
#224 = CARTESIAN_POINT('',(-6.4,8.9E-16,4.));
#225 = DIRECTION('',(0.,1.,-2.2E-16));
#226 = DIRECTION('',(1.,0.,0.));
#227 = ADVANCED_FACE('',(#228),#294,.F.);
#228 = FACE_BOUND('',#229,.F.);
#229 = EDGE_LOOP('',(#230,#231,#232,#240,#248,#256,#264,#272,#280,#288)
  );
#230 = ORIENTED_EDGE('',*,*,#40,.F.);
#231 = ORIENTED_EDGE('',*,*,#217,.T.);
#232 = ORIENTED_EDGE('',*,*,#233,.F.);
#233 = EDGE_CURVE('',#234,#209,#236,.T.);
#234 = VERTEX_POINT('',#235);
#235 = CARTESIAN_POINT('',(-7.4,-12.,1.6));
#236 = LINE('',#237,#238);
#237 = CARTESIAN_POINT('',(-7.4,-12.,4.5));
#238 = VECTOR('',#239,1.);
#239 = DIRECTION('',(0.,0.,1.));
#240 = ORIENTED_EDGE('',*,*,#241,.T.);
#241 = EDGE_CURVE('',#234,#242,#244,.T.);
#242 = VERTEX_POINT('',#243);
#243 = CARTESIAN_POINT('',(-7.4,-13.9,1.6));
#244 = LINE('',#245,#246);
#245 = CARTESIAN_POINT('',(-7.4,-8.,1.6));
#246 = VECTOR('',#247,1.);
#247 = DIRECTION('',(0.,-1.,0.));
#248 = ORIENTED_EDGE('',*,*,#249,.F.);
#249 = EDGE_CURVE('',#250,#242,#252,.T.);
#250 = VERTEX_POINT('',#251);
#251 = CARTESIAN_POINT('',(-7.4,-13.9,0.8));
#252 = LINE('',#253,#254);
#253 = CARTESIAN_POINT('',(-7.4,-13.9,2.4));
#254 = VECTOR('',#255,1.);
#255 = DIRECTION('',(0.,0.,1.));
#256 = ORIENTED_EDGE('',*,*,#257,.F.);
#257 = EDGE_CURVE('',#258,#250,#260,.T.);
#258 = VERTEX_POINT('',#259);
#259 = CARTESIAN_POINT('',(-7.4,-18.1,0.8));
#260 = LINE('',#261,#262);
#261 = CARTESIAN_POINT('',(-7.4,-9.05,0.8));
#262 = VECTOR('',#263,1.);
#263 = DIRECTION('',(0.,1.,0.));
#264 = ORIENTED_EDGE('',*,*,#265,.F.);
#265 = EDGE_CURVE('',#266,#258,#268,.T.);
#266 = VERTEX_POINT('',#267);
#267 = CARTESIAN_POINT('',(-7.4,-18.1,1.6));
#268 = LINE('',#269,#270);
#269 = CARTESIAN_POINT('',(-7.4,-18.1,3.8));
#270 = VECTOR('',#271,1.);
#271 = DIRECTION('',(0.,0.,-1.));
#272 = ORIENTED_EDGE('',*,*,#273,.T.);
#273 = EDGE_CURVE('',#266,#274,#276,.T.);
#274 = VERTEX_POINT('',#275);
#275 = CARTESIAN_POINT('',(-7.4,-20.,1.6));
#276 = LINE('',#277,#278);
#277 = CARTESIAN_POINT('',(-7.4,-8.,1.6));
#278 = VECTOR('',#279,1.);
#279 = DIRECTION('',(0.,-1.,0.));
#280 = ORIENTED_EDGE('',*,*,#281,.T.);
#281 = EDGE_CURVE('',#274,#282,#284,.T.);
#282 = VERTEX_POINT('',#283);
#283 = CARTESIAN_POINT('',(-7.4,-20.,-5.4));
#284 = LINE('',#285,#286);
#285 = CARTESIAN_POINT('',(-7.4,-20.,4.));
#286 = VECTOR('',#287,1.);
#287 = DIRECTION('',(0.,2.2E-16,-1.));
#288 = ORIENTED_EDGE('',*,*,#289,.F.);
#289 = EDGE_CURVE('',#41,#282,#290,.T.);
#290 = LINE('',#291,#292);
#291 = CARTESIAN_POINT('',(-7.4,-1.2E-15,-5.4));
#292 = VECTOR('',#293,1.);
#293 = DIRECTION('',(0.,-1.,2.2E-16));
#294 = PLANE('',#295);
#295 = AXIS2_PLACEMENT_3D('',#296,#297,#298);
#296 = CARTESIAN_POINT('',(-7.4,8.9E-16,4.));
#297 = DIRECTION('',(1.,0.,0.));
#298 = DIRECTION('',(0.,-2.2E-16,-1.));
#299 = ADVANCED_FACE('',(#300),#319,.T.);
#300 = FACE_BOUND('',#301,.F.);
#301 = EDGE_LOOP('',(#302,#303,#312,#318));
#302 = ORIENTED_EDGE('',*,*,#289,.T.);
#303 = ORIENTED_EDGE('',*,*,#304,.T.);
#304 = EDGE_CURVE('',#282,#305,#307,.T.);
#305 = VERTEX_POINT('',#306);
#306 = CARTESIAN_POINT('',(-6.4,-20.,-6.4));
#307 = CIRCLE('',#308,1.);
#308 = AXIS2_PLACEMENT_3D('',#309,#310,#311);
#309 = CARTESIAN_POINT('',(-6.4,-20.,-5.4));
#310 = DIRECTION('',(0.,-1.,-2.2E-16));
#311 = DIRECTION('',(1.,0.,0.));
#312 = ORIENTED_EDGE('',*,*,#313,.F.);
#313 = EDGE_CURVE('',#49,#305,#314,.T.);
#314 = LINE('',#315,#316);
#315 = CARTESIAN_POINT('',(-6.4,-1.42E-15,-6.4));
#316 = VECTOR('',#317,1.);
#317 = DIRECTION('',(0.,-1.,2.2E-16));
#318 = ORIENTED_EDGE('',*,*,#48,.F.);
#319 = CYLINDRICAL_SURFACE('',#320,1.);
#320 = AXIS2_PLACEMENT_3D('',#321,#322,#323);
#321 = CARTESIAN_POINT('',(-6.4,-1.2E-15,-5.4));
#322 = DIRECTION('',(0.,1.,-2.2E-16));
#323 = DIRECTION('',(1.,0.,0.));
#324 = ADVANCED_FACE('',(#325),#343,.F.);
#325 = FACE_BOUND('',#326,.F.);
#326 = EDGE_LOOP('',(#327,#328,#336,#342));
#327 = ORIENTED_EDGE('',*,*,#313,.T.);
#328 = ORIENTED_EDGE('',*,*,#329,.T.);
#329 = EDGE_CURVE('',#305,#330,#332,.T.);
#330 = VERTEX_POINT('',#331);
#331 = CARTESIAN_POINT('',(6.4,-20.,-6.4));
#332 = LINE('',#333,#334);
#333 = CARTESIAN_POINT('',(-6.4,-20.,-6.4));
#334 = VECTOR('',#335,1.);
#335 = DIRECTION('',(1.,0.,0.));
#336 = ORIENTED_EDGE('',*,*,#337,.F.);
#337 = EDGE_CURVE('',#58,#330,#338,.T.);
#338 = LINE('',#339,#340);
#339 = CARTESIAN_POINT('',(6.4,-1.42E-15,-6.4));
#340 = VECTOR('',#341,1.);
#341 = DIRECTION('',(0.,-1.,2.2E-16));
#342 = ORIENTED_EDGE('',*,*,#57,.F.);
#343 = PLANE('',#344);
#344 = AXIS2_PLACEMENT_3D('',#345,#346,#347);
#345 = CARTESIAN_POINT('',(-6.4,-1.42E-15,-6.4));
#346 = DIRECTION('',(0.,2.2E-16,1.));
#347 = DIRECTION('',(1.,0.,0.));
#348 = ADVANCED_FACE('',(#349),#368,.T.);
#349 = FACE_BOUND('',#350,.F.);
#350 = EDGE_LOOP('',(#351,#352,#361,#367));
#351 = ORIENTED_EDGE('',*,*,#337,.T.);
#352 = ORIENTED_EDGE('',*,*,#353,.T.);
#353 = EDGE_CURVE('',#330,#354,#356,.T.);
#354 = VERTEX_POINT('',#355);
#355 = CARTESIAN_POINT('',(7.4,-20.,-5.4));
#356 = CIRCLE('',#357,1.);
#357 = AXIS2_PLACEMENT_3D('',#358,#359,#360);
#358 = CARTESIAN_POINT('',(6.4,-20.,-5.4));
#359 = DIRECTION('',(0.,-1.,-2.2E-16));
#360 = DIRECTION('',(1.,0.,0.));
#361 = ORIENTED_EDGE('',*,*,#362,.F.);
#362 = EDGE_CURVE('',#66,#354,#363,.T.);
#363 = LINE('',#364,#365);
#364 = CARTESIAN_POINT('',(7.4,-1.2E-15,-5.4));
#365 = VECTOR('',#366,1.);
#366 = DIRECTION('',(0.,-1.,2.2E-16));
#367 = ORIENTED_EDGE('',*,*,#65,.F.);
#368 = CYLINDRICAL_SURFACE('',#369,1.);
#369 = AXIS2_PLACEMENT_3D('',#370,#371,#372);
#370 = CARTESIAN_POINT('',(6.4,-1.2E-15,-5.4));
#371 = DIRECTION('',(0.,1.,-2.2E-16));
#372 = DIRECTION('',(1.,0.,0.));
#373 = ADVANCED_FACE('',(#374),#440,.F.);
#374 = FACE_BOUND('',#375,.F.);
#375 = EDGE_LOOP('',(#376,#377,#378,#386,#394,#402,#410,#418,#426,#434)
  );
#376 = ORIENTED_EDGE('',*,*,#74,.F.);
#377 = ORIENTED_EDGE('',*,*,#362,.T.);
#378 = ORIENTED_EDGE('',*,*,#379,.T.);
#379 = EDGE_CURVE('',#354,#380,#382,.T.);
#380 = VERTEX_POINT('',#381);
#381 = CARTESIAN_POINT('',(7.4,-20.,1.6));
#382 = LINE('',#383,#384);
#383 = CARTESIAN_POINT('',(7.4,-20.,-5.4));
#384 = VECTOR('',#385,1.);
#385 = DIRECTION('',(0.,-2.2E-16,1.));
#386 = ORIENTED_EDGE('',*,*,#387,.T.);
#387 = EDGE_CURVE('',#380,#388,#390,.T.);
#388 = VERTEX_POINT('',#389);
#389 = CARTESIAN_POINT('',(7.4,-18.1,1.6));
#390 = LINE('',#391,#392);
#391 = CARTESIAN_POINT('',(7.4,-8.,1.6));
#392 = VECTOR('',#393,1.);
#393 = DIRECTION('',(0.,1.,0.));
#394 = ORIENTED_EDGE('',*,*,#395,.T.);
#395 = EDGE_CURVE('',#388,#396,#398,.T.);
#396 = VERTEX_POINT('',#397);
#397 = CARTESIAN_POINT('',(7.4,-18.1,0.8));
#398 = LINE('',#399,#400);
#399 = CARTESIAN_POINT('',(7.4,-18.1,3.6));
#400 = VECTOR('',#401,1.);
#401 = DIRECTION('',(-2.2E-16,2.2E-16,-1.));
#402 = ORIENTED_EDGE('',*,*,#403,.T.);
#403 = EDGE_CURVE('',#396,#404,#406,.T.);
#404 = VERTEX_POINT('',#405);
#405 = CARTESIAN_POINT('',(7.4,-13.9,0.8));
#406 = LINE('',#407,#408);
#407 = CARTESIAN_POINT('',(7.4,-18.1,0.8));
#408 = VECTOR('',#409,1.);
#409 = DIRECTION('',(-2.2E-16,1.,2.2E-16));
#410 = ORIENTED_EDGE('',*,*,#411,.T.);
#411 = EDGE_CURVE('',#404,#412,#414,.T.);
#412 = VERTEX_POINT('',#413);
#413 = CARTESIAN_POINT('',(7.4,-13.9,1.6));
#414 = LINE('',#415,#416);
#415 = CARTESIAN_POINT('',(7.4,-13.9,0.8));
#416 = VECTOR('',#417,1.);
#417 = DIRECTION('',(2.2E-16,-2.2E-16,1.));
#418 = ORIENTED_EDGE('',*,*,#419,.T.);
#419 = EDGE_CURVE('',#412,#420,#422,.T.);
#420 = VERTEX_POINT('',#421);
#421 = CARTESIAN_POINT('',(7.4,-12.,1.6));
#422 = LINE('',#423,#424);
#423 = CARTESIAN_POINT('',(7.4,-8.,1.6));
#424 = VECTOR('',#425,1.);
#425 = DIRECTION('',(0.,1.,0.));
#426 = ORIENTED_EDGE('',*,*,#427,.T.);
#427 = EDGE_CURVE('',#420,#428,#430,.T.);
#428 = VERTEX_POINT('',#429);
#429 = CARTESIAN_POINT('',(7.4,-12.,4.));
#430 = LINE('',#431,#432);
#431 = CARTESIAN_POINT('',(7.4,-12.,-0.2));
#432 = VECTOR('',#433,1.);
#433 = DIRECTION('',(0.,0.,1.));
#434 = ORIENTED_EDGE('',*,*,#435,.F.);
#435 = EDGE_CURVE('',#75,#428,#436,.T.);
#436 = LINE('',#437,#438);
#437 = CARTESIAN_POINT('',(7.4,8.9E-16,4.));
#438 = VECTOR('',#439,1.);
#439 = DIRECTION('',(0.,-1.,2.2E-16));
#440 = PLANE('',#441);
#441 = AXIS2_PLACEMENT_3D('',#442,#443,#444);
#442 = CARTESIAN_POINT('',(7.4,-1.2E-15,-5.4));
#443 = DIRECTION('',(-1.,0.,0.));
#444 = DIRECTION('',(0.,2.2E-16,1.));
#445 = ADVANCED_FACE('',(#446),#465,.T.);
#446 = FACE_BOUND('',#447,.F.);
#447 = EDGE_LOOP('',(#448,#449,#450,#459));
#448 = ORIENTED_EDGE('',*,*,#82,.F.);
#449 = ORIENTED_EDGE('',*,*,#435,.T.);
#450 = ORIENTED_EDGE('',*,*,#451,.F.);
#451 = EDGE_CURVE('',#452,#428,#454,.T.);
#452 = VERTEX_POINT('',#453);
#453 = CARTESIAN_POINT('',(6.4,-12.,5.));
#454 = CIRCLE('',#455,1.);
#455 = AXIS2_PLACEMENT_3D('',#456,#457,#458);
#456 = CARTESIAN_POINT('',(6.4,-12.,4.));
#457 = DIRECTION('',(0.,1.,-2.2E-16));
#458 = DIRECTION('',(1.,0.,0.));
#459 = ORIENTED_EDGE('',*,*,#460,.F.);
#460 = EDGE_CURVE('',#83,#452,#461,.T.);
#461 = LINE('',#462,#463);
#462 = CARTESIAN_POINT('',(6.4,1.11E-15,5.));
#463 = VECTOR('',#464,1.);
#464 = DIRECTION('',(0.,-1.,2.2E-16));
#465 = CYLINDRICAL_SURFACE('',#466,1.);
#466 = AXIS2_PLACEMENT_3D('',#467,#468,#469);
#467 = CARTESIAN_POINT('',(6.4,8.9E-16,4.));
#468 = DIRECTION('',(0.,1.,-2.2E-16));
#469 = DIRECTION('',(1.,0.,0.));
#470 = ADVANCED_FACE('',(#471,#506),#517,.T.);
#471 = FACE_BOUND('',#472,.T.);
#472 = EDGE_LOOP('',(#473,#474,#482,#490,#499,#505));
#473 = ORIENTED_EDGE('',*,*,#91,.T.);
#474 = ORIENTED_EDGE('',*,*,#475,.T.);
#475 = EDGE_CURVE('',#92,#476,#478,.T.);
#476 = VERTEX_POINT('',#477);
#477 = CARTESIAN_POINT('',(6.,-20.,5.));
#478 = LINE('',#479,#480);
#479 = CARTESIAN_POINT('',(6.,1.11E-15,5.));
#480 = VECTOR('',#481,1.);
#481 = DIRECTION('',(0.,-1.,2.2E-16));
#482 = ORIENTED_EDGE('',*,*,#483,.F.);
#483 = EDGE_CURVE('',#484,#476,#486,.T.);
#484 = VERTEX_POINT('',#485);
#485 = CARTESIAN_POINT('',(10.,-20.,5.));
#486 = LINE('',#487,#488);
#487 = CARTESIAN_POINT('',(-6.,-20.,5.));
#488 = VECTOR('',#489,1.);
#489 = DIRECTION('',(-1.,0.,0.));
#490 = ORIENTED_EDGE('',*,*,#491,.F.);
#491 = EDGE_CURVE('',#492,#484,#494,.T.);
#492 = VERTEX_POINT('',#493);
#493 = CARTESIAN_POINT('',(10.,-12.,5.));
#494 = CIRCLE('',#495,4.);
#495 = AXIS2_PLACEMENT_3D('',#496,#497,#498);
#496 = CARTESIAN_POINT('',(10.,-16.,5.));
#497 = DIRECTION('',(0.,2.2E-16,-1.));
#498 = DIRECTION('',(1.,0.,0.));
#499 = ORIENTED_EDGE('',*,*,#500,.F.);
#500 = EDGE_CURVE('',#452,#492,#501,.T.);
#501 = LINE('',#502,#503);
#502 = CARTESIAN_POINT('',(6.,-12.,5.));
#503 = VECTOR('',#504,1.);
#504 = DIRECTION('',(1.,0.,0.));
#505 = ORIENTED_EDGE('',*,*,#460,.F.);
#506 = FACE_BOUND('',#507,.T.);
#507 = EDGE_LOOP('',(#508));
#508 = ORIENTED_EDGE('',*,*,#509,.T.);
#509 = EDGE_CURVE('',#510,#510,#512,.T.);
#510 = VERTEX_POINT('',#511);
#511 = CARTESIAN_POINT('',(10.4,-16.,5.));
#512 = CIRCLE('',#513,1.4);
#513 = AXIS2_PLACEMENT_3D('',#514,#515,#516);
#514 = CARTESIAN_POINT('',(9.,-16.,5.));
#515 = DIRECTION('',(0.,0.,-1.));
#516 = DIRECTION('',(1.,0.,0.));
#517 = PLANE('',#518);
#518 = AXIS2_PLACEMENT_3D('',#519,#520,#521);
#519 = CARTESIAN_POINT('',(7.856015633098,-11.2923076923,5.));
#520 = DIRECTION('',(2.9E-16,1.4E-16,1.));
#521 = DIRECTION('',(0.,-1.,1.4E-16));
#522 = ADVANCED_FACE('',(#523,#621),#655,.T.);
#523 = FACE_BOUND('',#524,.T.);
#524 = EDGE_LOOP('',(#525,#526,#534,#542,#550,#558,#566,#574,#582,#590,
    #598,#606,#614,#620));
#525 = ORIENTED_EDGE('',*,*,#99,.F.);
#526 = ORIENTED_EDGE('',*,*,#527,.T.);
#527 = EDGE_CURVE('',#100,#528,#530,.T.);
#528 = VERTEX_POINT('',#529);
#529 = CARTESIAN_POINT('',(6.,-0.9,-4.2));
#530 = LINE('',#531,#532);
#531 = CARTESIAN_POINT('',(6.,-9.3E-16,-4.2));
#532 = VECTOR('',#533,1.);
#533 = DIRECTION('',(0.,-1.,2.2E-16));
#534 = ORIENTED_EDGE('',*,*,#535,.T.);
#535 = EDGE_CURVE('',#528,#536,#538,.T.);
#536 = VERTEX_POINT('',#537);
#537 = CARTESIAN_POINT('',(6.,-0.9,-3.2));
#538 = LINE('',#539,#540);
#539 = CARTESIAN_POINT('',(6.,-0.9,-4.7));
#540 = VECTOR('',#541,1.);
#541 = DIRECTION('',(0.,0.,1.));
#542 = ORIENTED_EDGE('',*,*,#543,.T.);
#543 = EDGE_CURVE('',#536,#544,#546,.T.);
#544 = VERTEX_POINT('',#545);
#545 = CARTESIAN_POINT('',(6.,-4.9,-3.2));
#546 = LINE('',#547,#548);
#547 = CARTESIAN_POINT('',(6.,-0.9,-3.2));
#548 = VECTOR('',#549,1.);
#549 = DIRECTION('',(0.,-1.,-2.2E-16));
#550 = ORIENTED_EDGE('',*,*,#551,.T.);
#551 = EDGE_CURVE('',#544,#552,#554,.T.);
#552 = VERTEX_POINT('',#553);
#553 = CARTESIAN_POINT('',(6.,-4.9,-4.2));
#554 = LINE('',#555,#556);
#555 = CARTESIAN_POINT('',(6.,-4.9,-4.7));
#556 = VECTOR('',#557,1.);
#557 = DIRECTION('',(0.,0.,-1.));
#558 = ORIENTED_EDGE('',*,*,#559,.T.);
#559 = EDGE_CURVE('',#552,#560,#562,.T.);
#560 = VERTEX_POINT('',#561);
#561 = CARTESIAN_POINT('',(6.,-5.9,-4.2));
#562 = LINE('',#563,#564);
#563 = CARTESIAN_POINT('',(6.,-9.3E-16,-4.2));
#564 = VECTOR('',#565,1.);
#565 = DIRECTION('',(0.,-1.,2.2E-16));
#566 = ORIENTED_EDGE('',*,*,#567,.T.);
#567 = EDGE_CURVE('',#560,#568,#570,.T.);
#568 = VERTEX_POINT('',#569);
#569 = CARTESIAN_POINT('',(6.,-5.9,-3.2));
#570 = LINE('',#571,#572);
#571 = CARTESIAN_POINT('',(6.,-5.9,-4.7));
#572 = VECTOR('',#573,1.);
#573 = DIRECTION('',(0.,0.,1.));
#574 = ORIENTED_EDGE('',*,*,#575,.T.);
#575 = EDGE_CURVE('',#568,#576,#578,.T.);
#576 = VERTEX_POINT('',#577);
#577 = CARTESIAN_POINT('',(6.,-8.1,-3.2));
#578 = LINE('',#579,#580);
#579 = CARTESIAN_POINT('',(6.,-0.9,-3.2));
#580 = VECTOR('',#581,1.);
#581 = DIRECTION('',(0.,-1.,-2.2E-16));
#582 = ORIENTED_EDGE('',*,*,#583,.T.);
#583 = EDGE_CURVE('',#576,#584,#586,.T.);
#584 = VERTEX_POINT('',#585);
#585 = CARTESIAN_POINT('',(6.,-8.1,-4.2));
#586 = LINE('',#587,#588);
#587 = CARTESIAN_POINT('',(6.,-8.1,-4.7));
#588 = VECTOR('',#589,1.);
#589 = DIRECTION('',(0.,0.,-1.));
#590 = ORIENTED_EDGE('',*,*,#591,.T.);
#591 = EDGE_CURVE('',#584,#592,#594,.T.);
#592 = VERTEX_POINT('',#593);
#593 = CARTESIAN_POINT('',(6.,-9.1,-4.2));
#594 = LINE('',#595,#596);
#595 = CARTESIAN_POINT('',(6.,-9.3E-16,-4.2));
#596 = VECTOR('',#597,1.);
#597 = DIRECTION('',(0.,-1.,2.2E-16));
#598 = ORIENTED_EDGE('',*,*,#599,.T.);
#599 = EDGE_CURVE('',#592,#600,#602,.T.);
#600 = VERTEX_POINT('',#601);
#601 = CARTESIAN_POINT('',(6.,-9.1,-3.2));
#602 = LINE('',#603,#604);
#603 = CARTESIAN_POINT('',(6.,-9.1,-4.7));
#604 = VECTOR('',#605,1.);
#605 = DIRECTION('',(0.,0.,1.));
#606 = ORIENTED_EDGE('',*,*,#607,.T.);
#607 = EDGE_CURVE('',#600,#608,#610,.T.);
#608 = VERTEX_POINT('',#609);
#609 = CARTESIAN_POINT('',(6.,-20.,-3.2));
#610 = LINE('',#611,#612);
#611 = CARTESIAN_POINT('',(6.,-0.9,-3.2));
#612 = VECTOR('',#613,1.);
#613 = DIRECTION('',(0.,-1.,-2.2E-16));
#614 = ORIENTED_EDGE('',*,*,#615,.T.);
#615 = EDGE_CURVE('',#608,#476,#616,.T.);
#616 = LINE('',#617,#618);
#617 = CARTESIAN_POINT('',(6.,-20.,2.55));
#618 = VECTOR('',#619,1.);
#619 = DIRECTION('',(0.,1.6E-16,1.));
#620 = ORIENTED_EDGE('',*,*,#475,.F.);
#621 = FACE_BOUND('',#622,.T.);
#622 = EDGE_LOOP('',(#623,#633,#641,#649));
#623 = ORIENTED_EDGE('',*,*,#624,.F.);
#624 = EDGE_CURVE('',#625,#627,#629,.T.);
#625 = VERTEX_POINT('',#626);
#626 = CARTESIAN_POINT('',(6.,-13.9,0.8));
#627 = VERTEX_POINT('',#628);
#628 = CARTESIAN_POINT('',(6.,-18.1,0.8));
#629 = LINE('',#630,#631);
#630 = CARTESIAN_POINT('',(6.,-13.80080128205,0.8));
#631 = VECTOR('',#632,1.);
#632 = DIRECTION('',(0.,-1.,0.));
#633 = ORIENTED_EDGE('',*,*,#634,.F.);
#634 = EDGE_CURVE('',#635,#625,#637,.T.);
#635 = VERTEX_POINT('',#636);
#636 = CARTESIAN_POINT('',(6.,-13.9,3.6));
#637 = LINE('',#638,#639);
#638 = CARTESIAN_POINT('',(6.,-13.9,0.605608974359));
#639 = VECTOR('',#640,1.);
#640 = DIRECTION('',(0.,0.,-1.));
#641 = ORIENTED_EDGE('',*,*,#642,.F.);
#642 = EDGE_CURVE('',#643,#635,#645,.T.);
#643 = VERTEX_POINT('',#644);
#644 = CARTESIAN_POINT('',(6.,-18.1,3.6));
#645 = LINE('',#646,#647);
#646 = CARTESIAN_POINT('',(6.,-11.70080128205,3.6));
#647 = VECTOR('',#648,1.);
#648 = DIRECTION('',(0.,1.,0.));
#649 = ORIENTED_EDGE('',*,*,#650,.F.);
#650 = EDGE_CURVE('',#627,#643,#651,.T.);
#651 = LINE('',#652,#653);
#652 = CARTESIAN_POINT('',(6.,-18.1,2.005608974359));
#653 = VECTOR('',#654,1.);
#654 = DIRECTION('',(0.,0.,1.));
#655 = PLANE('',#656);
#656 = AXIS2_PLACEMENT_3D('',#657,#658,#659);
#657 = CARTESIAN_POINT('',(6.,-9.501602564103,0.411217948718));
#658 = DIRECTION('',(-1.,0.,0.));
#659 = DIRECTION('',(0.,1.,2.2E-16));
#660 = ADVANCED_FACE('',(#661),#680,.F.);
#661 = FACE_BOUND('',#662,.T.);
#662 = EDGE_LOOP('',(#663,#664,#672,#679));
#663 = ORIENTED_EDGE('',*,*,#107,.F.);
#664 = ORIENTED_EDGE('',*,*,#665,.T.);
#665 = EDGE_CURVE('',#108,#666,#668,.T.);
#666 = VERTEX_POINT('',#667);
#667 = CARTESIAN_POINT('',(5.,-0.9,-5.2));
#668 = LINE('',#669,#670);
#669 = CARTESIAN_POINT('',(5.,-1.15E-15,-5.2));
#670 = VECTOR('',#671,1.);
#671 = DIRECTION('',(0.,-1.,2.2E-16));
#672 = ORIENTED_EDGE('',*,*,#673,.F.);
#673 = EDGE_CURVE('',#528,#666,#674,.T.);
#674 = CIRCLE('',#675,1.);
#675 = AXIS2_PLACEMENT_3D('',#676,#677,#678);
#676 = CARTESIAN_POINT('',(5.,-0.9,-4.2));
#677 = DIRECTION('',(0.,1.,-2.2E-16));
#678 = DIRECTION('',(1.,0.,0.));
#679 = ORIENTED_EDGE('',*,*,#527,.F.);
#680 = CYLINDRICAL_SURFACE('',#681,1.);
#681 = AXIS2_PLACEMENT_3D('',#682,#683,#684);
#682 = CARTESIAN_POINT('',(5.,-9.3E-16,-4.2));
#683 = DIRECTION('',(0.,1.,-2.2E-16));
#684 = DIRECTION('',(1.,0.,0.));
#685 = ADVANCED_FACE('',(#686),#864,.T.);
#686 = FACE_BOUND('',#687,.T.);
#687 = EDGE_LOOP('',(#688,#689,#697,#705,#713,#721,#729,#737,#745,#753,
    #761,#769,#777,#785,#793,#801,#809,#817,#825,#833,#841,#849,#857,
    #863));
#688 = ORIENTED_EDGE('',*,*,#116,.F.);
#689 = ORIENTED_EDGE('',*,*,#690,.T.);
#690 = EDGE_CURVE('',#117,#691,#693,.T.);
#691 = VERTEX_POINT('',#692);
#692 = CARTESIAN_POINT('',(-5.,-0.9,-5.2));
#693 = LINE('',#694,#695);
#694 = CARTESIAN_POINT('',(-5.,-1.15E-15,-5.2));
#695 = VECTOR('',#696,1.);
#696 = DIRECTION('',(0.,-1.,2.2E-16));
#697 = ORIENTED_EDGE('',*,*,#698,.F.);
#698 = EDGE_CURVE('',#699,#691,#701,.T.);
#699 = VERTEX_POINT('',#700);
#700 = CARTESIAN_POINT('',(-4.,-0.9,-5.2));
#701 = LINE('',#702,#703);
#702 = CARTESIAN_POINT('',(6.2,-0.9,-5.2));
#703 = VECTOR('',#704,1.);
#704 = DIRECTION('',(-1.,3.E-17,0.));
#705 = ORIENTED_EDGE('',*,*,#706,.T.);
#706 = EDGE_CURVE('',#699,#707,#709,.T.);
#707 = VERTEX_POINT('',#708);
#708 = CARTESIAN_POINT('',(-4.,-4.9,-5.2));
#709 = LINE('',#710,#711);
#710 = CARTESIAN_POINT('',(-4.,-0.9,-5.2));
#711 = VECTOR('',#712,1.);
#712 = DIRECTION('',(0.,-1.,-2.2E-16));
#713 = ORIENTED_EDGE('',*,*,#714,.F.);
#714 = EDGE_CURVE('',#715,#707,#717,.T.);
#715 = VERTEX_POINT('',#716);
#716 = CARTESIAN_POINT('',(-5.,-4.9,-5.2));
#717 = LINE('',#718,#719);
#718 = CARTESIAN_POINT('',(-6.2,-4.9,-5.2));
#719 = VECTOR('',#720,1.);
#720 = DIRECTION('',(1.,0.,0.));
#721 = ORIENTED_EDGE('',*,*,#722,.T.);
#722 = EDGE_CURVE('',#715,#723,#725,.T.);
#723 = VERTEX_POINT('',#724);
#724 = CARTESIAN_POINT('',(-5.,-5.9,-5.2));
#725 = LINE('',#726,#727);
#726 = CARTESIAN_POINT('',(-5.,-1.15E-15,-5.2));
#727 = VECTOR('',#728,1.);
#728 = DIRECTION('',(0.,-1.,2.2E-16));
#729 = ORIENTED_EDGE('',*,*,#730,.F.);
#730 = EDGE_CURVE('',#731,#723,#733,.T.);
#731 = VERTEX_POINT('',#732);
#732 = CARTESIAN_POINT('',(-4.,-5.9,-5.2));
#733 = LINE('',#734,#735);
#734 = CARTESIAN_POINT('',(6.199999999997,-5.9,-5.2));
#735 = VECTOR('',#736,1.);
#736 = DIRECTION('',(-1.,0.,0.));
#737 = ORIENTED_EDGE('',*,*,#738,.T.);
#738 = EDGE_CURVE('',#731,#739,#741,.T.);
#739 = VERTEX_POINT('',#740);
#740 = CARTESIAN_POINT('',(-4.,-8.1,-5.2));
#741 = LINE('',#742,#743);
#742 = CARTESIAN_POINT('',(-4.,-0.9,-5.2));
#743 = VECTOR('',#744,1.);
#744 = DIRECTION('',(0.,-1.,-2.2E-16));
#745 = ORIENTED_EDGE('',*,*,#746,.F.);
#746 = EDGE_CURVE('',#747,#739,#749,.T.);
#747 = VERTEX_POINT('',#748);
#748 = CARTESIAN_POINT('',(-5.,-8.1,-5.2));
#749 = LINE('',#750,#751);
#750 = CARTESIAN_POINT('',(-6.2,-8.1,-5.2));
#751 = VECTOR('',#752,1.);
#752 = DIRECTION('',(1.,0.,0.));
#753 = ORIENTED_EDGE('',*,*,#754,.T.);
#754 = EDGE_CURVE('',#747,#755,#757,.T.);
#755 = VERTEX_POINT('',#756);
#756 = CARTESIAN_POINT('',(-5.,-9.1,-5.2));
#757 = LINE('',#758,#759);
#758 = CARTESIAN_POINT('',(-5.,-1.15E-15,-5.2));
#759 = VECTOR('',#760,1.);
#760 = DIRECTION('',(0.,-1.,2.2E-16));
#761 = ORIENTED_EDGE('',*,*,#762,.F.);
#762 = EDGE_CURVE('',#763,#755,#765,.T.);
#763 = VERTEX_POINT('',#764);
#764 = CARTESIAN_POINT('',(-4.,-9.1,-5.2));
#765 = LINE('',#766,#767);
#766 = CARTESIAN_POINT('',(6.199999999997,-9.1,-5.2));
#767 = VECTOR('',#768,1.);
#768 = DIRECTION('',(-1.,0.,0.));
#769 = ORIENTED_EDGE('',*,*,#770,.T.);
#770 = EDGE_CURVE('',#763,#771,#773,.T.);
#771 = VERTEX_POINT('',#772);
#772 = CARTESIAN_POINT('',(-4.,-20.,-5.2));
#773 = LINE('',#774,#775);
#774 = CARTESIAN_POINT('',(-4.,-0.9,-5.2));
#775 = VECTOR('',#776,1.);
#776 = DIRECTION('',(0.,-1.,-2.2E-16));
#777 = ORIENTED_EDGE('',*,*,#778,.T.);
#778 = EDGE_CURVE('',#771,#779,#781,.T.);
#779 = VERTEX_POINT('',#780);
#780 = CARTESIAN_POINT('',(4.,-20.,-5.2));
#781 = LINE('',#782,#783);
#782 = CARTESIAN_POINT('',(2.,-20.,-5.2));
#783 = VECTOR('',#784,1.);
#784 = DIRECTION('',(1.,0.,0.));
#785 = ORIENTED_EDGE('',*,*,#786,.F.);
#786 = EDGE_CURVE('',#787,#779,#789,.T.);
#787 = VERTEX_POINT('',#788);
#788 = CARTESIAN_POINT('',(4.,-9.1,-5.2));
#789 = LINE('',#790,#791);
#790 = CARTESIAN_POINT('',(4.,-0.9,-5.2));
#791 = VECTOR('',#792,1.);
#792 = DIRECTION('',(0.,-1.,-2.2E-16));
#793 = ORIENTED_EDGE('',*,*,#794,.F.);
#794 = EDGE_CURVE('',#795,#787,#797,.T.);
#795 = VERTEX_POINT('',#796);
#796 = CARTESIAN_POINT('',(5.,-9.1,-5.2));
#797 = LINE('',#798,#799);
#798 = CARTESIAN_POINT('',(6.199999999997,-9.1,-5.2));
#799 = VECTOR('',#800,1.);
#800 = DIRECTION('',(-1.,0.,0.));
#801 = ORIENTED_EDGE('',*,*,#802,.F.);
#802 = EDGE_CURVE('',#803,#795,#805,.T.);
#803 = VERTEX_POINT('',#804);
#804 = CARTESIAN_POINT('',(5.,-8.1,-5.2));
#805 = LINE('',#806,#807);
#806 = CARTESIAN_POINT('',(5.,-1.15E-15,-5.2));
#807 = VECTOR('',#808,1.);
#808 = DIRECTION('',(0.,-1.,2.2E-16));
#809 = ORIENTED_EDGE('',*,*,#810,.F.);
#810 = EDGE_CURVE('',#811,#803,#813,.T.);
#811 = VERTEX_POINT('',#812);
#812 = CARTESIAN_POINT('',(4.,-8.1,-5.2));
#813 = LINE('',#814,#815);
#814 = CARTESIAN_POINT('',(-6.2,-8.1,-5.2));
#815 = VECTOR('',#816,1.);
#816 = DIRECTION('',(1.,0.,0.));
#817 = ORIENTED_EDGE('',*,*,#818,.F.);
#818 = EDGE_CURVE('',#819,#811,#821,.T.);
#819 = VERTEX_POINT('',#820);
#820 = CARTESIAN_POINT('',(4.,-5.9,-5.2));
#821 = LINE('',#822,#823);
#822 = CARTESIAN_POINT('',(4.,-0.9,-5.2));
#823 = VECTOR('',#824,1.);
#824 = DIRECTION('',(0.,-1.,-2.2E-16));
#825 = ORIENTED_EDGE('',*,*,#826,.F.);
#826 = EDGE_CURVE('',#827,#819,#829,.T.);
#827 = VERTEX_POINT('',#828);
#828 = CARTESIAN_POINT('',(5.,-5.9,-5.2));
#829 = LINE('',#830,#831);
#830 = CARTESIAN_POINT('',(6.199999999997,-5.9,-5.2));
#831 = VECTOR('',#832,1.);
#832 = DIRECTION('',(-1.,0.,0.));
#833 = ORIENTED_EDGE('',*,*,#834,.F.);
#834 = EDGE_CURVE('',#835,#827,#837,.T.);
#835 = VERTEX_POINT('',#836);
#836 = CARTESIAN_POINT('',(5.,-4.9,-5.2));
#837 = LINE('',#838,#839);
#838 = CARTESIAN_POINT('',(5.,-1.15E-15,-5.2));
#839 = VECTOR('',#840,1.);
#840 = DIRECTION('',(0.,-1.,2.2E-16));
#841 = ORIENTED_EDGE('',*,*,#842,.F.);
#842 = EDGE_CURVE('',#843,#835,#845,.T.);
#843 = VERTEX_POINT('',#844);
#844 = CARTESIAN_POINT('',(4.,-4.9,-5.2));
#845 = LINE('',#846,#847);
#846 = CARTESIAN_POINT('',(-6.2,-4.9,-5.2));
#847 = VECTOR('',#848,1.);
#848 = DIRECTION('',(1.,0.,0.));
#849 = ORIENTED_EDGE('',*,*,#850,.F.);
#850 = EDGE_CURVE('',#851,#843,#853,.T.);
#851 = VERTEX_POINT('',#852);
#852 = CARTESIAN_POINT('',(4.,-0.9,-5.2));
#853 = LINE('',#854,#855);
#854 = CARTESIAN_POINT('',(4.,-0.9,-5.2));
#855 = VECTOR('',#856,1.);
#856 = DIRECTION('',(0.,-1.,-2.2E-16));
#857 = ORIENTED_EDGE('',*,*,#858,.F.);
#858 = EDGE_CURVE('',#666,#851,#859,.T.);
#859 = LINE('',#860,#861);
#860 = CARTESIAN_POINT('',(6.2,-0.9,-5.2));
#861 = VECTOR('',#862,1.);
#862 = DIRECTION('',(-1.,3.E-17,0.));
#863 = ORIENTED_EDGE('',*,*,#665,.F.);
#864 = PLANE('',#865);
#865 = AXIS2_PLACEMENT_3D('',#866,#867,#868);
#866 = CARTESIAN_POINT('',(1.3E-16,-9.085294117647,-5.2));
#867 = DIRECTION('',(0.,-2.2E-16,1.));
#868 = DIRECTION('',(0.,-1.,-2.2E-16));
#869 = ADVANCED_FACE('',(#870),#889,.F.);
#870 = FACE_BOUND('',#871,.T.);
#871 = EDGE_LOOP('',(#872,#873,#881,#888));
#872 = ORIENTED_EDGE('',*,*,#124,.F.);
#873 = ORIENTED_EDGE('',*,*,#874,.T.);
#874 = EDGE_CURVE('',#125,#875,#877,.T.);
#875 = VERTEX_POINT('',#876);
#876 = CARTESIAN_POINT('',(-6.,-0.9,-4.2));
#877 = LINE('',#878,#879);
#878 = CARTESIAN_POINT('',(-6.,-9.3E-16,-4.2));
#879 = VECTOR('',#880,1.);
#880 = DIRECTION('',(0.,-1.,2.2E-16));
#881 = ORIENTED_EDGE('',*,*,#882,.F.);
#882 = EDGE_CURVE('',#691,#875,#883,.T.);
#883 = CIRCLE('',#884,1.);
#884 = AXIS2_PLACEMENT_3D('',#885,#886,#887);
#885 = CARTESIAN_POINT('',(-5.,-0.9,-4.2));
#886 = DIRECTION('',(0.,1.,-2.2E-16));
#887 = DIRECTION('',(1.,0.,0.));
#888 = ORIENTED_EDGE('',*,*,#690,.F.);
#889 = CYLINDRICAL_SURFACE('',#890,1.);
#890 = AXIS2_PLACEMENT_3D('',#891,#892,#893);
#891 = CARTESIAN_POINT('',(-5.,-9.3E-16,-4.2));
#892 = DIRECTION('',(0.,1.,-2.2E-16));
#893 = DIRECTION('',(1.,0.,0.));
#894 = ADVANCED_FACE('',(#895,#986),#1020,.T.);
#895 = FACE_BOUND('',#896,.T.);
#896 = EDGE_LOOP('',(#897,#898,#899,#907,#915,#923,#931,#939,#947,#955,
    #963,#971,#979,#985));
#897 = ORIENTED_EDGE('',*,*,#133,.F.);
#898 = ORIENTED_EDGE('',*,*,#181,.T.);
#899 = ORIENTED_EDGE('',*,*,#900,.T.);
#900 = EDGE_CURVE('',#174,#901,#903,.T.);
#901 = VERTEX_POINT('',#902);
#902 = CARTESIAN_POINT('',(-6.,-20.,-3.2));
#903 = LINE('',#904,#905);
#904 = CARTESIAN_POINT('',(-6.,-20.,-1.95));
#905 = VECTOR('',#906,1.);
#906 = DIRECTION('',(0.,-1.6E-16,-1.));
#907 = ORIENTED_EDGE('',*,*,#908,.F.);
#908 = EDGE_CURVE('',#909,#901,#911,.T.);
#909 = VERTEX_POINT('',#910);
#910 = CARTESIAN_POINT('',(-6.,-9.1,-3.2));
#911 = LINE('',#912,#913);
#912 = CARTESIAN_POINT('',(-6.,-0.9,-3.2));
#913 = VECTOR('',#914,1.);
#914 = DIRECTION('',(0.,-1.,-2.2E-16));
#915 = ORIENTED_EDGE('',*,*,#916,.T.);
#916 = EDGE_CURVE('',#909,#917,#919,.T.);
#917 = VERTEX_POINT('',#918);
#918 = CARTESIAN_POINT('',(-6.,-9.1,-4.2));
#919 = LINE('',#920,#921);
#920 = CARTESIAN_POINT('',(-6.,-9.1,-0.1));
#921 = VECTOR('',#922,1.);
#922 = DIRECTION('',(0.,0.,-1.));
#923 = ORIENTED_EDGE('',*,*,#924,.F.);
#924 = EDGE_CURVE('',#925,#917,#927,.T.);
#925 = VERTEX_POINT('',#926);
#926 = CARTESIAN_POINT('',(-6.,-8.1,-4.2));
#927 = LINE('',#928,#929);
#928 = CARTESIAN_POINT('',(-6.,-9.3E-16,-4.2));
#929 = VECTOR('',#930,1.);
#930 = DIRECTION('',(0.,-1.,2.2E-16));
#931 = ORIENTED_EDGE('',*,*,#932,.T.);
#932 = EDGE_CURVE('',#925,#933,#935,.T.);
#933 = VERTEX_POINT('',#934);
#934 = CARTESIAN_POINT('',(-6.,-8.1,-3.2));
#935 = LINE('',#936,#937);
#936 = CARTESIAN_POINT('',(-6.,-8.1,-0.1));
#937 = VECTOR('',#938,1.);
#938 = DIRECTION('',(0.,0.,1.));
#939 = ORIENTED_EDGE('',*,*,#940,.F.);
#940 = EDGE_CURVE('',#941,#933,#943,.T.);
#941 = VERTEX_POINT('',#942);
#942 = CARTESIAN_POINT('',(-6.,-5.9,-3.2));
#943 = LINE('',#944,#945);
#944 = CARTESIAN_POINT('',(-6.,-0.9,-3.2));
#945 = VECTOR('',#946,1.);
#946 = DIRECTION('',(0.,-1.,-2.2E-16));
#947 = ORIENTED_EDGE('',*,*,#948,.T.);
#948 = EDGE_CURVE('',#941,#949,#951,.T.);
#949 = VERTEX_POINT('',#950);
#950 = CARTESIAN_POINT('',(-6.,-5.9,-4.2));
#951 = LINE('',#952,#953);
#952 = CARTESIAN_POINT('',(-6.,-5.9,-0.1));
#953 = VECTOR('',#954,1.);
#954 = DIRECTION('',(0.,0.,-1.));
#955 = ORIENTED_EDGE('',*,*,#956,.F.);
#956 = EDGE_CURVE('',#957,#949,#959,.T.);
#957 = VERTEX_POINT('',#958);
#958 = CARTESIAN_POINT('',(-6.,-4.9,-4.2));
#959 = LINE('',#960,#961);
#960 = CARTESIAN_POINT('',(-6.,-9.3E-16,-4.2));
#961 = VECTOR('',#962,1.);
#962 = DIRECTION('',(0.,-1.,2.2E-16));
#963 = ORIENTED_EDGE('',*,*,#964,.T.);
#964 = EDGE_CURVE('',#957,#965,#967,.T.);
#965 = VERTEX_POINT('',#966);
#966 = CARTESIAN_POINT('',(-6.,-4.9,-3.2));
#967 = LINE('',#968,#969);
#968 = CARTESIAN_POINT('',(-6.,-4.9,-0.1));
#969 = VECTOR('',#970,1.);
#970 = DIRECTION('',(0.,0.,1.));
#971 = ORIENTED_EDGE('',*,*,#972,.F.);
#972 = EDGE_CURVE('',#973,#965,#975,.T.);
#973 = VERTEX_POINT('',#974);
#974 = CARTESIAN_POINT('',(-6.,-0.9,-3.2));
#975 = LINE('',#976,#977);
#976 = CARTESIAN_POINT('',(-6.,-0.9,-3.2));
#977 = VECTOR('',#978,1.);
#978 = DIRECTION('',(0.,-1.,-2.2E-16));
#979 = ORIENTED_EDGE('',*,*,#980,.T.);
#980 = EDGE_CURVE('',#973,#875,#981,.T.);
#981 = LINE('',#982,#983);
#982 = CARTESIAN_POINT('',(-6.,-0.9,-0.1));
#983 = VECTOR('',#984,1.);
#984 = DIRECTION('',(0.,0.,-1.));
#985 = ORIENTED_EDGE('',*,*,#874,.F.);
#986 = FACE_BOUND('',#987,.T.);
#987 = EDGE_LOOP('',(#988,#998,#1006,#1014));
#988 = ORIENTED_EDGE('',*,*,#989,.F.);
#989 = EDGE_CURVE('',#990,#992,#994,.T.);
#990 = VERTEX_POINT('',#991);
#991 = CARTESIAN_POINT('',(-6.,-18.1,0.8));
#992 = VERTEX_POINT('',#993);
#993 = CARTESIAN_POINT('',(-6.,-13.9,0.8));
#994 = LINE('',#995,#996);
#995 = CARTESIAN_POINT('',(-6.,-13.80080128205,0.8));
#996 = VECTOR('',#997,1.);
#997 = DIRECTION('',(0.,1.,0.));
#998 = ORIENTED_EDGE('',*,*,#999,.F.);
#999 = EDGE_CURVE('',#1000,#990,#1002,.T.);
#1000 = VERTEX_POINT('',#1001);
#1001 = CARTESIAN_POINT('',(-6.,-18.1,3.6));
#1002 = LINE('',#1003,#1004);
#1003 = CARTESIAN_POINT('',(-6.,-18.1,2.005608974359));
#1004 = VECTOR('',#1005,1.);
#1005 = DIRECTION('',(0.,0.,-1.));
#1006 = ORIENTED_EDGE('',*,*,#1007,.F.);
#1007 = EDGE_CURVE('',#1008,#1000,#1010,.T.);
#1008 = VERTEX_POINT('',#1009);
#1009 = CARTESIAN_POINT('',(-6.,-13.9,3.6));
#1010 = LINE('',#1011,#1012);
#1011 = CARTESIAN_POINT('',(-6.,-11.70080128205,3.6));
#1012 = VECTOR('',#1013,1.);
#1013 = DIRECTION('',(0.,-1.,0.));
#1014 = ORIENTED_EDGE('',*,*,#1015,.F.);
#1015 = EDGE_CURVE('',#992,#1008,#1016,.T.);
#1016 = LINE('',#1017,#1018);
#1017 = CARTESIAN_POINT('',(-6.,-13.9,0.605608974359));
#1018 = VECTOR('',#1019,1.);
#1019 = DIRECTION('',(0.,0.,1.));
#1020 = PLANE('',#1021);
#1021 = AXIS2_PLACEMENT_3D('',#1022,#1023,#1024);
#1022 = CARTESIAN_POINT('',(-6.,-9.501602564103,0.411217948718));
#1023 = DIRECTION('',(1.,0.,0.));
#1024 = DIRECTION('',(0.,-1.,-2.2E-16));
#1025 = ADVANCED_FACE('',(#1026),#1080,.T.);
#1026 = FACE_BOUND('',#1027,.T.);
#1027 = EDGE_LOOP('',(#1028,#1029,#1037,#1043,#1044,#1045,#1052,#1053,
    #1060,#1061,#1062,#1070,#1076,#1077,#1078,#1079));
#1028 = ORIENTED_EDGE('',*,*,#379,.T.);
#1029 = ORIENTED_EDGE('',*,*,#1030,.T.);
#1030 = EDGE_CURVE('',#380,#1031,#1033,.T.);
#1031 = VERTEX_POINT('',#1032);
#1032 = CARTESIAN_POINT('',(10.,-20.,1.6));
#1033 = LINE('',#1034,#1035);
#1034 = CARTESIAN_POINT('',(6.,-20.,1.6));
#1035 = VECTOR('',#1036,1.);
#1036 = DIRECTION('',(1.,0.,0.));
#1037 = ORIENTED_EDGE('',*,*,#1038,.F.);
#1038 = EDGE_CURVE('',#484,#1031,#1039,.T.);
#1039 = LINE('',#1040,#1041);
#1040 = CARTESIAN_POINT('',(10.,-20.,5.));
#1041 = VECTOR('',#1042,1.);
#1042 = DIRECTION('',(0.,0.,-1.));
#1043 = ORIENTED_EDGE('',*,*,#483,.T.);
#1044 = ORIENTED_EDGE('',*,*,#615,.F.);
#1045 = ORIENTED_EDGE('',*,*,#1046,.T.);
#1046 = EDGE_CURVE('',#608,#779,#1047,.T.);
#1047 = CIRCLE('',#1048,2.);
#1048 = AXIS2_PLACEMENT_3D('',#1049,#1050,#1051);
#1049 = CARTESIAN_POINT('',(4.,-20.,-3.2));
#1050 = DIRECTION('',(-0.,1.,2.2E-16));
#1051 = DIRECTION('',(1.,0.,0.));
#1052 = ORIENTED_EDGE('',*,*,#778,.F.);
#1053 = ORIENTED_EDGE('',*,*,#1054,.T.);
#1054 = EDGE_CURVE('',#771,#901,#1055,.T.);
#1055 = CIRCLE('',#1056,2.);
#1056 = AXIS2_PLACEMENT_3D('',#1057,#1058,#1059);
#1057 = CARTESIAN_POINT('',(-4.,-20.,-3.2));
#1058 = DIRECTION('',(-0.,1.,2.2E-16));
#1059 = DIRECTION('',(1.,0.,0.));
#1060 = ORIENTED_EDGE('',*,*,#900,.F.);
#1061 = ORIENTED_EDGE('',*,*,#173,.T.);
#1062 = ORIENTED_EDGE('',*,*,#1063,.T.);
#1063 = EDGE_CURVE('',#165,#1064,#1066,.T.);
#1064 = VERTEX_POINT('',#1065);
#1065 = CARTESIAN_POINT('',(-10.,-20.,1.6));
#1066 = LINE('',#1067,#1068);
#1067 = CARTESIAN_POINT('',(-10.,-20.,5.));
#1068 = VECTOR('',#1069,1.);
#1069 = DIRECTION('',(0.,0.,-1.));
#1070 = ORIENTED_EDGE('',*,*,#1071,.F.);
#1071 = EDGE_CURVE('',#274,#1064,#1072,.T.);
#1072 = LINE('',#1073,#1074);
#1073 = CARTESIAN_POINT('',(-6.,-20.,1.6));
#1074 = VECTOR('',#1075,1.);
#1075 = DIRECTION('',(-1.,-0.,0.));
#1076 = ORIENTED_EDGE('',*,*,#281,.T.);
#1077 = ORIENTED_EDGE('',*,*,#304,.T.);
#1078 = ORIENTED_EDGE('',*,*,#329,.T.);
#1079 = ORIENTED_EDGE('',*,*,#353,.T.);
#1080 = PLANE('',#1081);
#1081 = AXIS2_PLACEMENT_3D('',#1082,#1083,#1084);
#1082 = CARTESIAN_POINT('',(-3.4E-16,-20.,-1.377440368267));
#1083 = DIRECTION('',(0.,-1.,1.2E-16));
#1084 = DIRECTION('',(0.,1.2E-16,1.));
#1085 = ADVANCED_FACE('',(#1086),#1105,.T.);
#1086 = FACE_BOUND('',#1087,.T.);
#1087 = EDGE_LOOP('',(#1088,#1089,#1090,#1091,#1099));
#1088 = ORIENTED_EDGE('',*,*,#156,.F.);
#1089 = ORIENTED_EDGE('',*,*,#208,.F.);
#1090 = ORIENTED_EDGE('',*,*,#233,.F.);
#1091 = ORIENTED_EDGE('',*,*,#1092,.T.);
#1092 = EDGE_CURVE('',#234,#1093,#1095,.T.);
#1093 = VERTEX_POINT('',#1094);
#1094 = CARTESIAN_POINT('',(-10.,-12.,1.6));
#1095 = LINE('',#1096,#1097);
#1096 = CARTESIAN_POINT('',(-6.,-12.,1.6));
#1097 = VECTOR('',#1098,1.);
#1098 = DIRECTION('',(-1.,-0.,0.));
#1099 = ORIENTED_EDGE('',*,*,#1100,.F.);
#1100 = EDGE_CURVE('',#157,#1093,#1101,.T.);
#1101 = LINE('',#1102,#1103);
#1102 = CARTESIAN_POINT('',(-10.,-12.,5.));
#1103 = VECTOR('',#1104,1.);
#1104 = DIRECTION('',(0.,0.,-1.));
#1105 = PLANE('',#1106);
#1106 = AXIS2_PLACEMENT_3D('',#1107,#1108,#1109);
#1107 = CARTESIAN_POINT('',(-6.,-12.,5.));
#1108 = DIRECTION('',(0.,1.,0.));
#1109 = DIRECTION('',(-1.,0.,0.));
#1110 = ADVANCED_FACE('',(#1111),#1123,.T.);
#1111 = FACE_BOUND('',#1112,.F.);
#1112 = EDGE_LOOP('',(#1113,#1114,#1121,#1122));
#1113 = ORIENTED_EDGE('',*,*,#1063,.T.);
#1114 = ORIENTED_EDGE('',*,*,#1115,.T.);
#1115 = EDGE_CURVE('',#1064,#1093,#1116,.T.);
#1116 = CIRCLE('',#1117,4.);
#1117 = AXIS2_PLACEMENT_3D('',#1118,#1119,#1120);
#1118 = CARTESIAN_POINT('',(-10.,-16.,1.6));
#1119 = DIRECTION('',(0.,2.2E-16,-1.));
#1120 = DIRECTION('',(1.,0.,0.));
#1121 = ORIENTED_EDGE('',*,*,#1100,.F.);
#1122 = ORIENTED_EDGE('',*,*,#164,.F.);
#1123 = CYLINDRICAL_SURFACE('',#1124,4.);
#1124 = AXIS2_PLACEMENT_3D('',#1125,#1126,#1127);
#1125 = CARTESIAN_POINT('',(-10.,-16.,5.));
#1126 = DIRECTION('',(0.,0.,1.));
#1127 = DIRECTION('',(1.,0.,0.));
#1128 = ADVANCED_FACE('',(#1129),#1166,.F.);
#1129 = FACE_BOUND('',#1130,.F.);
#1130 = EDGE_LOOP('',(#1131,#1139,#1148,#1157,#1164,#1165));
#1131 = ORIENTED_EDGE('',*,*,#1132,.F.);
#1132 = EDGE_CURVE('',#1133,#190,#1135,.T.);
#1133 = VERTEX_POINT('',#1134);
#1134 = CARTESIAN_POINT('',(-7.6,-16.,3.6));
#1135 = LINE('',#1136,#1137);
#1136 = CARTESIAN_POINT('',(-7.6,-16.,3.6));
#1137 = VECTOR('',#1138,1.);
#1138 = DIRECTION('',(0.,0.,1.));
#1139 = ORIENTED_EDGE('',*,*,#1140,.F.);
#1140 = EDGE_CURVE('',#1141,#1133,#1143,.T.);
#1141 = VERTEX_POINT('',#1142);
#1142 = CARTESIAN_POINT('',(-8.6,-14.6583592135,3.6));
#1143 = CIRCLE('',#1144,1.4);
#1144 = AXIS2_PLACEMENT_3D('',#1145,#1146,#1147);
#1145 = CARTESIAN_POINT('',(-9.,-16.,3.6));
#1146 = DIRECTION('',(0.,2.2E-16,-1.));
#1147 = DIRECTION('',(1.,0.,0.));
#1148 = ORIENTED_EDGE('',*,*,#1149,.F.);
#1149 = EDGE_CURVE('',#1150,#1141,#1152,.T.);
#1150 = VERTEX_POINT('',#1151);
#1151 = CARTESIAN_POINT('',(-8.6,-17.3416407865,3.6));
#1152 = CIRCLE('',#1153,1.4);
#1153 = AXIS2_PLACEMENT_3D('',#1154,#1155,#1156);
#1154 = CARTESIAN_POINT('',(-9.,-16.,3.6));
#1155 = DIRECTION('',(0.,2.2E-16,-1.));
#1156 = DIRECTION('',(1.,0.,0.));
#1157 = ORIENTED_EDGE('',*,*,#1158,.F.);
#1158 = EDGE_CURVE('',#1133,#1150,#1159,.T.);
#1159 = CIRCLE('',#1160,1.4);
#1160 = AXIS2_PLACEMENT_3D('',#1161,#1162,#1163);
#1161 = CARTESIAN_POINT('',(-9.,-16.,3.6));
#1162 = DIRECTION('',(0.,2.2E-16,-1.));
#1163 = DIRECTION('',(1.,0.,0.));
#1164 = ORIENTED_EDGE('',*,*,#1132,.T.);
#1165 = ORIENTED_EDGE('',*,*,#189,.T.);
#1166 = CYLINDRICAL_SURFACE('',#1167,1.4);
#1167 = AXIS2_PLACEMENT_3D('',#1168,#1169,#1170);
#1168 = CARTESIAN_POINT('',(-9.,-16.,3.6));
#1169 = DIRECTION('',(0.,0.,-1.));
#1170 = DIRECTION('',(1.,0.,0.));
#1171 = ADVANCED_FACE('',(#1172),#1233,.F.);
#1172 = FACE_BOUND('',#1173,.F.);
#1173 = EDGE_LOOP('',(#1174,#1175,#1176,#1184,#1192,#1200,#1208,#1216,
    #1224,#1230,#1231,#1232));
#1174 = ORIENTED_EDGE('',*,*,#1071,.F.);
#1175 = ORIENTED_EDGE('',*,*,#273,.F.);
#1176 = ORIENTED_EDGE('',*,*,#1177,.F.);
#1177 = EDGE_CURVE('',#1178,#266,#1180,.T.);
#1178 = VERTEX_POINT('',#1179);
#1179 = CARTESIAN_POINT('',(-7.441154273192,-18.1,1.6));
#1180 = LINE('',#1181,#1182);
#1181 = CARTESIAN_POINT('',(3.7,-18.1,1.6));
#1182 = VECTOR('',#1183,1.);
#1183 = DIRECTION('',(1.,0.,0.));
#1184 = ORIENTED_EDGE('',*,*,#1185,.T.);
#1185 = EDGE_CURVE('',#1178,#1186,#1188,.T.);
#1186 = VERTEX_POINT('',#1187);
#1187 = CARTESIAN_POINT('',(-9.,-19.,1.6));
#1188 = LINE('',#1189,#1190);
#1189 = CARTESIAN_POINT('',(-6.401923788643,-17.49999999999,1.6));
#1190 = VECTOR('',#1191,1.);
#1191 = DIRECTION('',(-0.866025403784,-0.500000000001,-1.1E-16));
#1192 = ORIENTED_EDGE('',*,*,#1193,.T.);
#1193 = EDGE_CURVE('',#1186,#1194,#1196,.T.);
#1194 = VERTEX_POINT('',#1195);
#1195 = CARTESIAN_POINT('',(-11.59807621135,-17.5,1.6));
#1196 = LINE('',#1197,#1198);
#1197 = CARTESIAN_POINT('',(-9.,-19.,1.6));
#1198 = VECTOR('',#1199,1.);
#1199 = DIRECTION('',(-0.866025403784,0.5,1.1E-16));
#1200 = ORIENTED_EDGE('',*,*,#1201,.T.);
#1201 = EDGE_CURVE('',#1194,#1202,#1204,.T.);
#1202 = VERTEX_POINT('',#1203);
#1203 = CARTESIAN_POINT('',(-11.59807621135,-14.5,1.6));
#1204 = LINE('',#1205,#1206);
#1205 = CARTESIAN_POINT('',(-11.59807621135,-17.5,1.6));
#1206 = VECTOR('',#1207,1.);
#1207 = DIRECTION('',(0.,1.,2.2E-16));
#1208 = ORIENTED_EDGE('',*,*,#1209,.T.);
#1209 = EDGE_CURVE('',#1202,#1210,#1212,.T.);
#1210 = VERTEX_POINT('',#1211);
#1211 = CARTESIAN_POINT('',(-9.,-13.,1.6));
#1212 = LINE('',#1213,#1214);
#1213 = CARTESIAN_POINT('',(-11.59807621135,-14.5,1.6));
#1214 = VECTOR('',#1215,1.);
#1215 = DIRECTION('',(0.866025403784,0.5,1.1E-16));
#1216 = ORIENTED_EDGE('',*,*,#1217,.T.);
#1217 = EDGE_CURVE('',#1210,#1218,#1220,.T.);
#1218 = VERTEX_POINT('',#1219);
#1219 = CARTESIAN_POINT('',(-7.441154273184,-13.9,1.6));
#1220 = LINE('',#1221,#1222);
#1221 = CARTESIAN_POINT('',(-9.,-13.,1.6));
#1222 = VECTOR('',#1223,1.);
#1223 = DIRECTION('',(0.866025403785,-0.499999999999,-1.1E-16));
#1224 = ORIENTED_EDGE('',*,*,#1225,.F.);
#1225 = EDGE_CURVE('',#242,#1218,#1226,.T.);
#1226 = LINE('',#1227,#1228);
#1227 = CARTESIAN_POINT('',(3.7,-13.9,1.6));
#1228 = VECTOR('',#1229,1.);
#1229 = DIRECTION('',(-1.,0.,0.));
#1230 = ORIENTED_EDGE('',*,*,#241,.F.);
#1231 = ORIENTED_EDGE('',*,*,#1092,.T.);
#1232 = ORIENTED_EDGE('',*,*,#1115,.F.);
#1233 = PLANE('',#1234);
#1234 = AXIS2_PLACEMENT_3D('',#1235,#1236,#1237);
#1235 = CARTESIAN_POINT('',(1.08E-15,-16.,1.6));
#1236 = DIRECTION('',(0.,-2.2E-16,1.));
#1237 = DIRECTION('',(1.,0.,0.));
#1238 = ADVANCED_FACE('',(#1239),#1264,.F.);
#1239 = FACE_BOUND('',#1240,.F.);
#1240 = EDGE_LOOP('',(#1241,#1249,#1255,#1256,#1257,#1263));
#1241 = ORIENTED_EDGE('',*,*,#1242,.T.);
#1242 = EDGE_CURVE('',#1000,#1243,#1245,.T.);
#1243 = VERTEX_POINT('',#1244);
#1244 = CARTESIAN_POINT('',(-7.441154273192,-18.1,3.6));
#1245 = LINE('',#1246,#1247);
#1246 = CARTESIAN_POINT('',(7.4,-18.1,3.6));
#1247 = VECTOR('',#1248,1.);
#1248 = DIRECTION('',(-1.,0.,2.2E-16));
#1249 = ORIENTED_EDGE('',*,*,#1250,.T.);
#1250 = EDGE_CURVE('',#1243,#1178,#1251,.T.);
#1251 = LINE('',#1252,#1253);
#1252 = CARTESIAN_POINT('',(-7.441154273192,-18.1,2.6));
#1253 = VECTOR('',#1254,1.);
#1254 = DIRECTION('',(0.,0.,-1.));
#1255 = ORIENTED_EDGE('',*,*,#1177,.T.);
#1256 = ORIENTED_EDGE('',*,*,#265,.T.);
#1257 = ORIENTED_EDGE('',*,*,#1258,.F.);
#1258 = EDGE_CURVE('',#990,#258,#1259,.T.);
#1259 = LINE('',#1260,#1261);
#1260 = CARTESIAN_POINT('',(7.4,-18.1,0.8));
#1261 = VECTOR('',#1262,1.);
#1262 = DIRECTION('',(-1.,0.,2.2E-16));
#1263 = ORIENTED_EDGE('',*,*,#999,.F.);
#1264 = PLANE('',#1265);
#1265 = AXIS2_PLACEMENT_3D('',#1266,#1267,#1268);
#1266 = CARTESIAN_POINT('',(7.4,-18.1,3.6));
#1267 = DIRECTION('',(0.,-1.,0.));
#1268 = DIRECTION('',(-2.2E-16,-0.,-1.));
#1269 = ADVANCED_FACE('',(#1270),#1281,.F.);
#1270 = FACE_BOUND('',#1271,.F.);
#1271 = EDGE_LOOP('',(#1272,#1273,#1274,#1275));
#1272 = ORIENTED_EDGE('',*,*,#989,.F.);
#1273 = ORIENTED_EDGE('',*,*,#1258,.T.);
#1274 = ORIENTED_EDGE('',*,*,#257,.T.);
#1275 = ORIENTED_EDGE('',*,*,#1276,.F.);
#1276 = EDGE_CURVE('',#992,#250,#1277,.T.);
#1277 = LINE('',#1278,#1279);
#1278 = CARTESIAN_POINT('',(7.4,-13.9,0.8));
#1279 = VECTOR('',#1280,1.);
#1280 = DIRECTION('',(-1.,0.,2.2E-16));
#1281 = PLANE('',#1282);
#1282 = AXIS2_PLACEMENT_3D('',#1283,#1284,#1285);
#1283 = CARTESIAN_POINT('',(7.4,-18.1,0.8));
#1284 = DIRECTION('',(-2.2E-16,0.,-1.));
#1285 = DIRECTION('',(0.,1.,0.));
#1286 = ADVANCED_FACE('',(#1287),#1307,.F.);
#1287 = FACE_BOUND('',#1288,.F.);
#1288 = EDGE_LOOP('',(#1289,#1290,#1291,#1292,#1293,#1301));
#1289 = ORIENTED_EDGE('',*,*,#1015,.F.);
#1290 = ORIENTED_EDGE('',*,*,#1276,.T.);
#1291 = ORIENTED_EDGE('',*,*,#249,.T.);
#1292 = ORIENTED_EDGE('',*,*,#1225,.T.);
#1293 = ORIENTED_EDGE('',*,*,#1294,.T.);
#1294 = EDGE_CURVE('',#1218,#1295,#1297,.T.);
#1295 = VERTEX_POINT('',#1296);
#1296 = CARTESIAN_POINT('',(-7.441154273184,-13.9,3.6));
#1297 = LINE('',#1298,#1299);
#1298 = CARTESIAN_POINT('',(-7.441154273184,-13.9,1.2));
#1299 = VECTOR('',#1300,1.);
#1300 = DIRECTION('',(0.,0.,1.));
#1301 = ORIENTED_EDGE('',*,*,#1302,.F.);
#1302 = EDGE_CURVE('',#1008,#1295,#1303,.T.);
#1303 = LINE('',#1304,#1305);
#1304 = CARTESIAN_POINT('',(7.4,-13.9,3.6));
#1305 = VECTOR('',#1306,1.);
#1306 = DIRECTION('',(-1.,0.,2.2E-16));
#1307 = PLANE('',#1308);
#1308 = AXIS2_PLACEMENT_3D('',#1309,#1310,#1311);
#1309 = CARTESIAN_POINT('',(7.4,-13.9,0.8));
#1310 = DIRECTION('',(0.,1.,0.));
#1311 = DIRECTION('',(2.2E-16,-0.,1.));
#1312 = ADVANCED_FACE('',(#1313),#1332,.F.);
#1313 = FACE_BOUND('',#1314,.F.);
#1314 = EDGE_LOOP('',(#1315,#1316,#1317,#1318,#1326));
#1315 = ORIENTED_EDGE('',*,*,#500,.F.);
#1316 = ORIENTED_EDGE('',*,*,#451,.T.);
#1317 = ORIENTED_EDGE('',*,*,#427,.F.);
#1318 = ORIENTED_EDGE('',*,*,#1319,.T.);
#1319 = EDGE_CURVE('',#420,#1320,#1322,.T.);
#1320 = VERTEX_POINT('',#1321);
#1321 = CARTESIAN_POINT('',(10.,-12.,1.6));
#1322 = LINE('',#1323,#1324);
#1323 = CARTESIAN_POINT('',(6.,-12.,1.6));
#1324 = VECTOR('',#1325,1.);
#1325 = DIRECTION('',(1.,0.,0.));
#1326 = ORIENTED_EDGE('',*,*,#1327,.F.);
#1327 = EDGE_CURVE('',#492,#1320,#1328,.T.);
#1328 = LINE('',#1329,#1330);
#1329 = CARTESIAN_POINT('',(10.,-12.,5.));
#1330 = VECTOR('',#1331,1.);
#1331 = DIRECTION('',(0.,0.,-1.));
#1332 = PLANE('',#1333);
#1333 = AXIS2_PLACEMENT_3D('',#1334,#1335,#1336);
#1334 = CARTESIAN_POINT('',(6.,-12.,5.));
#1335 = DIRECTION('',(0.,-1.,0.));
#1336 = DIRECTION('',(1.,0.,0.));
#1337 = ADVANCED_FACE('',(#1338),#1405,.F.);
#1338 = FACE_BOUND('',#1339,.F.);
#1339 = EDGE_LOOP('',(#1340,#1341,#1342,#1349,#1350,#1351,#1359,#1367,
    #1375,#1383,#1391,#1399));
#1340 = ORIENTED_EDGE('',*,*,#387,.F.);
#1341 = ORIENTED_EDGE('',*,*,#1030,.T.);
#1342 = ORIENTED_EDGE('',*,*,#1343,.F.);
#1343 = EDGE_CURVE('',#1320,#1031,#1344,.T.);
#1344 = CIRCLE('',#1345,4.);
#1345 = AXIS2_PLACEMENT_3D('',#1346,#1347,#1348);
#1346 = CARTESIAN_POINT('',(10.,-16.,1.6));
#1347 = DIRECTION('',(0.,2.2E-16,-1.));
#1348 = DIRECTION('',(1.,0.,0.));
#1349 = ORIENTED_EDGE('',*,*,#1319,.F.);
#1350 = ORIENTED_EDGE('',*,*,#419,.F.);
#1351 = ORIENTED_EDGE('',*,*,#1352,.F.);
#1352 = EDGE_CURVE('',#1353,#412,#1355,.T.);
#1353 = VERTEX_POINT('',#1354);
#1354 = CARTESIAN_POINT('',(7.4,-13.9237604307,1.6));
#1355 = LINE('',#1356,#1357);
#1356 = CARTESIAN_POINT('',(7.4,-8.,1.6));
#1357 = VECTOR('',#1358,1.);
#1358 = DIRECTION('',(0.,1.,0.));
#1359 = ORIENTED_EDGE('',*,*,#1360,.T.);
#1360 = EDGE_CURVE('',#1353,#1361,#1363,.T.);
#1361 = VERTEX_POINT('',#1362);
#1362 = CARTESIAN_POINT('',(9.,-13.,1.6));
#1363 = LINE('',#1364,#1365);
#1364 = CARTESIAN_POINT('',(6.401923788647,-14.5,1.6));
#1365 = VECTOR('',#1366,1.);
#1366 = DIRECTION('',(0.866025403784,0.5,1.1E-16));
#1367 = ORIENTED_EDGE('',*,*,#1368,.T.);
#1368 = EDGE_CURVE('',#1361,#1369,#1371,.T.);
#1369 = VERTEX_POINT('',#1370);
#1370 = CARTESIAN_POINT('',(11.598076211357,-14.5,1.6));
#1371 = LINE('',#1372,#1373);
#1372 = CARTESIAN_POINT('',(9.,-13.,1.6));
#1373 = VECTOR('',#1374,1.);
#1374 = DIRECTION('',(0.866025403784,-0.500000000001,-1.1E-16));
#1375 = ORIENTED_EDGE('',*,*,#1376,.T.);
#1376 = EDGE_CURVE('',#1369,#1377,#1379,.T.);
#1377 = VERTEX_POINT('',#1378);
#1378 = CARTESIAN_POINT('',(11.59807621135,-17.5,1.6));
#1379 = LINE('',#1380,#1381);
#1380 = CARTESIAN_POINT('',(11.598076211357,-14.5,1.6));
#1381 = VECTOR('',#1382,1.);
#1382 = DIRECTION('',(-2.4869E-12,-1.,-2.2E-16));
#1383 = ORIENTED_EDGE('',*,*,#1384,.T.);
#1384 = EDGE_CURVE('',#1377,#1385,#1387,.T.);
#1385 = VERTEX_POINT('',#1386);
#1386 = CARTESIAN_POINT('',(9.,-19.,1.6));
#1387 = LINE('',#1388,#1389);
#1388 = CARTESIAN_POINT('',(11.59807621135,-17.5,1.6));
#1389 = VECTOR('',#1390,1.);
#1390 = DIRECTION('',(-0.866025403785,-0.499999999999,-1.1E-16));
#1391 = ORIENTED_EDGE('',*,*,#1392,.T.);
#1392 = EDGE_CURVE('',#1385,#1393,#1395,.T.);
#1393 = VERTEX_POINT('',#1394);
#1394 = CARTESIAN_POINT('',(7.4,-18.07623956929,1.6));
#1395 = LINE('',#1396,#1397);
#1396 = CARTESIAN_POINT('',(9.,-19.,1.6));
#1397 = VECTOR('',#1398,1.);
#1398 = DIRECTION('',(-0.866025403784,0.5,1.1E-16));
#1399 = ORIENTED_EDGE('',*,*,#1400,.F.);
#1400 = EDGE_CURVE('',#388,#1393,#1401,.T.);
#1401 = LINE('',#1402,#1403);
#1402 = CARTESIAN_POINT('',(7.4,-8.,1.6));
#1403 = VECTOR('',#1404,1.);
#1404 = DIRECTION('',(0.,1.,0.));
#1405 = PLANE('',#1406);
#1406 = AXIS2_PLACEMENT_3D('',#1407,#1408,#1409);
#1407 = CARTESIAN_POINT('',(1.08E-15,-16.,1.6));
#1408 = DIRECTION('',(0.,-2.2E-16,1.));
#1409 = DIRECTION('',(1.,0.,0.));
#1410 = ADVANCED_FACE('',(#1411),#1435,.F.);
#1411 = FACE_BOUND('',#1412,.F.);
#1412 = EDGE_LOOP('',(#1413,#1414,#1420,#1421,#1429));
#1413 = ORIENTED_EDGE('',*,*,#411,.F.);
#1414 = ORIENTED_EDGE('',*,*,#1415,.T.);
#1415 = EDGE_CURVE('',#404,#625,#1416,.T.);
#1416 = LINE('',#1417,#1418);
#1417 = CARTESIAN_POINT('',(7.4,-13.9,0.8));
#1418 = VECTOR('',#1419,1.);
#1419 = DIRECTION('',(-1.,0.,2.2E-16));
#1420 = ORIENTED_EDGE('',*,*,#634,.F.);
#1421 = ORIENTED_EDGE('',*,*,#1422,.F.);
#1422 = EDGE_CURVE('',#1423,#635,#1425,.T.);
#1423 = VERTEX_POINT('',#1424);
#1424 = CARTESIAN_POINT('',(7.4,-13.9,3.6));
#1425 = LINE('',#1426,#1427);
#1426 = CARTESIAN_POINT('',(7.4,-13.9,3.6));
#1427 = VECTOR('',#1428,1.);
#1428 = DIRECTION('',(-1.,0.,2.2E-16));
#1429 = ORIENTED_EDGE('',*,*,#1430,.F.);
#1430 = EDGE_CURVE('',#412,#1423,#1431,.T.);
#1431 = LINE('',#1432,#1433);
#1432 = CARTESIAN_POINT('',(7.4,-13.9,0.8));
#1433 = VECTOR('',#1434,1.);
#1434 = DIRECTION('',(2.2E-16,-2.2E-16,1.));
#1435 = PLANE('',#1436);
#1436 = AXIS2_PLACEMENT_3D('',#1437,#1438,#1439);
#1437 = CARTESIAN_POINT('',(7.4,-13.9,0.8));
#1438 = DIRECTION('',(0.,1.,0.));
#1439 = DIRECTION('',(2.2E-16,-0.,1.));
#1440 = ADVANCED_FACE('',(#1441),#1452,.F.);
#1441 = FACE_BOUND('',#1442,.F.);
#1442 = EDGE_LOOP('',(#1443,#1444,#1450,#1451));
#1443 = ORIENTED_EDGE('',*,*,#403,.F.);
#1444 = ORIENTED_EDGE('',*,*,#1445,.T.);
#1445 = EDGE_CURVE('',#396,#627,#1446,.T.);
#1446 = LINE('',#1447,#1448);
#1447 = CARTESIAN_POINT('',(7.4,-18.1,0.8));
#1448 = VECTOR('',#1449,1.);
#1449 = DIRECTION('',(-1.,0.,2.2E-16));
#1450 = ORIENTED_EDGE('',*,*,#624,.F.);
#1451 = ORIENTED_EDGE('',*,*,#1415,.F.);
#1452 = PLANE('',#1453);
#1453 = AXIS2_PLACEMENT_3D('',#1454,#1455,#1456);
#1454 = CARTESIAN_POINT('',(7.4,-18.1,0.8));
#1455 = DIRECTION('',(-2.2E-16,0.,-1.));
#1456 = DIRECTION('',(0.,1.,0.));
#1457 = ADVANCED_FACE('',(#1458),#1477,.F.);
#1458 = FACE_BOUND('',#1459,.F.);
#1459 = EDGE_LOOP('',(#1460,#1468,#1469,#1470,#1471));
#1460 = ORIENTED_EDGE('',*,*,#1461,.T.);
#1461 = EDGE_CURVE('',#1462,#643,#1464,.T.);
#1462 = VERTEX_POINT('',#1463);
#1463 = CARTESIAN_POINT('',(7.4,-18.1,3.6));
#1464 = LINE('',#1465,#1466);
#1465 = CARTESIAN_POINT('',(7.4,-18.1,3.6));
#1466 = VECTOR('',#1467,1.);
#1467 = DIRECTION('',(-1.,0.,2.2E-16));
#1468 = ORIENTED_EDGE('',*,*,#650,.F.);
#1469 = ORIENTED_EDGE('',*,*,#1445,.F.);
#1470 = ORIENTED_EDGE('',*,*,#395,.F.);
#1471 = ORIENTED_EDGE('',*,*,#1472,.F.);
#1472 = EDGE_CURVE('',#1462,#388,#1473,.T.);
#1473 = LINE('',#1474,#1475);
#1474 = CARTESIAN_POINT('',(7.4,-18.1,3.6));
#1475 = VECTOR('',#1476,1.);
#1476 = DIRECTION('',(-2.2E-16,2.2E-16,-1.));
#1477 = PLANE('',#1478);
#1478 = AXIS2_PLACEMENT_3D('',#1479,#1480,#1481);
#1479 = CARTESIAN_POINT('',(7.4,-18.1,3.6));
#1480 = DIRECTION('',(0.,-1.,0.));
#1481 = DIRECTION('',(-2.2E-16,-0.,-1.));
#1482 = ADVANCED_FACE('',(#1483),#1489,.T.);
#1483 = FACE_BOUND('',#1484,.F.);
#1484 = EDGE_LOOP('',(#1485,#1486,#1487,#1488));
#1485 = ORIENTED_EDGE('',*,*,#1327,.T.);
#1486 = ORIENTED_EDGE('',*,*,#1343,.T.);
#1487 = ORIENTED_EDGE('',*,*,#1038,.F.);
#1488 = ORIENTED_EDGE('',*,*,#491,.F.);
#1489 = CYLINDRICAL_SURFACE('',#1490,4.);
#1490 = AXIS2_PLACEMENT_3D('',#1491,#1492,#1493);
#1491 = CARTESIAN_POINT('',(10.,-16.,5.));
#1492 = DIRECTION('',(0.,0.,1.));
#1493 = DIRECTION('',(1.,0.,0.));
#1494 = ADVANCED_FACE('',(#1495),#1514,.F.);
#1495 = FACE_BOUND('',#1496,.F.);
#1496 = EDGE_LOOP('',(#1497,#1506,#1512,#1513));
#1497 = ORIENTED_EDGE('',*,*,#1498,.F.);
#1498 = EDGE_CURVE('',#1499,#1499,#1501,.T.);
#1499 = VERTEX_POINT('',#1500);
#1500 = CARTESIAN_POINT('',(10.4,-16.,3.6));
#1501 = CIRCLE('',#1502,1.4);
#1502 = AXIS2_PLACEMENT_3D('',#1503,#1504,#1505);
#1503 = CARTESIAN_POINT('',(9.,-16.,3.6));
#1504 = DIRECTION('',(0.,2.2E-16,-1.));
#1505 = DIRECTION('',(1.,0.,0.));
#1506 = ORIENTED_EDGE('',*,*,#1507,.T.);
#1507 = EDGE_CURVE('',#1499,#510,#1508,.T.);
#1508 = LINE('',#1509,#1510);
#1509 = CARTESIAN_POINT('',(10.4,-16.,3.6));
#1510 = VECTOR('',#1511,1.);
#1511 = DIRECTION('',(0.,0.,1.));
#1512 = ORIENTED_EDGE('',*,*,#509,.T.);
#1513 = ORIENTED_EDGE('',*,*,#1507,.F.);
#1514 = CYLINDRICAL_SURFACE('',#1515,1.4);
#1515 = AXIS2_PLACEMENT_3D('',#1516,#1517,#1518);
#1516 = CARTESIAN_POINT('',(9.,-16.,3.6));
#1517 = DIRECTION('',(0.,0.,-1.));
#1518 = DIRECTION('',(1.,0.,0.));
#1519 = ADVANCED_FACE('',(#1520),#1532,.F.);
#1520 = FACE_BOUND('',#1521,.F.);
#1521 = EDGE_LOOP('',(#1522,#1523,#1524,#1525));
#1522 = ORIENTED_EDGE('',*,*,#858,.F.);
#1523 = ORIENTED_EDGE('',*,*,#673,.F.);
#1524 = ORIENTED_EDGE('',*,*,#535,.T.);
#1525 = ORIENTED_EDGE('',*,*,#1526,.T.);
#1526 = EDGE_CURVE('',#536,#851,#1527,.T.);
#1527 = CIRCLE('',#1528,2.);
#1528 = AXIS2_PLACEMENT_3D('',#1529,#1530,#1531);
#1529 = CARTESIAN_POINT('',(4.,-0.9,-3.2));
#1530 = DIRECTION('',(-0.,1.,2.2E-16));
#1531 = DIRECTION('',(1.,0.,0.));
#1532 = PLANE('',#1533);
#1533 = AXIS2_PLACEMENT_3D('',#1534,#1535,#1536);
#1534 = CARTESIAN_POINT('',(6.2,-0.9,-5.2));
#1535 = DIRECTION('',(-3.E-17,-1.,0.));
#1536 = DIRECTION('',(-1.,3.E-17,0.));
#1537 = ADVANCED_FACE('',(#1538),#1550,.F.);
#1538 = FACE_BOUND('',#1539,.F.);
#1539 = EDGE_LOOP('',(#1540,#1541,#1542,#1549));
#1540 = ORIENTED_EDGE('',*,*,#1526,.F.);
#1541 = ORIENTED_EDGE('',*,*,#543,.T.);
#1542 = ORIENTED_EDGE('',*,*,#1543,.T.);
#1543 = EDGE_CURVE('',#544,#843,#1544,.T.);
#1544 = CIRCLE('',#1545,2.);
#1545 = AXIS2_PLACEMENT_3D('',#1546,#1547,#1548);
#1546 = CARTESIAN_POINT('',(4.,-4.9,-3.2));
#1547 = DIRECTION('',(-0.,1.,2.2E-16));
#1548 = DIRECTION('',(1.,0.,0.));
#1549 = ORIENTED_EDGE('',*,*,#850,.F.);
#1550 = CYLINDRICAL_SURFACE('',#1551,2.);
#1551 = AXIS2_PLACEMENT_3D('',#1552,#1553,#1554);
#1552 = CARTESIAN_POINT('',(4.,-0.9,-3.2));
#1553 = DIRECTION('',(0.,1.,2.2E-16));
#1554 = DIRECTION('',(1.,0.,0.));
#1555 = ADVANCED_FACE('',(#1556),#1568,.F.);
#1556 = FACE_BOUND('',#1557,.F.);
#1557 = EDGE_LOOP('',(#1558,#1565,#1566,#1567));
#1558 = ORIENTED_EDGE('',*,*,#1559,.F.);
#1559 = EDGE_CURVE('',#600,#787,#1560,.T.);
#1560 = CIRCLE('',#1561,2.);
#1561 = AXIS2_PLACEMENT_3D('',#1562,#1563,#1564);
#1562 = CARTESIAN_POINT('',(4.,-9.1,-3.2));
#1563 = DIRECTION('',(-0.,1.,2.2E-16));
#1564 = DIRECTION('',(1.,0.,0.));
#1565 = ORIENTED_EDGE('',*,*,#607,.T.);
#1566 = ORIENTED_EDGE('',*,*,#1046,.T.);
#1567 = ORIENTED_EDGE('',*,*,#786,.F.);
#1568 = CYLINDRICAL_SURFACE('',#1569,2.);
#1569 = AXIS2_PLACEMENT_3D('',#1570,#1571,#1572);
#1570 = CARTESIAN_POINT('',(4.,-0.9,-3.2));
#1571 = DIRECTION('',(0.,1.,2.2E-16));
#1572 = DIRECTION('',(1.,0.,0.));
#1573 = ADVANCED_FACE('',(#1574),#1586,.F.);
#1574 = FACE_BOUND('',#1575,.F.);
#1575 = EDGE_LOOP('',(#1576,#1577,#1578,#1579));
#1576 = ORIENTED_EDGE('',*,*,#842,.F.);
#1577 = ORIENTED_EDGE('',*,*,#1543,.F.);
#1578 = ORIENTED_EDGE('',*,*,#551,.T.);
#1579 = ORIENTED_EDGE('',*,*,#1580,.T.);
#1580 = EDGE_CURVE('',#552,#835,#1581,.T.);
#1581 = CIRCLE('',#1582,1.);
#1582 = AXIS2_PLACEMENT_3D('',#1583,#1584,#1585);
#1583 = CARTESIAN_POINT('',(5.,-4.9,-4.2));
#1584 = DIRECTION('',(0.,1.,-2.2E-16));
#1585 = DIRECTION('',(1.,0.,0.));
#1586 = PLANE('',#1587);
#1587 = AXIS2_PLACEMENT_3D('',#1588,#1589,#1590);
#1588 = CARTESIAN_POINT('',(-6.2,-4.9,-5.2));
#1589 = DIRECTION('',(0.,1.,0.));
#1590 = DIRECTION('',(1.,0.,0.));
#1591 = ADVANCED_FACE('',(#1592),#1604,.F.);
#1592 = FACE_BOUND('',#1593,.F.);
#1593 = EDGE_LOOP('',(#1594,#1595,#1602,#1603));
#1594 = ORIENTED_EDGE('',*,*,#794,.F.);
#1595 = ORIENTED_EDGE('',*,*,#1596,.F.);
#1596 = EDGE_CURVE('',#592,#795,#1597,.T.);
#1597 = CIRCLE('',#1598,1.);
#1598 = AXIS2_PLACEMENT_3D('',#1599,#1600,#1601);
#1599 = CARTESIAN_POINT('',(5.,-9.1,-4.2));
#1600 = DIRECTION('',(0.,1.,-2.2E-16));
#1601 = DIRECTION('',(1.,0.,0.));
#1602 = ORIENTED_EDGE('',*,*,#599,.T.);
#1603 = ORIENTED_EDGE('',*,*,#1559,.T.);
#1604 = PLANE('',#1605);
#1605 = AXIS2_PLACEMENT_3D('',#1606,#1607,#1608);
#1606 = CARTESIAN_POINT('',(6.199999999997,-9.1,-5.2));
#1607 = DIRECTION('',(0.,-1.,0.));
#1608 = DIRECTION('',(-1.,0.,0.));
#1609 = ADVANCED_FACE('',(#1610),#1622,.F.);
#1610 = FACE_BOUND('',#1611,.T.);
#1611 = EDGE_LOOP('',(#1612,#1613,#1614,#1621));
#1612 = ORIENTED_EDGE('',*,*,#1580,.T.);
#1613 = ORIENTED_EDGE('',*,*,#834,.T.);
#1614 = ORIENTED_EDGE('',*,*,#1615,.F.);
#1615 = EDGE_CURVE('',#560,#827,#1616,.T.);
#1616 = CIRCLE('',#1617,1.);
#1617 = AXIS2_PLACEMENT_3D('',#1618,#1619,#1620);
#1618 = CARTESIAN_POINT('',(5.,-5.9,-4.2));
#1619 = DIRECTION('',(0.,1.,-2.2E-16));
#1620 = DIRECTION('',(1.,0.,0.));
#1621 = ORIENTED_EDGE('',*,*,#559,.F.);
#1622 = CYLINDRICAL_SURFACE('',#1623,1.);
#1623 = AXIS2_PLACEMENT_3D('',#1624,#1625,#1626);
#1624 = CARTESIAN_POINT('',(5.,-9.3E-16,-4.2));
#1625 = DIRECTION('',(0.,1.,-2.2E-16));
#1626 = DIRECTION('',(1.,0.,0.));
#1627 = ADVANCED_FACE('',(#1628),#1640,.F.);
#1628 = FACE_BOUND('',#1629,.T.);
#1629 = EDGE_LOOP('',(#1630,#1637,#1638,#1639));
#1630 = ORIENTED_EDGE('',*,*,#1631,.T.);
#1631 = EDGE_CURVE('',#584,#803,#1632,.T.);
#1632 = CIRCLE('',#1633,1.);
#1633 = AXIS2_PLACEMENT_3D('',#1634,#1635,#1636);
#1634 = CARTESIAN_POINT('',(5.,-8.1,-4.2));
#1635 = DIRECTION('',(0.,1.,-2.2E-16));
#1636 = DIRECTION('',(1.,0.,0.));
#1637 = ORIENTED_EDGE('',*,*,#802,.T.);
#1638 = ORIENTED_EDGE('',*,*,#1596,.F.);
#1639 = ORIENTED_EDGE('',*,*,#591,.F.);
#1640 = CYLINDRICAL_SURFACE('',#1641,1.);
#1641 = AXIS2_PLACEMENT_3D('',#1642,#1643,#1644);
#1642 = CARTESIAN_POINT('',(5.,-9.3E-16,-4.2));
#1643 = DIRECTION('',(0.,1.,-2.2E-16));
#1644 = DIRECTION('',(1.,0.,0.));
#1645 = ADVANCED_FACE('',(#1646),#1658,.F.);
#1646 = FACE_BOUND('',#1647,.F.);
#1647 = EDGE_LOOP('',(#1648,#1649,#1650,#1651));
#1648 = ORIENTED_EDGE('',*,*,#826,.F.);
#1649 = ORIENTED_EDGE('',*,*,#1615,.F.);
#1650 = ORIENTED_EDGE('',*,*,#567,.T.);
#1651 = ORIENTED_EDGE('',*,*,#1652,.T.);
#1652 = EDGE_CURVE('',#568,#819,#1653,.T.);
#1653 = CIRCLE('',#1654,2.);
#1654 = AXIS2_PLACEMENT_3D('',#1655,#1656,#1657);
#1655 = CARTESIAN_POINT('',(4.,-5.9,-3.2));
#1656 = DIRECTION('',(-0.,1.,2.2E-16));
#1657 = DIRECTION('',(1.,0.,0.));
#1658 = PLANE('',#1659);
#1659 = AXIS2_PLACEMENT_3D('',#1660,#1661,#1662);
#1660 = CARTESIAN_POINT('',(6.199999999997,-5.9,-5.2));
#1661 = DIRECTION('',(0.,-1.,0.));
#1662 = DIRECTION('',(-1.,0.,0.));
#1663 = ADVANCED_FACE('',(#1664),#1676,.F.);
#1664 = FACE_BOUND('',#1665,.F.);
#1665 = EDGE_LOOP('',(#1666,#1667,#1674,#1675));
#1666 = ORIENTED_EDGE('',*,*,#810,.F.);
#1667 = ORIENTED_EDGE('',*,*,#1668,.F.);
#1668 = EDGE_CURVE('',#576,#811,#1669,.T.);
#1669 = CIRCLE('',#1670,2.);
#1670 = AXIS2_PLACEMENT_3D('',#1671,#1672,#1673);
#1671 = CARTESIAN_POINT('',(4.,-8.1,-3.2));
#1672 = DIRECTION('',(-0.,1.,2.2E-16));
#1673 = DIRECTION('',(1.,0.,0.));
#1674 = ORIENTED_EDGE('',*,*,#583,.T.);
#1675 = ORIENTED_EDGE('',*,*,#1631,.T.);
#1676 = PLANE('',#1677);
#1677 = AXIS2_PLACEMENT_3D('',#1678,#1679,#1680);
#1678 = CARTESIAN_POINT('',(-6.2,-8.1,-5.2));
#1679 = DIRECTION('',(0.,1.,0.));
#1680 = DIRECTION('',(1.,0.,0.));
#1681 = ADVANCED_FACE('',(#1682),#1688,.F.);
#1682 = FACE_BOUND('',#1683,.F.);
#1683 = EDGE_LOOP('',(#1684,#1685,#1686,#1687));
#1684 = ORIENTED_EDGE('',*,*,#1652,.F.);
#1685 = ORIENTED_EDGE('',*,*,#575,.T.);
#1686 = ORIENTED_EDGE('',*,*,#1668,.T.);
#1687 = ORIENTED_EDGE('',*,*,#818,.F.);
#1688 = CYLINDRICAL_SURFACE('',#1689,2.);
#1689 = AXIS2_PLACEMENT_3D('',#1690,#1691,#1692);
#1690 = CARTESIAN_POINT('',(4.,-0.9,-3.2));
#1691 = DIRECTION('',(0.,1.,2.2E-16));
#1692 = DIRECTION('',(1.,0.,0.));
#1693 = ADVANCED_FACE('',(#1694),#1706,.F.);
#1694 = FACE_BOUND('',#1695,.F.);
#1695 = EDGE_LOOP('',(#1696,#1697,#1704,#1705));
#1696 = ORIENTED_EDGE('',*,*,#698,.F.);
#1697 = ORIENTED_EDGE('',*,*,#1698,.T.);
#1698 = EDGE_CURVE('',#699,#973,#1699,.T.);
#1699 = CIRCLE('',#1700,2.);
#1700 = AXIS2_PLACEMENT_3D('',#1701,#1702,#1703);
#1701 = CARTESIAN_POINT('',(-4.,-0.9,-3.2));
#1702 = DIRECTION('',(-0.,1.,2.2E-16));
#1703 = DIRECTION('',(1.,0.,0.));
#1704 = ORIENTED_EDGE('',*,*,#980,.T.);
#1705 = ORIENTED_EDGE('',*,*,#882,.F.);
#1706 = PLANE('',#1707);
#1707 = AXIS2_PLACEMENT_3D('',#1708,#1709,#1710);
#1708 = CARTESIAN_POINT('',(6.2,-0.9,-5.2));
#1709 = DIRECTION('',(-3.E-17,-1.,0.));
#1710 = DIRECTION('',(-1.,3.E-17,0.));
#1711 = ADVANCED_FACE('',(#1712),#1724,.F.);
#1712 = FACE_BOUND('',#1713,.F.);
#1713 = EDGE_LOOP('',(#1714,#1715,#1716,#1723));
#1714 = ORIENTED_EDGE('',*,*,#1698,.F.);
#1715 = ORIENTED_EDGE('',*,*,#706,.T.);
#1716 = ORIENTED_EDGE('',*,*,#1717,.T.);
#1717 = EDGE_CURVE('',#707,#965,#1718,.T.);
#1718 = CIRCLE('',#1719,2.);
#1719 = AXIS2_PLACEMENT_3D('',#1720,#1721,#1722);
#1720 = CARTESIAN_POINT('',(-4.,-4.9,-3.2));
#1721 = DIRECTION('',(-0.,1.,2.2E-16));
#1722 = DIRECTION('',(1.,0.,0.));
#1723 = ORIENTED_EDGE('',*,*,#972,.F.);
#1724 = CYLINDRICAL_SURFACE('',#1725,2.);
#1725 = AXIS2_PLACEMENT_3D('',#1726,#1727,#1728);
#1726 = CARTESIAN_POINT('',(-4.,-0.9,-3.2));
#1727 = DIRECTION('',(0.,1.,2.2E-16));
#1728 = DIRECTION('',(1.,0.,0.));
#1729 = ADVANCED_FACE('',(#1730),#1742,.F.);
#1730 = FACE_BOUND('',#1731,.F.);
#1731 = EDGE_LOOP('',(#1732,#1733,#1740,#1741));
#1732 = ORIENTED_EDGE('',*,*,#714,.F.);
#1733 = ORIENTED_EDGE('',*,*,#1734,.T.);
#1734 = EDGE_CURVE('',#715,#957,#1735,.T.);
#1735 = CIRCLE('',#1736,1.);
#1736 = AXIS2_PLACEMENT_3D('',#1737,#1738,#1739);
#1737 = CARTESIAN_POINT('',(-5.,-4.9,-4.2));
#1738 = DIRECTION('',(0.,1.,-2.2E-16));
#1739 = DIRECTION('',(1.,0.,0.));
#1740 = ORIENTED_EDGE('',*,*,#964,.T.);
#1741 = ORIENTED_EDGE('',*,*,#1717,.F.);
#1742 = PLANE('',#1743);
#1743 = AXIS2_PLACEMENT_3D('',#1744,#1745,#1746);
#1744 = CARTESIAN_POINT('',(-6.2,-4.9,-5.2));
#1745 = DIRECTION('',(0.,1.,0.));
#1746 = DIRECTION('',(1.,0.,0.));
#1747 = ADVANCED_FACE('',(#1748),#1760,.F.);
#1748 = FACE_BOUND('',#1749,.T.);
#1749 = EDGE_LOOP('',(#1750,#1751,#1752,#1759));
#1750 = ORIENTED_EDGE('',*,*,#1734,.T.);
#1751 = ORIENTED_EDGE('',*,*,#956,.T.);
#1752 = ORIENTED_EDGE('',*,*,#1753,.F.);
#1753 = EDGE_CURVE('',#723,#949,#1754,.T.);
#1754 = CIRCLE('',#1755,1.);
#1755 = AXIS2_PLACEMENT_3D('',#1756,#1757,#1758);
#1756 = CARTESIAN_POINT('',(-5.,-5.9,-4.2));
#1757 = DIRECTION('',(0.,1.,-2.2E-16));
#1758 = DIRECTION('',(1.,0.,0.));
#1759 = ORIENTED_EDGE('',*,*,#722,.F.);
#1760 = CYLINDRICAL_SURFACE('',#1761,1.);
#1761 = AXIS2_PLACEMENT_3D('',#1762,#1763,#1764);
#1762 = CARTESIAN_POINT('',(-5.,-9.3E-16,-4.2));
#1763 = DIRECTION('',(0.,1.,-2.2E-16));
#1764 = DIRECTION('',(1.,0.,0.));
#1765 = ADVANCED_FACE('',(#1766),#1778,.F.);
#1766 = FACE_BOUND('',#1767,.F.);
#1767 = EDGE_LOOP('',(#1768,#1769,#1776,#1777));
#1768 = ORIENTED_EDGE('',*,*,#730,.F.);
#1769 = ORIENTED_EDGE('',*,*,#1770,.T.);
#1770 = EDGE_CURVE('',#731,#941,#1771,.T.);
#1771 = CIRCLE('',#1772,2.);
#1772 = AXIS2_PLACEMENT_3D('',#1773,#1774,#1775);
#1773 = CARTESIAN_POINT('',(-4.,-5.9,-3.2));
#1774 = DIRECTION('',(-0.,1.,2.2E-16));
#1775 = DIRECTION('',(1.,0.,0.));
#1776 = ORIENTED_EDGE('',*,*,#948,.T.);
#1777 = ORIENTED_EDGE('',*,*,#1753,.F.);
#1778 = PLANE('',#1779);
#1779 = AXIS2_PLACEMENT_3D('',#1780,#1781,#1782);
#1780 = CARTESIAN_POINT('',(6.199999999997,-5.9,-5.2));
#1781 = DIRECTION('',(0.,-1.,0.));
#1782 = DIRECTION('',(-1.,0.,0.));
#1783 = ADVANCED_FACE('',(#1784),#1796,.F.);
#1784 = FACE_BOUND('',#1785,.F.);
#1785 = EDGE_LOOP('',(#1786,#1787,#1788,#1795));
#1786 = ORIENTED_EDGE('',*,*,#1770,.F.);
#1787 = ORIENTED_EDGE('',*,*,#738,.T.);
#1788 = ORIENTED_EDGE('',*,*,#1789,.T.);
#1789 = EDGE_CURVE('',#739,#933,#1790,.T.);
#1790 = CIRCLE('',#1791,2.);
#1791 = AXIS2_PLACEMENT_3D('',#1792,#1793,#1794);
#1792 = CARTESIAN_POINT('',(-4.,-8.1,-3.2));
#1793 = DIRECTION('',(-0.,1.,2.2E-16));
#1794 = DIRECTION('',(1.,0.,0.));
#1795 = ORIENTED_EDGE('',*,*,#940,.F.);
#1796 = CYLINDRICAL_SURFACE('',#1797,2.);
#1797 = AXIS2_PLACEMENT_3D('',#1798,#1799,#1800);
#1798 = CARTESIAN_POINT('',(-4.,-0.9,-3.2));
#1799 = DIRECTION('',(0.,1.,2.2E-16));
#1800 = DIRECTION('',(1.,0.,0.));
#1801 = ADVANCED_FACE('',(#1802),#1814,.F.);
#1802 = FACE_BOUND('',#1803,.F.);
#1803 = EDGE_LOOP('',(#1804,#1805,#1812,#1813));
#1804 = ORIENTED_EDGE('',*,*,#746,.F.);
#1805 = ORIENTED_EDGE('',*,*,#1806,.T.);
#1806 = EDGE_CURVE('',#747,#925,#1807,.T.);
#1807 = CIRCLE('',#1808,1.);
#1808 = AXIS2_PLACEMENT_3D('',#1809,#1810,#1811);
#1809 = CARTESIAN_POINT('',(-5.,-8.1,-4.2));
#1810 = DIRECTION('',(0.,1.,-2.2E-16));
#1811 = DIRECTION('',(1.,0.,0.));
#1812 = ORIENTED_EDGE('',*,*,#932,.T.);
#1813 = ORIENTED_EDGE('',*,*,#1789,.F.);
#1814 = PLANE('',#1815);
#1815 = AXIS2_PLACEMENT_3D('',#1816,#1817,#1818);
#1816 = CARTESIAN_POINT('',(-6.2,-8.1,-5.2));
#1817 = DIRECTION('',(0.,1.,0.));
#1818 = DIRECTION('',(1.,0.,0.));
#1819 = ADVANCED_FACE('',(#1820),#1832,.F.);
#1820 = FACE_BOUND('',#1821,.T.);
#1821 = EDGE_LOOP('',(#1822,#1823,#1824,#1831));
#1822 = ORIENTED_EDGE('',*,*,#1806,.T.);
#1823 = ORIENTED_EDGE('',*,*,#924,.T.);
#1824 = ORIENTED_EDGE('',*,*,#1825,.F.);
#1825 = EDGE_CURVE('',#755,#917,#1826,.T.);
#1826 = CIRCLE('',#1827,1.);
#1827 = AXIS2_PLACEMENT_3D('',#1828,#1829,#1830);
#1828 = CARTESIAN_POINT('',(-5.,-9.1,-4.2));
#1829 = DIRECTION('',(0.,1.,-2.2E-16));
#1830 = DIRECTION('',(1.,0.,0.));
#1831 = ORIENTED_EDGE('',*,*,#754,.F.);
#1832 = CYLINDRICAL_SURFACE('',#1833,1.);
#1833 = AXIS2_PLACEMENT_3D('',#1834,#1835,#1836);
#1834 = CARTESIAN_POINT('',(-5.,-9.3E-16,-4.2));
#1835 = DIRECTION('',(0.,1.,-2.2E-16));
#1836 = DIRECTION('',(1.,0.,0.));
#1837 = ADVANCED_FACE('',(#1838),#1850,.F.);
#1838 = FACE_BOUND('',#1839,.F.);
#1839 = EDGE_LOOP('',(#1840,#1841,#1848,#1849));
#1840 = ORIENTED_EDGE('',*,*,#762,.F.);
#1841 = ORIENTED_EDGE('',*,*,#1842,.T.);
#1842 = EDGE_CURVE('',#763,#909,#1843,.T.);
#1843 = CIRCLE('',#1844,2.);
#1844 = AXIS2_PLACEMENT_3D('',#1845,#1846,#1847);
#1845 = CARTESIAN_POINT('',(-4.,-9.1,-3.2));
#1846 = DIRECTION('',(-0.,1.,2.2E-16));
#1847 = DIRECTION('',(1.,0.,0.));
#1848 = ORIENTED_EDGE('',*,*,#916,.T.);
#1849 = ORIENTED_EDGE('',*,*,#1825,.F.);
#1850 = PLANE('',#1851);
#1851 = AXIS2_PLACEMENT_3D('',#1852,#1853,#1854);
#1852 = CARTESIAN_POINT('',(6.199999999997,-9.1,-5.2));
#1853 = DIRECTION('',(0.,-1.,0.));
#1854 = DIRECTION('',(-1.,0.,0.));
#1855 = ADVANCED_FACE('',(#1856),#1862,.F.);
#1856 = FACE_BOUND('',#1857,.F.);
#1857 = EDGE_LOOP('',(#1858,#1859,#1860,#1861));
#1858 = ORIENTED_EDGE('',*,*,#1842,.F.);
#1859 = ORIENTED_EDGE('',*,*,#770,.T.);
#1860 = ORIENTED_EDGE('',*,*,#1054,.T.);
#1861 = ORIENTED_EDGE('',*,*,#908,.F.);
#1862 = CYLINDRICAL_SURFACE('',#1863,2.);
#1863 = AXIS2_PLACEMENT_3D('',#1864,#1865,#1866);
#1864 = CARTESIAN_POINT('',(-4.,-0.9,-3.2));
#1865 = DIRECTION('',(0.,1.,2.2E-16));
#1866 = DIRECTION('',(1.,0.,0.));
#1867 = ADVANCED_FACE('',(#1868),#1886,.F.);
#1868 = FACE_BOUND('',#1869,.F.);
#1869 = EDGE_LOOP('',(#1870,#1871,#1879,#1885));
#1870 = ORIENTED_EDGE('',*,*,#1217,.F.);
#1871 = ORIENTED_EDGE('',*,*,#1872,.T.);
#1872 = EDGE_CURVE('',#1210,#1873,#1875,.T.);
#1873 = VERTEX_POINT('',#1874);
#1874 = CARTESIAN_POINT('',(-9.,-13.,3.6));
#1875 = LINE('',#1876,#1877);
#1876 = CARTESIAN_POINT('',(-9.,-13.,1.6));
#1877 = VECTOR('',#1878,1.);
#1878 = DIRECTION('',(0.,0.,1.));
#1879 = ORIENTED_EDGE('',*,*,#1880,.T.);
#1880 = EDGE_CURVE('',#1873,#1295,#1881,.T.);
#1881 = LINE('',#1882,#1883);
#1882 = CARTESIAN_POINT('',(-9.,-13.,3.6));
#1883 = VECTOR('',#1884,1.);
#1884 = DIRECTION('',(0.866025403785,-0.499999999999,-1.1E-16));
#1885 = ORIENTED_EDGE('',*,*,#1294,.F.);
#1886 = PLANE('',#1887);
#1887 = AXIS2_PLACEMENT_3D('',#1888,#1889,#1890);
#1888 = CARTESIAN_POINT('',(-9.,-13.,1.6));
#1889 = DIRECTION('',(0.499999999999,0.866025403785,0.));
#1890 = DIRECTION('',(0.866025403785,-0.499999999999,0.));
#1891 = ADVANCED_FACE('',(#1892),#1910,.F.);
#1892 = FACE_BOUND('',#1893,.F.);
#1893 = EDGE_LOOP('',(#1894,#1902,#1908,#1909));
#1894 = ORIENTED_EDGE('',*,*,#1895,.T.);
#1895 = EDGE_CURVE('',#1202,#1896,#1898,.T.);
#1896 = VERTEX_POINT('',#1897);
#1897 = CARTESIAN_POINT('',(-11.59807621135,-14.5,3.6));
#1898 = LINE('',#1899,#1900);
#1899 = CARTESIAN_POINT('',(-11.59807621135,-14.5,1.6));
#1900 = VECTOR('',#1901,1.);
#1901 = DIRECTION('',(0.,0.,1.));
#1902 = ORIENTED_EDGE('',*,*,#1903,.T.);
#1903 = EDGE_CURVE('',#1896,#1873,#1904,.T.);
#1904 = LINE('',#1905,#1906);
#1905 = CARTESIAN_POINT('',(-11.59807621135,-14.5,3.6));
#1906 = VECTOR('',#1907,1.);
#1907 = DIRECTION('',(0.866025403784,0.5,1.1E-16));
#1908 = ORIENTED_EDGE('',*,*,#1872,.F.);
#1909 = ORIENTED_EDGE('',*,*,#1209,.F.);
#1910 = PLANE('',#1911);
#1911 = AXIS2_PLACEMENT_3D('',#1912,#1913,#1914);
#1912 = CARTESIAN_POINT('',(-11.59807621135,-14.5,1.6));
#1913 = DIRECTION('',(-0.5,0.866025403784,0.));
#1914 = DIRECTION('',(0.866025403784,0.5,0.));
#1915 = ADVANCED_FACE('',(#1916),#1934,.F.);
#1916 = FACE_BOUND('',#1917,.F.);
#1917 = EDGE_LOOP('',(#1918,#1926,#1932,#1933));
#1918 = ORIENTED_EDGE('',*,*,#1919,.T.);
#1919 = EDGE_CURVE('',#1194,#1920,#1922,.T.);
#1920 = VERTEX_POINT('',#1921);
#1921 = CARTESIAN_POINT('',(-11.59807621135,-17.5,3.6));
#1922 = LINE('',#1923,#1924);
#1923 = CARTESIAN_POINT('',(-11.59807621135,-17.5,1.6));
#1924 = VECTOR('',#1925,1.);
#1925 = DIRECTION('',(0.,0.,1.));
#1926 = ORIENTED_EDGE('',*,*,#1927,.T.);
#1927 = EDGE_CURVE('',#1920,#1896,#1928,.T.);
#1928 = LINE('',#1929,#1930);
#1929 = CARTESIAN_POINT('',(-11.59807621135,-17.5,3.6));
#1930 = VECTOR('',#1931,1.);
#1931 = DIRECTION('',(0.,1.,2.2E-16));
#1932 = ORIENTED_EDGE('',*,*,#1895,.F.);
#1933 = ORIENTED_EDGE('',*,*,#1201,.F.);
#1934 = PLANE('',#1935);
#1935 = AXIS2_PLACEMENT_3D('',#1936,#1937,#1938);
#1936 = CARTESIAN_POINT('',(-11.59807621135,-17.5,1.6));
#1937 = DIRECTION('',(-1.,0.,0.));
#1938 = DIRECTION('',(0.,1.,0.));
#1939 = ADVANCED_FACE('',(#1940),#1958,.F.);
#1940 = FACE_BOUND('',#1941,.F.);
#1941 = EDGE_LOOP('',(#1942,#1950,#1956,#1957));
#1942 = ORIENTED_EDGE('',*,*,#1943,.T.);
#1943 = EDGE_CURVE('',#1186,#1944,#1946,.T.);
#1944 = VERTEX_POINT('',#1945);
#1945 = CARTESIAN_POINT('',(-9.,-19.,3.6));
#1946 = LINE('',#1947,#1948);
#1947 = CARTESIAN_POINT('',(-9.,-19.,1.6));
#1948 = VECTOR('',#1949,1.);
#1949 = DIRECTION('',(0.,0.,1.));
#1950 = ORIENTED_EDGE('',*,*,#1951,.T.);
#1951 = EDGE_CURVE('',#1944,#1920,#1952,.T.);
#1952 = LINE('',#1953,#1954);
#1953 = CARTESIAN_POINT('',(-9.,-19.,3.6));
#1954 = VECTOR('',#1955,1.);
#1955 = DIRECTION('',(-0.866025403784,0.5,1.1E-16));
#1956 = ORIENTED_EDGE('',*,*,#1919,.F.);
#1957 = ORIENTED_EDGE('',*,*,#1193,.F.);
#1958 = PLANE('',#1959);
#1959 = AXIS2_PLACEMENT_3D('',#1960,#1961,#1962);
#1960 = CARTESIAN_POINT('',(-9.,-19.,1.6));
#1961 = DIRECTION('',(-0.5,-0.866025403784,0.));
#1962 = DIRECTION('',(-0.866025403784,0.5,0.));
#1963 = ADVANCED_FACE('',(#1964),#1975,.F.);
#1964 = FACE_BOUND('',#1965,.F.);
#1965 = EDGE_LOOP('',(#1966,#1967,#1973,#1974));
#1966 = ORIENTED_EDGE('',*,*,#1250,.F.);
#1967 = ORIENTED_EDGE('',*,*,#1968,.T.);
#1968 = EDGE_CURVE('',#1243,#1944,#1969,.T.);
#1969 = LINE('',#1970,#1971);
#1970 = CARTESIAN_POINT('',(-6.401923788643,-17.49999999999,3.6));
#1971 = VECTOR('',#1972,1.);
#1972 = DIRECTION('',(-0.866025403784,-0.500000000001,-1.1E-16));
#1973 = ORIENTED_EDGE('',*,*,#1943,.F.);
#1974 = ORIENTED_EDGE('',*,*,#1185,.F.);
#1975 = PLANE('',#1976);
#1976 = AXIS2_PLACEMENT_3D('',#1977,#1978,#1979);
#1977 = CARTESIAN_POINT('',(-6.401923788643,-17.49999999999,1.6));
#1978 = DIRECTION('',(0.500000000001,-0.866025403784,0.));
#1979 = DIRECTION('',(-0.866025403784,-0.500000000001,0.));
#1980 = ADVANCED_FACE('',(#1981),#1999,.F.);
#1981 = FACE_BOUND('',#1982,.F.);
#1982 = EDGE_LOOP('',(#1983,#1984,#1985,#1993));
#1983 = ORIENTED_EDGE('',*,*,#1472,.T.);
#1984 = ORIENTED_EDGE('',*,*,#1400,.T.);
#1985 = ORIENTED_EDGE('',*,*,#1986,.T.);
#1986 = EDGE_CURVE('',#1393,#1987,#1989,.T.);
#1987 = VERTEX_POINT('',#1988);
#1988 = CARTESIAN_POINT('',(7.4,-18.07623956929,3.6));
#1989 = LINE('',#1990,#1991);
#1990 = CARTESIAN_POINT('',(7.4,-18.07623956929,1.9));
#1991 = VECTOR('',#1992,1.);
#1992 = DIRECTION('',(3.2E-16,-1.8E-16,1.));
#1993 = ORIENTED_EDGE('',*,*,#1994,.T.);
#1994 = EDGE_CURVE('',#1987,#1462,#1995,.T.);
#1995 = LINE('',#1996,#1997);
#1996 = CARTESIAN_POINT('',(7.4,-13.9,3.6));
#1997 = VECTOR('',#1998,1.);
#1998 = DIRECTION('',(2.2E-16,-1.,-2.2E-16));
#1999 = PLANE('',#2000);
#2000 = AXIS2_PLACEMENT_3D('',#2001,#2002,#2003);
#2001 = CARTESIAN_POINT('',(7.4,-16.,2.2));
#2002 = DIRECTION('',(1.,0.,-3.2E-16));
#2003 = DIRECTION('',(3.2E-16,-2.2E-16,1.));
#2004 = ADVANCED_FACE('',(#2005),#2023,.F.);
#2005 = FACE_BOUND('',#2006,.F.);
#2006 = EDGE_LOOP('',(#2007,#2008,#2016,#2022));
#2007 = ORIENTED_EDGE('',*,*,#1392,.F.);
#2008 = ORIENTED_EDGE('',*,*,#2009,.T.);
#2009 = EDGE_CURVE('',#1385,#2010,#2012,.T.);
#2010 = VERTEX_POINT('',#2011);
#2011 = CARTESIAN_POINT('',(9.,-19.,3.6));
#2012 = LINE('',#2013,#2014);
#2013 = CARTESIAN_POINT('',(9.,-19.,1.6));
#2014 = VECTOR('',#2015,1.);
#2015 = DIRECTION('',(0.,0.,1.));
#2016 = ORIENTED_EDGE('',*,*,#2017,.T.);
#2017 = EDGE_CURVE('',#2010,#1987,#2018,.T.);
#2018 = LINE('',#2019,#2020);
#2019 = CARTESIAN_POINT('',(9.,-19.,3.6));
#2020 = VECTOR('',#2021,1.);
#2021 = DIRECTION('',(-0.866025403784,0.5,1.1E-16));
#2022 = ORIENTED_EDGE('',*,*,#1986,.F.);
#2023 = PLANE('',#2024);
#2024 = AXIS2_PLACEMENT_3D('',#2025,#2026,#2027);
#2025 = CARTESIAN_POINT('',(9.,-19.,1.6));
#2026 = DIRECTION('',(-0.5,-0.866025403784,0.));
#2027 = DIRECTION('',(-0.866025403784,0.5,0.));
#2028 = ADVANCED_FACE('',(#2029),#2047,.F.);
#2029 = FACE_BOUND('',#2030,.F.);
#2030 = EDGE_LOOP('',(#2031,#2039,#2045,#2046));
#2031 = ORIENTED_EDGE('',*,*,#2032,.T.);
#2032 = EDGE_CURVE('',#1377,#2033,#2035,.T.);
#2033 = VERTEX_POINT('',#2034);
#2034 = CARTESIAN_POINT('',(11.59807621135,-17.5,3.6));
#2035 = LINE('',#2036,#2037);
#2036 = CARTESIAN_POINT('',(11.59807621135,-17.5,1.6));
#2037 = VECTOR('',#2038,1.);
#2038 = DIRECTION('',(0.,0.,1.));
#2039 = ORIENTED_EDGE('',*,*,#2040,.T.);
#2040 = EDGE_CURVE('',#2033,#2010,#2041,.T.);
#2041 = LINE('',#2042,#2043);
#2042 = CARTESIAN_POINT('',(11.59807621135,-17.5,3.6));
#2043 = VECTOR('',#2044,1.);
#2044 = DIRECTION('',(-0.866025403785,-0.499999999999,-1.1E-16));
#2045 = ORIENTED_EDGE('',*,*,#2009,.F.);
#2046 = ORIENTED_EDGE('',*,*,#1384,.F.);
#2047 = PLANE('',#2048);
#2048 = AXIS2_PLACEMENT_3D('',#2049,#2050,#2051);
#2049 = CARTESIAN_POINT('',(11.59807621135,-17.5,1.6));
#2050 = DIRECTION('',(0.499999999999,-0.866025403785,0.));
#2051 = DIRECTION('',(-0.866025403785,-0.499999999999,0.));
#2052 = ADVANCED_FACE('',(#2053),#2071,.F.);
#2053 = FACE_BOUND('',#2054,.F.);
#2054 = EDGE_LOOP('',(#2055,#2063,#2069,#2070));
#2055 = ORIENTED_EDGE('',*,*,#2056,.T.);
#2056 = EDGE_CURVE('',#1369,#2057,#2059,.T.);
#2057 = VERTEX_POINT('',#2058);
#2058 = CARTESIAN_POINT('',(11.598076211357,-14.5,3.6));
#2059 = LINE('',#2060,#2061);
#2060 = CARTESIAN_POINT('',(11.598076211357,-14.5,1.6));
#2061 = VECTOR('',#2062,1.);
#2062 = DIRECTION('',(0.,0.,1.));
#2063 = ORIENTED_EDGE('',*,*,#2064,.T.);
#2064 = EDGE_CURVE('',#2057,#2033,#2065,.T.);
#2065 = LINE('',#2066,#2067);
#2066 = CARTESIAN_POINT('',(11.598076211357,-14.5,3.6));
#2067 = VECTOR('',#2068,1.);
#2068 = DIRECTION('',(-2.4869E-12,-1.,-2.2E-16));
#2069 = ORIENTED_EDGE('',*,*,#2032,.F.);
#2070 = ORIENTED_EDGE('',*,*,#1376,.F.);
#2071 = PLANE('',#2072);
#2072 = AXIS2_PLACEMENT_3D('',#2073,#2074,#2075);
#2073 = CARTESIAN_POINT('',(11.598076211357,-14.5,1.6));
#2074 = DIRECTION('',(1.,-2.4869E-12,0.));
#2075 = DIRECTION('',(-2.4869E-12,-1.,0.));
#2076 = ADVANCED_FACE('',(#2077),#2095,.F.);
#2077 = FACE_BOUND('',#2078,.F.);
#2078 = EDGE_LOOP('',(#2079,#2087,#2093,#2094));
#2079 = ORIENTED_EDGE('',*,*,#2080,.T.);
#2080 = EDGE_CURVE('',#1361,#2081,#2083,.T.);
#2081 = VERTEX_POINT('',#2082);
#2082 = CARTESIAN_POINT('',(9.,-13.,3.6));
#2083 = LINE('',#2084,#2085);
#2084 = CARTESIAN_POINT('',(9.,-13.,1.6));
#2085 = VECTOR('',#2086,1.);
#2086 = DIRECTION('',(0.,0.,1.));
#2087 = ORIENTED_EDGE('',*,*,#2088,.T.);
#2088 = EDGE_CURVE('',#2081,#2057,#2089,.T.);
#2089 = LINE('',#2090,#2091);
#2090 = CARTESIAN_POINT('',(9.,-13.,3.6));
#2091 = VECTOR('',#2092,1.);
#2092 = DIRECTION('',(0.866025403784,-0.500000000001,-1.1E-16));
#2093 = ORIENTED_EDGE('',*,*,#2056,.F.);
#2094 = ORIENTED_EDGE('',*,*,#1368,.F.);
#2095 = PLANE('',#2096);
#2096 = AXIS2_PLACEMENT_3D('',#2097,#2098,#2099);
#2097 = CARTESIAN_POINT('',(9.,-13.,1.6));
#2098 = DIRECTION('',(0.500000000001,0.866025403784,0.));
#2099 = DIRECTION('',(0.866025403784,-0.500000000001,0.));
#2100 = ADVANCED_FACE('',(#2101),#2119,.F.);
#2101 = FACE_BOUND('',#2102,.F.);
#2102 = EDGE_LOOP('',(#2103,#2104,#2112,#2118));
#2103 = ORIENTED_EDGE('',*,*,#1360,.F.);
#2104 = ORIENTED_EDGE('',*,*,#2105,.F.);
#2105 = EDGE_CURVE('',#2106,#1353,#2108,.T.);
#2106 = VERTEX_POINT('',#2107);
#2107 = CARTESIAN_POINT('',(7.4,-13.9237604307,3.6));
#2108 = LINE('',#2109,#2110);
#2109 = CARTESIAN_POINT('',(7.4,-13.9237604307,1.9));
#2110 = VECTOR('',#2111,1.);
#2111 = DIRECTION('',(-3.2E-16,-1.8E-16,-1.));
#2112 = ORIENTED_EDGE('',*,*,#2113,.T.);
#2113 = EDGE_CURVE('',#2106,#2081,#2114,.T.);
#2114 = LINE('',#2115,#2116);
#2115 = CARTESIAN_POINT('',(6.401923788647,-14.5,3.6));
#2116 = VECTOR('',#2117,1.);
#2117 = DIRECTION('',(0.866025403784,0.5,1.1E-16));
#2118 = ORIENTED_EDGE('',*,*,#2080,.F.);
#2119 = PLANE('',#2120);
#2120 = AXIS2_PLACEMENT_3D('',#2121,#2122,#2123);
#2121 = CARTESIAN_POINT('',(6.401923788647,-14.5,1.6));
#2122 = DIRECTION('',(-0.5,0.866025403784,0.));
#2123 = DIRECTION('',(0.866025403784,0.5,0.));
#2124 = ADVANCED_FACE('',(#2125),#2136,.F.);
#2125 = FACE_BOUND('',#2126,.F.);
#2126 = EDGE_LOOP('',(#2127,#2128,#2129,#2135));
#2127 = ORIENTED_EDGE('',*,*,#1352,.T.);
#2128 = ORIENTED_EDGE('',*,*,#1430,.T.);
#2129 = ORIENTED_EDGE('',*,*,#2130,.T.);
#2130 = EDGE_CURVE('',#1423,#2106,#2131,.T.);
#2131 = LINE('',#2132,#2133);
#2132 = CARTESIAN_POINT('',(7.4,-13.9,3.6));
#2133 = VECTOR('',#2134,1.);
#2134 = DIRECTION('',(2.2E-16,-1.,-2.2E-16));
#2135 = ORIENTED_EDGE('',*,*,#2105,.T.);
#2136 = PLANE('',#2137);
#2137 = AXIS2_PLACEMENT_3D('',#2138,#2139,#2140);
#2138 = CARTESIAN_POINT('',(7.4,-16.,2.2));
#2139 = DIRECTION('',(1.,0.,-3.2E-16));
#2140 = DIRECTION('',(3.2E-16,-2.2E-16,1.));
#2141 = ADVANCED_FACE('',(#2142,#2154),#2157,.T.);
#2142 = FACE_BOUND('',#2143,.T.);
#2143 = EDGE_LOOP('',(#2144,#2145,#2146,#2147,#2148,#2149,#2150,#2151,
    #2152,#2153));
#2144 = ORIENTED_EDGE('',*,*,#1422,.F.);
#2145 = ORIENTED_EDGE('',*,*,#2130,.T.);
#2146 = ORIENTED_EDGE('',*,*,#2113,.T.);
#2147 = ORIENTED_EDGE('',*,*,#2088,.T.);
#2148 = ORIENTED_EDGE('',*,*,#2064,.T.);
#2149 = ORIENTED_EDGE('',*,*,#2040,.T.);
#2150 = ORIENTED_EDGE('',*,*,#2017,.T.);
#2151 = ORIENTED_EDGE('',*,*,#1994,.T.);
#2152 = ORIENTED_EDGE('',*,*,#1461,.T.);
#2153 = ORIENTED_EDGE('',*,*,#642,.T.);
#2154 = FACE_BOUND('',#2155,.T.);
#2155 = EDGE_LOOP('',(#2156));
#2156 = ORIENTED_EDGE('',*,*,#1498,.F.);
#2157 = PLANE('',#2158);
#2158 = AXIS2_PLACEMENT_3D('',#2159,#2160,#2161);
#2159 = CARTESIAN_POINT('',(8.671592304154,-16.,3.6));
#2160 = DIRECTION('',(0.,-4.E-17,-1.));
#2161 = DIRECTION('',(0.,1.,-4.E-17));
#2162 = ADVANCED_FACE('',(#2163,#2173),#2178,.T.);
#2163 = FACE_BOUND('',#2164,.T.);
#2164 = EDGE_LOOP('',(#2165,#2166,#2167,#2168,#2169,#2170,#2171,#2172));
#2165 = ORIENTED_EDGE('',*,*,#1302,.F.);
#2166 = ORIENTED_EDGE('',*,*,#1007,.T.);
#2167 = ORIENTED_EDGE('',*,*,#1242,.T.);
#2168 = ORIENTED_EDGE('',*,*,#1968,.T.);
#2169 = ORIENTED_EDGE('',*,*,#1951,.T.);
#2170 = ORIENTED_EDGE('',*,*,#1927,.T.);
#2171 = ORIENTED_EDGE('',*,*,#1903,.T.);
#2172 = ORIENTED_EDGE('',*,*,#1880,.T.);
#2173 = FACE_BOUND('',#2174,.T.);
#2174 = EDGE_LOOP('',(#2175,#2176,#2177));
#2175 = ORIENTED_EDGE('',*,*,#1158,.F.);
#2176 = ORIENTED_EDGE('',*,*,#1140,.F.);
#2177 = ORIENTED_EDGE('',*,*,#1149,.F.);
#2178 = PLANE('',#2179);
#2179 = AXIS2_PLACEMENT_3D('',#2180,#2181,#2182);
#2180 = CARTESIAN_POINT('',(-8.675471755506,-16.,3.6));
#2181 = DIRECTION('',(6.9E-16,-4.E-17,-1.));
#2182 = DIRECTION('',(-1.,0.,-6.9E-16));
#2183 = ( GEOMETRIC_REPRESENTATION_CONTEXT(3) 
GLOBAL_UNCERTAINTY_ASSIGNED_CONTEXT((#2187)) 
GLOBAL_UNIT_ASSIGNED_CONTEXT((#2184,#2185,#2186)) REPRESENTATION_CONTEXT
('Context #1','3D Context with UNIT and UNCERTAINTY') );
#2184 = ( LENGTH_UNIT() NAMED_UNIT(*) SI_UNIT(.MILLI.,.METRE.) );
#2185 = ( NAMED_UNIT(*) PLANE_ANGLE_UNIT() SI_UNIT($,.RADIAN.) );
#2186 = ( NAMED_UNIT(*) SI_UNIT($,.STERADIAN.) SOLID_ANGLE_UNIT() );
#2187 = UNCERTAINTY_MEASURE_WITH_UNIT(LENGTH_MEASURE(2.E-05),#2184,
  'distance_accuracy_value','confusion accuracy');
#2188 = PRODUCT_RELATED_PRODUCT_CATEGORY('part',$,(#7));
#2189 = MECHANICAL_DESIGN_GEOMETRIC_PRESENTATION_REPRESENTATION('',(
    #2190),#2183);
#2190 = STYLED_ITEM('color',(#2191),#15);
#2191 = PRESENTATION_STYLE_ASSIGNMENT((#2192,#2198));
#2192 = SURFACE_STYLE_USAGE(.BOTH.,#2193);
#2193 = SURFACE_SIDE_STYLE('',(#2194));
#2194 = SURFACE_STYLE_FILL_AREA(#2195);
#2195 = FILL_AREA_STYLE('',(#2196));
#2196 = FILL_AREA_STYLE_COLOUR('',#2197);
#2197 = COLOUR_RGB('',0.368627460923,0.262745108399,0.717647071237);
#2198 = CURVE_STYLE('',#2199,POSITIVE_LENGTH_MEASURE(0.1),#2200);
#2199 = DRAUGHTING_PRE_DEFINED_CURVE_FONT('continuous');
#2200 = COLOUR_RGB('',9.803921802644E-02,9.803921802644E-02,
  9.803921802644E-02);
ENDSEC;
END-ISO-10303-21;
